<?xml version="1.0" encoding="utf-8"?>
<svg viewBox="0 0 746 241">
	<path d="M144.6,0.2h-24.1H96.4C43.4,0.2,0,43.6,0,96.6v24.1v24.1v96.4h96.4h24.1h24.1c53,0,96.4-43.4,96.4-96.4v-24.1V96.6V0.2
		H144.6z M192.8,106.3v14.5v14.5c0,31.8-26,57.8-57.8,57.8h-14.5H106H48.2v-32.5h0.2c1.1-5.5,6-9.6,11.8-9.6l40.7-4.6l30.6-39.6
		l-71.4,5.7c-6,0-11-4.5-11.9-10.3c2.2-29.8,27.3-53.6,57.7-53.6h14.5h14.5h57.8V106.3z"/>
	<g>
		<path d="M390.2,124.6h-28.3v109.8h-38.9V124.6h-21.2v-19.5l21.2-8.9V86.1c0-8.9,2.3-17.3,4.5-23.2c2.2-5.8,5.2-10.5,9.2-14
			c4-3.5,8.8-6,14.4-7.4c5.6-1.5,12-2.2,19-2.2c7.6,0,14.1,0.6,19.3,1.8c5.2,1.2,9.7,2.6,13.3,4l-9,27.9c-2.6-0.9-5.3-1.7-8.1-2.5
			c-2.8-0.7-6.1-1.1-10-1.1c-5,0-8.5,1.6-10.5,4.8c-2,3.2-3,7.3-3,12.3l-0.3,9.8h28.3V124.6z"/>
		<path d="M453.9,234.4H415V39.7h38.9V234.4z"/>
		<path d="M603.2,162.9c0,11.6-1.5,21.9-4.4,30.9c-2.9,9-7.2,16.5-12.7,22.7c-5.5,6.1-12.2,10.8-20.2,14
			c-7.9,3.2-16.8,4.8-26.7,4.8c-9.2,0-17.7-1.6-25.4-4.8c-7.7-3.2-14.4-7.9-20-14c-5.6-6.1-10-13.7-13.1-22.7
			c-3.2-9-4.7-19.3-4.7-30.9c0-11.5,1.5-21.8,4.4-30.7c2.9-9,7.2-16.5,12.7-22.6c5.5-6.1,12.2-10.7,20.1-13.9
			c7.9-3.2,16.8-4.7,26.8-4.7c9.2,0,17.7,1.6,25.4,4.7c7.7,3.2,14.4,7.8,20,13.9c5.6,6.1,10,13.6,13.1,22.6
			C601.6,141.2,603.2,151.4,603.2,162.9z M514.8,162.9c0,13.9,2,24.3,5.8,31.3c3.9,7,10.3,10.5,19,10.5c8.7,0,15-3.5,18.9-10.6
			c3.9-7.1,5.8-17.5,5.8-31.2c0-13.9-2-24.2-5.8-31.1c-3.9-6.8-10.3-10.3-19.2-10.3c-8.7,0-15,3.4-18.9,10.3
			C516.7,138.7,514.8,149.1,514.8,162.9z"/>
		<path d="M691.1,235.3c-10,0-19.1-1.5-27.5-4.4c-8.4-2.9-15.6-7.3-21.7-13.1c-6.1-5.8-10.8-13.2-14.1-22.2
			c-3.4-8.9-5-19.4-5-31.4c0-12.2,1.5-22.9,4.6-32s7.4-16.7,12.9-22.8c5.5-6.1,12.2-10.7,19.9-13.8c7.8-3.1,16.4-4.6,25.8-4.6
			c9.2,0,17.5,1.4,25,4.2c7.4,2.8,13.7,6.9,18.9,12.3c5.2,5.4,9.2,12,11.9,19.9s4.2,16.8,4.2,26.9v18.4h-84.9
			c0.2,5.3,1,10.1,2.6,14.4c1.5,4.3,3.7,7.9,6.5,10.8c2.8,2.9,6.1,5.2,10.1,6.8c3.9,1.6,8.4,2.4,13.5,2.4c4.2,0,8.2-0.2,12-0.7
			c3.8-0.5,7.4-1.1,11-2.1c3.6-0.9,17.6-5.2,21.3-7.1v28.2c-3.3,1.7-6.7,3.2-10,4.4c-3.4,1.2-6.9,2.2-10.6,3
			c-3.7,0.8-7.8,1.4-12.1,1.8C701,235.1,696.3,235.3,691.1,235.3z M686.3,118c-6.7,0-12.3,2.4-16.7,7.1c-4.4,4.7-7,12.2-7.7,22.3
			h48.4c-0.1-4.2-0.6-8.1-1.6-11.7c-1-3.6-2.5-6.7-4.5-9.3s-4.5-4.7-7.5-6.2C693.7,118.8,690.2,118,686.3,118z"/>
	</g>
</svg>
