<?xml version="1.0" encoding="utf-8"?>
<!-- Generator: Adobe Illustrator 26.0.1, SVG Export Plug-In . SVG Version: 6.00 Build 0)  -->
<svg version="1.1" id="Layer_1" xmlns="http://www.w3.org/2000/svg" xmlns:xlink="http://www.w3.org/1999/xlink" x="0px" y="0px"
	 viewBox="0 0 188.5 55.3" style="enable-background:new 0 0 188.5 55.3;" xml:space="preserve">
<path d="M33,0.1h-5.5H22C9.9,0.1,0,10,0,22.1v5.5v5.5v22h22h5.5H33c12.1,0,22-9.9,22-22v-5.5v-5.5v-22H33z M44,24.3v3.3v3.3
	c0,7.3-5.9,13.2-13.2,13.2h-3.3h-3.3H11v-7.4h0.1c0.3-1.3,1.4-2.2,2.7-2.2l9.3-1.1l7-9l-16.3,1.3c-1.4,0-2.5-1-2.7-2.4
	c0.5-6.8,6.2-12.2,13.2-12.2h3.3h3.3H44V24.3z"/>
<path d="M88,24.1h-8v31H69v-31h-6v-5.5l6-2.5v-2.9c0-2.5,0.7-4.9,1.3-6.5s1.5-3,2.6-4s2.5-1.7,4.1-2.1S80.3,0,82.3,0
	c2.2,0,4,0.2,5.4,0.5s2.7,0.7,3.8,1.1L89,9.5c-0.7-0.3-1.5-0.5-2.3-0.7c-0.8-0.2-1.7-0.3-2.8-0.3c-1.4,0-2.4,0.5-3,1.4
	c-0.6,0.9-0.9,2.1-0.9,3.5L80,16.1h8V24.1z"/>
<path d="M106,55.1H95v-55h11V55.1z"/>
<path d="M173,55.3c-2.8,0-5.4-0.4-7.8-1.2c-2.4-0.8-4.4-2.1-6.1-3.7c-1.7-1.7-3-3.7-4-6.3s-1.4-5.5-1.4-8.9c0-3.4,0.4-6.5,1.3-9
	c0.9-2.6,2.1-4.7,3.6-6.5s3.4-3,5.6-3.9c2.2-0.9,4.6-1.3,7.3-1.3c2.6,0,5,0.4,7,1.2c2.1,0.8,3.9,1.9,5.3,3.5
	c1.5,1.5,2.6,3.4,3.4,5.6c0.8,2.2,1.2,4.8,1.2,7.6v5.2h-24c0,1.5,0.3,2.9,0.7,4.1c0.4,1.2,1,2.2,1.8,3.1c0.8,0.8,1.7,1.5,2.8,1.9
	s2.4,0.7,3.8,0.7c1.2,0,2.3-0.1,3.4-0.2c1.1-0.1,2.1-0.3,3.1-0.6c1-0.3,5-1.5,6-2v8c-0.9,0.5-1.9,0.9-2.8,1.2c-0.9,0.3-2,0.6-3,0.9
	c-1.1,0.2-2.2,0.4-3.4,0.5C175.8,55.3,174.4,55.3,173,55.3z M171.6,22.2c-1.9,0-3.5,0.7-4.7,2s-2,3.4-2.2,6.3h13.7
	c0-1.2-0.2-2.3-0.5-3.3c-0.3-1-0.7-1.9-1.3-2.6s-1.3-1.3-2.1-1.7C173.7,22.4,172.8,22.2,171.6,22.2z"/>
<path d="M148.2,34.9c0,3.3-0.4,6.2-1.2,8.7s-2,4.7-3.6,6.4c-1.6,1.7-3.5,3.1-5.7,4c-2.2,0.9-4.8,1.4-7.5,1.4c-2.6,0-5-0.5-7.2-1.4
	s-4.1-2.2-5.6-4c-1.6-1.7-2.8-3.9-3.7-6.4c-0.9-2.5-1.3-5.4-1.3-8.7c0-3.3,0.4-6.2,1.2-8.7c0.8-2.5,2-4.7,3.6-6.4
	c1.6-1.7,3.5-3,5.7-3.9s4.7-1.3,7.6-1.3c2.6,0,5,0.4,7.2,1.3s4.1,2.2,5.6,3.9s2.8,3.8,3.7,6.4C147.7,28.8,148.2,31.7,148.2,34.9z
	 M123.2,34.9c0,3.9,0.6,6.9,1.7,8.8c1.1,2,2.9,3,5.4,3c2.5,0,4.2-1,5.3-3s1.7-4.9,1.7-8.8c0-3.9-0.6-6.8-1.7-8.8
	c-1.1-1.9-2.9-2.9-5.4-2.9c-2.5,0-4.2,1-5.3,2.9S123.2,31,123.2,34.9z"/>
</svg>
