<?xml version="1.0" encoding="utf-8"?>
<!-- Generator: Adobe Illustrator 19.2.1, SVG Export Plug-In . SVG Version: 6.00 Build 0)  -->
<svg version="1.1" id="layer" xmlns="http://www.w3.org/2000/svg" xmlns:xlink="http://www.w3.org/1999/xlink" x="0px" y="0px"
	 viewBox="0 0 652 652" style="enable-background:new 0 0 652 652;" xml:space="preserve">
<style type="text/css">
	.st0{fill:#FF0000;}
</style>
<path class="st0" d="M21.2,186.8h27v54.9h-27V186.8z M108,186.8h27v54.9h-27V186.8z M74.4,198.3l3.9-7.8L82,198
	c0.5,0.8,0.9,0.7,1.6,0.4l3.3-1.6l-2.1,10.5c-0.4,2.1,0.7,2.7,2,1.3l4.7-5l1.2,2.8c0.4,0.9,1,0.7,1.9,0.6l4.8-1l-1.6,6.1v0.1
	c-0.2,0.8-0.6,1.5,0.3,1.9l1.7,0.9l-10,8.4c-1,1-0.7,1.4-0.3,2.5l0.9,2.8l-9.3-1.7c-1.1-0.3-1.9-0.3-2,0.6l0.4,10.7h-2.8l0.4-10.6
	c0-1-0.8-1-2.7-0.6l-8.6,1.7l1.1-2.8c0.4-1.1,0.5-1.8-0.4-2.5L56.5,215l1.9-1.1c0.5-0.4,0.6-0.9,0.3-1.8l-1.9-6.2l4.9,1
	c1.4,0.3,1.7,0,2.1-0.7l1.4-2.8l4.8,5.4c0.9,1,2.1,0.4,1.7-1.1l-2.3-11.4l3.6,2.1c0.6,0.4,1.2,0.4,1.5-0.2"/>
<path d="M202.3,210.1h-2.5l-0.6-2.7c-2.1,2.4-4,3.2-6.8,3.2c-6.8,0-10.8-5.4-10.8-11.8s4.1-11.8,10.8-11.8c4.9,0,9.1,2.6,9.7,7.7
	h-3.9c-0.4-3-3-4.5-5.9-4.5c-4.8,0-6.9,4.3-6.9,8.6c0,4.3,2,8.6,6.9,8.6c4,0.1,6.3-2.4,6.3-6.2h-6v-3h9.6V210.1z M213.6,207.7
	c-3.2,0-4.7-2.9-4.7-5.8c0-2.9,1.4-5.8,4.7-5.8c3.2,0,4.7,2.9,4.7,5.8C218.3,204.7,216.9,207.7,213.6,207.7z M213.6,210.5
	c5.3,0,8.3-3.6,8.3-8.6c0-5-3-8.6-8.3-8.6s-8.3,3.6-8.3,8.6C205.4,206.9,208.4,210.5,213.6,210.5L213.6,210.5z M223.3,193.7h3.9
	l4.1,12.6h0.1l4-12.6h3.7l-5.9,16.4h-4L223.3,193.7z M244.1,200.4c0-2.4,1.9-4.3,4.2-4.3c0,0,0.1,0,0.1,0c2.4,0,4,2.1,4.1,4.3H244.1
	z M256.2,202.8c0.6-4.9-2.6-9.6-7.7-9.6c-4.9,0-7.9,4-7.9,8.6c0,5,2.9,8.6,8,8.6c3.6,0,6.6-2,7.4-5.6h-3.4c-0.6,1.8-1.9,2.7-4,2.7
	c-3,0-4.4-2.3-4.4-4.8L256.2,202.8z M258.9,193.7h3.4v3.2h0.1c0.7-2.1,2.6-3.5,4.8-3.6c0.5,0,0.9,0,1.4,0.1v3.5
	c-0.5-0.1-1-0.1-1.6-0.2c-2.5,0-4.4,2-4.4,5.6v7.8h-3.6V193.7z M270.1,193.7h3.4v2.4l0.1,0.1c1.1-1.8,3-2.9,5.1-2.9
	c3.5,0,5.8,1.9,5.8,5.6v11.2h-3.6v-10.3c-0.1-2.6-1.1-3.7-3.2-3.7c-2.4,0-4,1.9-4,4.3v9.6h-3.6L270.1,193.7L270.1,193.7z
	 M288.2,193.7h3.4v2.3h0.1c1-1.8,3-2.8,5-2.7c2,0,3.9,0.9,4.6,2.7c1.1-1.7,3.1-2.8,5.1-2.7c3.4,0,5.5,1.5,5.5,5.5v11.3h-3.6v-9.6
	c0-2.6-0.2-4.4-3-4.4c-2.4,0-3.5,1.6-3.5,4.4v9.6h-3.6v-10.5c0-2.2-0.7-3.4-2.9-3.4c-1.9,0-3.6,1.5-3.6,4.2v9.7h-3.6L288.2,193.7
	L288.2,193.7z M318.6,200.4c0-2.4,1.9-4.3,4.2-4.3c0,0,0.1,0,0.1,0c2.4,0,4,2.1,4.1,4.3H318.6z M330.6,202.8
	c0.6-4.9-2.6-9.6-7.7-9.6c-4.9,0-7.9,4-7.9,8.6c0,5,2.9,8.6,8,8.6c3.6,0,6.6-2,7.4-5.6H327c-0.6,1.8-1.9,2.7-4,2.7
	c-3,0-4.4-2.3-4.4-4.8L330.6,202.8z M333.4,193.7h3.4v2.4l0.1,0.1c1.1-1.8,3-2.9,5.1-2.9c3.5,0,5.8,1.9,5.8,5.6v11.2h-3.6v-10.3
	c-0.1-2.6-1.1-3.7-3.2-3.7c-2.4,0-4,1.9-4,4.3v9.6h-3.6V193.7z M349.9,193.7h2.7v-4.9h3.6v4.9h3.3v2.7h-3.3v8.7
	c0,1.5,0.1,2.2,1.7,2.2c0.5,0,1,0,1.5-0.1v2.8c-0.8,0.1-1.6,0.2-2.3,0.2c-3.8,0-4.5-1.5-4.5-4.2v-9.7h-2.7V193.7z M189.6,239.3
	c-3.2,0-4.7-2.9-4.7-5.8c0-2.9,1.4-5.8,4.7-5.8c3.2,0,4.7,2.9,4.7,5.8C194.3,236.3,192.8,239.3,189.6,239.3z M189.6,242.2
	c5.3,0,8.3-3.6,8.3-8.6s-3-8.6-8.3-8.6c-5.3,0-8.3,3.6-8.3,8.6S184.4,242.2,189.6,242.2z M199.3,225.3h2.7V224
	c0-4.2,2.2-4.9,4.5-4.9c0.9,0,1.7,0,2.5,0.2v2.8c-0.5-0.1-1.1-0.2-1.7-0.2c-1,0-1.8,0.4-1.8,1.7v1.7h3.1v2.7h-3.1v13.7H202V228h-2.7
	V225.3z M235.4,226.3c-0.7-2.6-2.3-4.5-5.6-4.5c-4.8,0-6.9,4.3-6.9,8.6s2,8.6,6.9,8.6c3.5,0,5.4-2.6,5.8-5.9h3.8
	c-0.3,5.4-4.1,9.2-9.6,9.2c-6.8,0-10.8-5.4-10.8-11.8s4.1-11.8,10.8-11.8c5.1,0,9.1,2.8,9.6,7.7H235.4L235.4,226.3z M252.6,236.2
	c0,2.3-2.5,3.1-4.1,3.1c-1.3,0-3.3-0.5-3.3-2.1c0-1.9,1.4-2.5,2.9-2.7s3.3-0.3,4.4-1L252.6,236.2z M256.2,229.6
	c0-3.4-3.4-4.7-6.6-4.7c-3.6,0-7.2,1.2-7.4,5.4h3.6c0.2-1.8,1.6-2.6,3.6-2.6c1.5,0,3.4,0.4,3.4,2.2c0,2.1-2.3,1.8-4.9,2.3
	c-3,0.3-6.3,1-6.3,5.1c0,3.2,2.7,4.8,5.6,4.8c2.1,0.1,4.1-0.7,5.7-2c0.3,1.5,1.3,2,2.8,2c0.8,0,1.5-0.2,2.3-0.4v-2.5
	c-0.3,0-0.6,0.1-0.9,0.1c-0.7,0-0.9-0.3-0.9-1.2L256.2,229.6z M260.1,225.3h3.4v2.4l0.1,0.1c1.1-1.8,3-2.9,5.1-2.9
	c3.5,0,5.8,1.9,5.8,5.6v11.3h-3.7v-10.3c-0.1-2.6-1.1-3.7-3.2-3.7c-2.4,0-4,1.9-4,4.3v9.7h-3.6V225.3z M288.4,236.2
	c0,2.3-2.5,3.1-4,3.1c-1.3,0-3.3-0.5-3.3-2.1c0-1.9,1.4-2.5,2.9-2.7c1.5-0.3,3.3-0.3,4.4-1L288.4,236.2z M292,229.6
	c0-3.4-3.4-4.7-6.6-4.7c-3.6,0-7.2,1.2-7.4,5.4h3.6c0.2-1.8,1.6-2.6,3.6-2.6c1.5,0,3.4,0.4,3.4,2.2c0,2.1-2.3,1.8-4.9,2.3
	c-3,0.3-6.3,1-6.3,5.1c0,3.2,2.7,4.8,5.6,4.8c2.1,0.1,4.1-0.7,5.7-2c0.3,1.5,1.3,2,2.8,2c0.8,0,1.5-0.2,2.3-0.4v-2.5
	c-0.3,0-0.6,0.1-0.9,0.1c-0.7,0-0.9-0.3-0.9-1.2L292,229.6z M298.7,233.7c0-2.9,1.2-6,4.6-6c2.8,0,4.5,2.2,4.5,5.8
	c0,2.8-1.4,5.8-4.6,5.8C300,239.3,298.7,236.5,298.7,233.7z M311.3,219.1h-3.6v8.4h-0.1c-1.1-1.8-3.4-2.6-5.4-2.6
	c-3.6,0-7.1,2.6-7.1,8.5c0,4.9,2.5,8.7,7.7,8.7c2.1,0,4.1-0.8,5.1-2.7h0.1v2.2h3.4C311.3,241.7,311.3,219.1,311.3,219.1z
	 M325.3,236.2c0,2.3-2.5,3.1-4.1,3.1c-1.3,0-3.3-0.5-3.3-2.1c0-1.9,1.4-2.5,2.9-2.7s3.3-0.3,4.4-1L325.3,236.2z M328.9,229.6
	c0-3.4-3.4-4.7-6.6-4.7c-3.6,0-7.2,1.2-7.4,5.4h3.6c0.2-1.8,1.6-2.6,3.6-2.6c1.5,0,3.4,0.4,3.4,2.2c0,2.1-2.3,1.8-4.9,2.3
	c-3,0.3-6.3,1-6.3,5.1c0,3.2,2.7,4.8,5.6,4.8c2.1,0.1,4.1-0.7,5.7-2c0.3,1.5,1.3,2,2.8,2c0.8,0,1.5-0.2,2.3-0.4v-2.5
	c-0.3,0-0.6,0.1-0.9,0.1c-0.7,0-0.9-0.3-0.9-1.2L328.9,229.6z"/>
<path d="M427.9,210.3h-2.5l-0.6-2.7c-2.1,2.4-4,3.2-6.8,3.2c-6.8,0-10.8-5.4-10.8-11.8s4.1-11.8,10.8-11.8c4.9,0,9.1,2.6,9.7,7.8
	h-3.9c-0.4-3-3-4.5-5.9-4.5c-4.8,0-6.9,4.3-6.9,8.6s2,8.6,6.9,8.6c4,0.1,6.3-2.4,6.3-6.2h-6v-3h9.6L427.9,210.3L427.9,210.3z
	 M439.1,207.9c-3.2,0-4.7-2.9-4.7-5.8c0-2.9,1.4-5.8,4.7-5.8c3.2,0,4.7,2.9,4.7,5.8S442.4,207.9,439.1,207.9z M439.1,210.7
	c5.3,0,8.3-3.6,8.3-8.6s-3-8.6-8.3-8.6c-5.3,0-8.3,3.7-8.3,8.6C430.9,207.1,433.9,210.7,439.1,210.7z M464.8,210.3h-3.5V208h-0.1
	c-1,1.7-2.7,2.7-4.7,2.7c-4.3,0-6.1-2.2-6.1-6.4v-10.4h3.6v10c0,2.9,1.2,3.9,3.1,3.9c3,0,4-1.9,4-4.5v-9.5h3.6
	C464.8,193.9,464.8,210.3,464.8,210.3z M467,193.9h3.9l4.1,12.6h0.1l4-12.6h3.7l-5.9,16.4h-4.1L467,193.9z M487.8,200.6
	c0-2.4,1.9-4.3,4.2-4.3c0,0,0.1,0,0.1,0c2.4,0,4,2.1,4.1,4.3H487.8z M499.9,203c0.6-4.9-2.6-9.6-7.7-9.6c-4.9,0-7.9,4-7.9,8.6
	c0,5,2.9,8.6,8,8.6c3.6,0,6.6-2,7.4-5.6h-3.4c-0.6,1.8-1.9,2.7-4,2.7c-3,0-4.4-2.3-4.4-4.8L499.9,203z M502.6,193.9h3.4v3.2h0.1
	c0.7-2.1,2.6-3.6,4.8-3.7c0.5,0,0.9,0,1.4,0.1v3.5c-0.5-0.1-1-0.1-1.6-0.2c-2.5,0-4.4,2-4.4,5.6v7.8h-3.6V193.9z M513.7,193.9h3.4
	v2.4l0.1,0.1c1.1-1.8,3-2.9,5.1-2.9c3.6,0,5.8,1.9,5.8,5.6v11.2h-3.6V200c-0.1-2.6-1.1-3.7-3.2-3.7c-2.4,0-4,1.9-4,4.3v9.6h-3.6
	L513.7,193.9z M534.7,200.6c0-2.4,1.9-4.3,4.2-4.3c0,0,0.1,0,0.1,0c2.4,0,4,2.1,4.1,4.3H534.7z M546.8,203c0.6-4.9-2.6-9.6-7.7-9.6
	c-4.9,0-7.9,4-7.9,8.6c0,5,2.9,8.6,8,8.6c3.6,0,6.6-2,7.4-5.6h-3.4c-0.6,1.8-1.9,2.7-4,2.7c-3,0-4.4-2.3-4.4-4.8L546.8,203z
	 M549.5,193.9h3.4v2.3h0.1c1-1.8,3-2.9,5-2.8c2,0,3.9,0.9,4.6,2.7c1.1-1.7,3.1-2.8,5.1-2.7c3.4,0,5.5,1.5,5.5,5.5v11.3h-3.6v-9.5
	c0-2.6-0.2-4.4-3-4.4c-2.4,0-3.5,1.6-3.5,4.4v9.5h-3.6v-10.5c0-2.2-0.7-3.4-2.9-3.4c-1.9,0-3.6,1.5-3.6,4.2v9.7h-3.6V193.9
	L549.5,193.9z M579.9,200.6c0-2.4,1.9-4.3,4.2-4.3c0,0,0,0,0.1,0c2.4,0,4,2.1,4.1,4.3H579.9z M591.9,203c0.6-4.9-2.6-9.6-7.7-9.6
	c-4.9,0-7.9,4-7.9,8.6c0,5,2.9,8.6,8,8.6c3.6,0,6.6-2,7.4-5.6h-3.4c-0.6,1.8-1.9,2.7-4,2.7c-3,0-4.4-2.3-4.4-4.8L591.9,203z
	 M594.7,193.9h3.4v2.4l0.1,0.1c1.1-1.8,3-2.9,5.1-2.9c3.6,0,5.8,1.9,5.8,5.6v11.2h-3.7V200c-0.1-2.6-1.1-3.7-3.2-3.7
	c-2.4,0-4,1.9-4,4.3v9.6h-3.6L594.7,193.9z M611.2,193.9h2.7V189h3.6v4.9h3.3v2.7h-3.3v8.7c0,1.5,0.1,2.2,1.7,2.2c0.5,0,1,0,1.5-0.1
	v2.8c-0.8,0.1-1.6,0.2-2.3,0.2c-3.8,0-4.5-1.5-4.5-4.2v-9.7h-2.7L611.2,193.9L611.2,193.9z M410.4,233.9c0-2.9,1.2-6,4.6-6
	c2.8,0,4.5,2.2,4.5,5.8c0,2.8-1.4,5.8-4.6,5.8S410.4,236.7,410.4,233.9z M423,219.3h-3.6v8.4h-0.1c-1.1-1.8-3.4-2.6-5.4-2.6
	c-3.6,0-7.1,2.6-7.1,8.5c0,4.9,2.5,8.7,7.7,8.7c2.1,0,4.1-0.8,5.1-2.7h0.1v2.2h3.4L423,219.3L423,219.3z M441.3,241.9h-3.6v-2.3l0,0
	c-1,1.7-2.7,2.7-4.7,2.7c-4.3,0-6.1-2.2-6.1-6.4v-10.4h3.6v10c0,2.9,1.2,3.9,3.1,3.9c3,0,4-1.9,4-4.5v-9.5h3.6L441.3,241.9
	L441.3,241.9z M469.7,226.5c-0.7-2.6-2.3-4.5-5.6-4.5c-4.8,0-6.9,4.3-6.9,8.6c0,4.3,2,8.6,6.9,8.6c3.5,0,5.4-2.6,5.8-5.9h3.9
	c-0.3,5.4-4.1,9.2-9.6,9.2c-6.8,0-10.8-5.4-10.8-11.8c0-6.5,4-11.8,10.8-11.8c5.1,0,9.1,2.8,9.6,7.7L469.7,226.5L469.7,226.5z
	 M486.9,236.4c0,2.3-2.5,3.1-4,3.1c-1.3,0-3.3-0.5-3.3-2.1c0-1.9,1.4-2.5,2.9-2.7c1.5-0.3,3.3-0.3,4.4-1L486.9,236.4L486.9,236.4z
	 M490.5,229.8c0-3.4-3.4-4.8-6.6-4.8c-3.6,0-7.2,1.2-7.4,5.4h3.6c0.2-1.8,1.6-2.6,3.6-2.6c1.5,0,3.4,0.4,3.4,2.2
	c0,2.1-2.3,1.8-4.9,2.3c-3,0.3-6.3,1-6.3,5.1c0,3.2,2.7,4.8,5.6,4.8c2.1,0.1,4.1-0.7,5.7-2c0.3,1.5,1.3,2,2.8,2
	c0.8,0,1.5-0.2,2.3-0.4v-2.5c-0.3,0-0.6,0.1-0.9,0.1c-0.7,0-0.9-0.3-0.9-1.2L490.5,229.8L490.5,229.8z M494.4,225.6h3.4v2.4l0.1,0.1
	c1.1-1.8,3-2.9,5.1-2.9c3.6,0,5.8,1.9,5.8,5.6v11.3h-3.6v-10.3c-0.1-2.6-1.1-3.7-3.2-3.7c-2.4,0-4,1.9-4,4.3v9.6h-3.6L494.4,225.6z
	 M522.7,236.4c0,2.3-2.5,3.1-4.1,3.1c-1.3,0-3.3-0.5-3.3-2.1c0-1.9,1.4-2.5,2.9-2.7c1.5-0.3,3.3-0.3,4.5-1V236.4L522.7,236.4z
	 M526.3,229.8c0-3.4-3.4-4.8-6.6-4.8c-3.6,0-7.2,1.2-7.4,5.4h3.6c0.2-1.8,1.6-2.6,3.6-2.6c1.5,0,3.4,0.4,3.4,2.2
	c0,2.1-2.3,1.8-4.9,2.3c-3,0.3-6.3,1-6.3,5.1c0,3.2,2.7,4.8,5.6,4.8c2.1,0.1,4.1-0.7,5.7-2c0.3,1.5,1.3,2,2.8,2
	c0.8,0,1.5-0.2,2.3-0.4v-2.5c-0.3,0-0.6,0.1-0.9,0.1c-0.7,0-0.9-0.3-0.9-1.2L526.3,229.8L526.3,229.8z M533,233.9c0-2.9,1.2-6,4.6-6
	c2.8,0,4.5,2.2,4.5,5.8c0,2.8-1.4,5.8-4.6,5.8C534.3,239.5,533,236.7,533,233.9z M545.6,219.3H542v8.4h-0.1
	c-1.1-1.8-3.4-2.6-5.4-2.6c-3.6,0-7.1,2.6-7.1,8.5c0,4.9,2.5,8.7,7.7,8.7c2.1,0,4.1-0.8,5.1-2.7h0.1v2.2h3.4L545.6,219.3
	L545.6,219.3z M559.6,236.4c0,2.3-2.5,3.1-4,3.1c-1.3,0-3.3-0.5-3.3-2.1c0-1.9,1.4-2.5,2.9-2.7c1.5-0.3,3.3-0.3,4.4-1L559.6,236.4
	L559.6,236.4z M563.2,229.8c0-3.4-3.4-4.8-6.6-4.8c-3.6,0-7.2,1.2-7.4,5.4h3.6c0.2-1.8,1.6-2.6,3.6-2.6c1.5,0,3.4,0.4,3.4,2.2
	c0,2.1-2.3,1.8-4.9,2.3c-3,0.3-6.3,1-6.3,5.1c0,3.2,2.7,4.8,5.6,4.8c2.1,0.1,4.1-0.7,5.7-2c0.3,1.5,1.3,2,2.8,2
	c0.8,0,1.5-0.2,2.3-0.4v-2.5c-0.3,0-0.6,0.1-0.9,0.1c-0.7,0-0.9-0.3-0.9-1.2L563.2,229.8L563.2,229.8z"/>
<g id="wmms" transform="translate(-1, -1)">
	<path class="st0" d="M592.2,314.6H614v43.6h-21.8V314.6z M554.5,336.4l-1.3,0.4c0,0,7.5,6.3,7.5,6.7c0.4,0.4,0.8,0.4,0.4,1.7
		c-0.4,1.3-0.8,2.5-0.8,2.5s6.7-1.3,7.5-1.7c0.8,0,1.3,0,1.3,0.8s-0.4,8-0.4,8h2.1c0,0-0.4-7.5-0.4-8c0-0.8,0.4-0.8,1.3-0.8
		c0.8,0,7.5,1.7,7.5,1.7s-0.4-1.7-0.8-2.5c-0.4-1.3,0-1.3,0.4-1.7c0.4-0.4,7.5-6.7,7.5-6.7l-1.3-0.4c-0.8-0.4-0.4-0.8-0.4-1.3
		s1.3-4.6,1.3-4.6s-3.4,0.8-3.8,0.8c-0.4,0-0.8,0-0.8-0.4s-0.8-2.1-0.8-2.1s-3.8,4.2-4.2,4.6c-0.8,0.8-1.7,0-1.3-0.8
		c0-0.8,2.1-9.6,2.1-9.6s-2.1,1.3-2.9,1.7c-0.8,0.4-1.3,0.4-1.3-0.4c-0.4-0.8-2.9-5.5-2.9-5.9c0,0-2.5,5-2.9,5.9
		c-0.4,0.8-0.8,0.8-1.3,0.4c-0.8-0.4-2.9-1.7-2.9-1.7s2.1,8.8,2.1,9.6c0,0.8-0.4,1.3-1.3,0.8l-4.2-4.6c0,0-0.4,1.3-0.8,1.7
		c0,0.4-0.4,0.8-0.8,0.4c-0.8,0-4.2-0.8-4.2-0.8s1.3,4.2,1.7,4.6C555.3,335.1,555.3,336,554.5,336.4z M526.4,314.6h21.8v43.6h-21.8
		V314.6z"/>
	<path d="M618.6,445.4c-1.7,3.8-5,5-7.1,5c-2.5,0-10.1-0.4-10.1-20.1c0,0,0-39.8,0-42.3c0-13-10.1-23.5-36.1-23.5
		c-28.1,0-28.5,13.8-28.5,17.2c-0.4,3.8,1.7,8,8.8,8c6.3,0,8-7.1,8.8-9.6c0.8-2.9,1.3-11.3,12.6-11.3c9.6,0,15.5,8.4,15.9,20.5
		c0,2.1,0,3.4,0,4.6c0,0.8,0,1.3,0,2.1l0,0l0,0v0.4c-0.8,4.2-2.9,6.3-6.7,8c-5,2.5-19.7,4.6-21.4,5c-5.9,1.3-22.2,5.5-21.8,22.6
		c0.4,16.8,17.2,22.6,28.9,22.2c11.3-0.4,18-5,21-7.5c1.7-1.3,1.7-1.3,2.9,0.4c1.7,1.7,7.1,7.1,20.1,7.1c13.4,0,15.1-6.3,15.9-8.4
		C622.4,444.5,619.4,443.3,618.6,445.4z M566.2,450c-11.7,0-14.7-9.6-14.7-14.7c0-4.6,2.5-14.3,14.3-21c0,0,5.5-3.4,15.9-7.5
		c0.4,0,0.8,0,0.8,0s0.4,0.4,0.4,0.8l0,0l0,0v0.4l0,0l0,0v0.4l0,0l0,0l0,0v17.6C583,439.9,576.3,450,566.2,450z M527.6,449.6
		c-1.7-0.4-12.2,0.8-12.2-31s0-100.2,0-100.2c0-1.3,0-4.6-3.8-4.6s-28.9,1.3-30.6,1.7c-1.7,0-2.9,2.1,0,2.1
		c2.9,0.4,16.4,1.3,16.4,23.5c0,10.9,0,21.8,0,29.8c0,0.4,0,0.8,0,0.8c0,0.8,0,1.3-0.4,1.7c0,0,0,0,0,0.4l0,0
		c-0.4,0.4-0.8,0-2.1-0.8c-2.1-1.7-11.7-7.5-23.9-7.5c-19.7,0-44,14.3-44,43.6c0,31.4,22.2,46.5,45.3,46.5c11.3,0,19.3-5,22.2-6.7
		c3.4-2.1,2.9-1.7,3.4,1.3c0.4,2.1,0,6.3,5.9,5.9c6.3-0.8,21.4-2.5,24.3-2.9C531,451.7,530.1,450,527.6,449.6z M475.6,450.8
		c-18.4,0-28.1-21.8-28.1-42.8c0-23.1,13-38.6,26.8-37.7c18,1.3,22.6,15.5,23.1,41.1c0,1.7,0,3.4,0,5.5
		C497,442,486.5,450.8,475.6,450.8z M426.6,445.4c-1.7,3.8-5,5-7.1,5c-2.5,0-10.1-0.4-10.1-20.1c0,0,0-39.8,0-42.3
		c0-13-10.1-23.5-36.1-23.5c-28.1,0-28.5,13.8-28.5,17.2c-0.4,3.8,1.7,8,8.8,8c6.3,0,8-7.1,8.8-9.6c0.8-2.9,1.3-11.3,12.6-11.3
		c9.6,0,15.9,8.4,15.9,21v0.4c0,0.4,0,0.8,0,0.8v1.3c0,0.4,0,1.3,0,1.7c-0.4,6.3-2.1,8.4-7.1,10.9c-5,2.5-19.7,4.6-21.4,5
		c-5.9,1.3-22.2,5.5-21.8,22.6c0.4,16.8,17.2,22.6,28.9,22.2c11.3-0.4,18-5,21-7.5c1.7-1.3,1.7-1.3,2.9,0.4
		c1.7,1.7,7.1,7.1,20.1,7.1c13.4,0,15.1-6.3,15.9-8.4C430.4,444.5,427.8,443.3,426.6,445.4z M374.6,450c-11.7,0-14.7-9.6-14.7-14.7
		c0-4.6,2.5-14.3,14.3-21c0,0,5.5-3.4,15.9-7.5c0.4,0,0.8,0,0.8,0v0.4l0,0l0,0c0,0.4,0,0.8,0,1.7v-0.4c0,0,0,0,0,0.4v17.6
		C391,439.9,384.2,450,374.6,450z M334.4,449.6c-3.4-0.8-9.2-4.6-9.2-23.1V393c0-8,0.8-28.5-30.6-28.5c-16.4,0-25.6,8.4-26.4,8.8
		c-1.3,1.3-2.1,1.7-2.5-0.4c-0.4-1.7-1.3-4.2-1.7-5.9c-0.4-1.3-1.3-2.5-4.2-2.1s-21.4,3.4-24.7,4.2c-2.9,0.8-2.1,2.1,0,2.5
		c2.1,0.4,12.2,1.3,12.2,18.4s0,36.1,0,36.1c0,21-4.2,22.6-8,23.9c-5,1.3-2.5,2.9-0.4,2.9c0,0,37.3,0,38.2,0c2.5,0,3.8-2.5-1.3-3.4
		c-5-0.8-9.6-3.8-9.6-20.1c0-1.7,0-19.7,0-23.1c0-8.8-2.1-35.6,22.2-36.1c17.2-0.4,18.9,13.8,18.9,23.1V429
		c0,14.7-4.2,19.3-9.2,20.1c-4.6,0.8-3.8,2.9-1.3,2.9c0.8,0,39,0,39,0C337.7,452.9,339.8,450.8,334.4,449.6z M232.5,445.4
		c-1.7,3.8-5,5-7.1,5c-2.5,0-10.1-0.4-10.1-20.1c0,0,0-39.8,0-42.3c0-13-10.1-23.5-36.1-23.5c-28.1,0-28.5,13.8-28.5,17.2
		c-0.4,3.8,1.7,8,8.8,8c6.3,0,8-7.1,8.8-9.6c0.8-2.9,1.3-11.3,12.6-11.3c9.6,0,15.5,8.4,15.9,20.5c0,2.1,0,3.4,0,4.6
		c0,0.8,0,1.7-0.4,2.1v0.4l0,0c-0.8,4.2-2.9,6.3-6.7,8c-5,2.5-19.7,4.6-21.4,5c-5.9,1.3-22.2,5.5-21.8,22.6
		c0.4,16.8,17.2,22.6,28.9,22.2c11.3-0.4,18-5,21-7.5c1.7-1.3,1.7-1.3,2.9,0.4c1.7,1.7,7.1,7.1,20.1,7.1c13.4,0,15.1-6.3,15.9-8.4
		C236.2,444.5,233.3,443.3,232.5,445.4z M180.1,450c-11.7,0-14.7-9.6-14.7-14.7c0-5,2.5-14.3,14.3-21c0,0,5.5-3.4,15.9-7.5
		c0.4,0,0.8,0,0.8,0s0.4,0.4,0.4,0.8l0,0l0,0l0,0c0,0,0,0.4,0,0.8l0,0l0,0v0.4l0,0l0,0l0,0v17.6C196.8,439.9,190.1,450,180.1,450z
		 M139.8,413.5c-4.2,13.4-12.2,35.2-41.1,36.1c-30.2,0.4-48.2-20.1-49.1-58.3c-1.3-40.7,16.4-71.7,43.6-72.5
		c30.6-0.4,41.5,36.1,41.9,41.5c0.4,4.2,5.9,3.8,5.9-0.4c0-2.1-2.5-38.2-3.4-42.3c-0.8-4.2-4.2-2.5-5-0.8c-0.4,1.3,0.4-1.3-1.3,2.5
		c-1.7,3.8-6.3,1.7-8,1.3c-5-2.1-14.7-7.1-30.2-6.7C57.6,314.6,21.2,341,22,387.1c0.8,44.9,36.9,70,70.4,69.6
		c30.6-0.4,47.8-19.7,52.8-41.9C146.9,409.3,141.5,408.1,139.8,413.5z"/>
</g>
</svg>
