<svg xmlns="http://www.w3.org/2000/svg">

    <!--
    Menu Icon Source: Pinecone, Platform Coop Tookit.
    https://github.com/platform-coop-toolkit/pinecone/tree/dev/src/assets/images
    BSD 3-Clause License
    Copyright (c) 2019, OCAD University. All rights reserved.
    -->
    <symbol id="icon-menu" viewBox="0 0 20 20">
        <path d="m3 5h14a1 1 0 0 0 0-2h-14a1 1 0 0 0 0 2z"/>
        <path d="m17 9h-14a1 1 0 0 0 0 2h14a1 1 0 0 0 0-2z"/>
        <path d="m17 15h-14a1 1 0 0 0 0 2h14a1 1 0 0 0 0-2z"/>
    </symbol>

    <!-- Logos  -->

    <symbol id="logo-idrc" viewBox="0 0 61.387 77.161">
        <path d="M21.701 12.809c6.365 10.428 14.345 23.502 19.237 34.619 2.625-3.069 6.783-7.631 10.449-11.338V10.161H20.086l1.615 2.648z"/>
        <path d="M42.243 50.534c1.541 3.866 2.62 7.419 3.018 10.443.454 3.457-.195 6.477-1.783 8.285-.965 1.102-2.21 1.684-3.598 1.684-1.236 0-2.506-.635-3.576-1.787-1.674-1.803-2.512-4.474-2.3-7.328.364-4.902 2.73-9.046 4.806-11.798-4.7-11.134-13.068-24.844-19.67-35.661-.885-1.45-1.746-2.86-2.565-4.211H1.387v65h50V40.393c-3.537 3.694-7.154 7.734-9.144 10.141z"/>
        <path d="M38.501 67.117c.568.612 1.097.829 1.378.829.514 0 .952-.217 1.344-.662.986-1.125 1.395-3.393 1.062-5.916-.307-2.34-1.064-5.046-2.152-7.997-1.489 2.304-2.887 5.306-3.138 8.682-.148 1.996.416 3.889 1.506 5.064z"/>
        <circle cx="56.887" cy="35.659" r="2.5"/>
        <path d="M19.387 4.16a3.004 3.004 0 0 1-3.001 3.001 3 3 0 1 1 3.001-3.001z"/>
    </symbol>

    <symbol id="logo-idrc-wordmark" viewBox="0 0 289 74">
        <path d="M73,14.18a2.47,2.47,0,0,1,.19-1,1.9,1.9,0,0,1,.52-.67,1.92,1.92,0,0,1,.78-.36,4.58,4.58,0,0,1,1.88,0,2,2,0,0,1,.77.36,1.77,1.77,0,0,1,.53.68,2.73,2.73,0,0,1,0,2,1.8,1.8,0,0,1-.53.69,2,2,0,0,1-.77.36,4,4,0,0,1-1.88,0,1.92,1.92,0,0,1-.78-.36,1.86,1.86,0,0,1-.52-.69A2.49,2.49,0,0,1,73,14.18Zm4.66,20.61H73.19V18.42h4.47Z"/><path d="M96,34.79H91.5V25.23a5.19,5.19,0,0,0-.5-2.66,1.86,1.86,0,0,0-1.71-.89,2.77,2.77,0,0,0-1.46.35,2.49,2.49,0,0,0-.93,1,5.48,5.48,0,0,0-.49,1.69A15,15,0,0,0,86.26,27v7.7H81.75V18.42h3.42l.6,2.09H86a4.23,4.23,0,0,1,.85-1.08A4.84,4.84,0,0,1,88,18.68a5.14,5.14,0,0,1,1.27-.43,7,7,0,0,1,3.56.2,4.26,4.26,0,0,1,1.69,1.08A4.69,4.69,0,0,1,95.6,21.4a8.32,8.32,0,0,1,.4,2.71Z"/><path d="M106.85,35.09a9.73,9.73,0,0,1-3.17-.49,6.17,6.17,0,0,1-2.42-1.5,6.51,6.51,0,0,1-1.53-2.61,11.65,11.65,0,0,1-.54-3.8,13.2,13.2,0,0,1,.55-4.09,6.71,6.71,0,0,1,1.55-2.6,5.88,5.88,0,0,1,2.42-1.42,11.11,11.11,0,0,1,3.14-.42,10.09,10.09,0,0,1,2.51.31,10.27,10.27,0,0,1,2.34.86l-1.29,3.4a15.42,15.42,0,0,0-1.86-.7,6.1,6.1,0,0,0-1.7-.27A2.5,2.5,0,0,0,104.5,23a7.43,7.43,0,0,0-.74,3.71,7,7,0,0,0,.74,3.63,2.49,2.49,0,0,0,2.3,1.18,7.55,7.55,0,0,0,2.31-.33,16.17,16.17,0,0,0,2.12-.85V34l-1,.47a9,9,0,0,1-1,.33,8,8,0,0,1-1.09.2Q107.49,35.07,106.85,35.09Z"/><path d="M119,34.79h-4.47V12H119Z"/><path d="M133.81,34.79l-.6-2.09H133a4.49,4.49,0,0,1-.87,1.07,4.58,4.58,0,0,1-1.11.74,5.62,5.62,0,0,1-1.27.44,7.1,7.1,0,0,1-1.38.14,6.47,6.47,0,0,1-2.18-.35,4.26,4.26,0,0,1-1.69-1.08,4.72,4.72,0,0,1-1.08-1.86,8.3,8.3,0,0,1-.38-2.71V18.42h4.46V28a5.2,5.2,0,0,0,.54,2.66,1.83,1.83,0,0,0,1.7.89,2.81,2.81,0,0,0,1.47-.36,2.42,2.42,0,0,0,.93-1,5.62,5.62,0,0,0,.49-1.7,14.94,14.94,0,0,0,.15-2.31v-7.7h4.46V34.79Z"/><path d="M152.5,29.93a5.18,5.18,0,0,1-.47,2.26,4.33,4.33,0,0,1-1.33,1.61,5.9,5.9,0,0,1-2.1,1,10.62,10.62,0,0,1-2.75.33q-.81,0-1.5-.06a11.26,11.26,0,0,1-1.3-.16,12.18,12.18,0,0,1-1.19-.3,8.13,8.13,0,0,1-1.16-.44V30.44A12.42,12.42,0,0,0,142,31a13.39,13.39,0,0,0,1.36.43,11.78,11.78,0,0,0,1.31.29,6.64,6.64,0,0,0,1.18.1,4.2,4.2,0,0,0,1-.11,2,2,0,0,0,.7-.31,1.19,1.19,0,0,0,.39-.47,1.4,1.4,0,0,0,.13-.57,1.28,1.28,0,0,0-.1-.55,1.37,1.37,0,0,0-.43-.52,7.85,7.85,0,0,0-1-.61c-.44-.23-1-.51-1.75-.84s-1.25-.64-1.85-1a5.11,5.11,0,0,1-1.29-1.07,3.88,3.88,0,0,1-.76-1.34,6,6,0,0,1-.25-1.79,4.46,4.46,0,0,1,.44-2,4,4,0,0,1,1.25-1.43,5.35,5.35,0,0,1,1.94-.85,10.15,10.15,0,0,1,2.52-.29,10.93,10.93,0,0,1,2.79.34,13.77,13.77,0,0,1,2.71,1L151,22.62a18.45,18.45,0,0,0-2.12-.86,6.18,6.18,0,0,0-2-.34,2.15,2.15,0,0,0-1.31.32,1.07,1.07,0,0,0-.4.88,1.15,1.15,0,0,0,.1.52,1.33,1.33,0,0,0,.41.47,5.94,5.94,0,0,0,.87.53c.37.19.85.42,1.45.69s1.32.61,1.87.9a6.51,6.51,0,0,1,1.44,1,3.87,3.87,0,0,1,.92,1.34A4.53,4.53,0,0,1,152.5,29.93Z"/><path d="M155.35,14.18a2.65,2.65,0,0,1,.19-1,1.9,1.9,0,0,1,.52-.67,2.06,2.06,0,0,1,.78-.36,4.32,4.32,0,0,1,.95-.1,4.2,4.2,0,0,1,.93.1,2,2,0,0,1,.77.36,1.82,1.82,0,0,1,.53.67,2.8,2.8,0,0,1,0,2.09,1.77,1.77,0,0,1-.53.68,2,2,0,0,1-.77.37,4.15,4.15,0,0,1-.93.11,4.33,4.33,0,0,1-.95-.11,1.88,1.88,0,0,1-.78-.37,1.82,1.82,0,0,1-.52-.68A2.73,2.73,0,0,1,155.35,14.18ZM160,34.79h-4.47V18.42H160Z"/><path d="M168,34.79l-5.78-16.37h4.67l2.71,9.33a17.48,17.48,0,0,1,.43,1.73,12.63,12.63,0,0,1,.23,1.62h.09a10.08,10.08,0,0,1,.23-1.65c.12-.58.26-1.15.43-1.7l2.69-9.33h4.69L172.6,34.79Z"/><path d="M187.21,35.09a9.9,9.9,0,0,1-3.24-.52,6.63,6.63,0,0,1-4.21-4.15,10.82,10.82,0,0,1-.59-3.7,12,12,0,0,1,.54-3.76,7.41,7.41,0,0,1,1.52-2.69,6.06,6.06,0,0,1,2.34-1.62,8.12,8.12,0,0,1,3-.54,8.41,8.41,0,0,1,2.94.49,6,6,0,0,1,2.26,1.4,6.52,6.52,0,0,1,1.41,2.34,9.47,9.47,0,0,1,.49,3.17v2.17h-10a5.37,5.37,0,0,0,.3,1.69,3.59,3.59,0,0,0,.76,1.27,3.21,3.21,0,0,0,1.19.8,4.14,4.14,0,0,0,1.59.28,13.33,13.33,0,0,0,1.41-.08,9.59,9.59,0,0,0,1.3-.24,9,9,0,0,0,1.24-.41c.43-.17.85-.35,1.26-.56v3.46a10.31,10.31,0,0,1-1.18.52,9.35,9.35,0,0,1-1.25.36,11.3,11.3,0,0,1-1.42.21A10.67,10.67,0,0,1,187.21,35.09Zm-.57-13.8a2.56,2.56,0,0,0-2,.83,4.14,4.14,0,0,0-.9,2.62h5.7a5.8,5.8,0,0,0-.19-1.37,3.45,3.45,0,0,0-.53-1.09,2.57,2.57,0,0,0-.88-.73A2.62,2.62,0,0,0,186.64,21.29Z"/><path d="M206.06,35.09A4.82,4.82,0,0,1,202,32.94a8.24,8.24,0,0,1-1.17-2.64,14.17,14.17,0,0,1-.42-3.67,14.37,14.37,0,0,1,.42-3.69A8.18,8.18,0,0,1,202,20.27a5,5,0,0,1,1.84-1.62,5.2,5.2,0,0,1,2.36-.54,5.88,5.88,0,0,1,1.45.18,4.16,4.16,0,0,1,1.18.52,4.67,4.67,0,0,1,.95.76,6.13,6.13,0,0,1,.74.94h.14c-.06-.38-.11-.77-.16-1.16s-.09-.68-.12-1.06a8.34,8.34,0,0,1,0-1V12h4.46V34.79h-3.41l-.86-2.12h-.19a7.24,7.24,0,0,1-.71.94,4,4,0,0,1-.91.77,4.55,4.55,0,0,1-1.17.52A5.63,5.63,0,0,1,206.06,35.09Zm1.63-3.56a3.14,3.14,0,0,0,1.35-.27,2.29,2.29,0,0,0,.9-.82,4.2,4.2,0,0,0,.51-1.37,10.32,10.32,0,0,0,.18-1.92v-.49a13.52,13.52,0,0,0-.14-2.11A5,5,0,0,0,210,23a2.44,2.44,0,0,0-.91-1,3.13,3.13,0,0,0-1.44-.32A2.17,2.17,0,0,0,205.6,23a8.16,8.16,0,0,0-.66,3.68,7.8,7.8,0,0,0,.66,3.63A2.23,2.23,0,0,0,207.69,31.53Z"/><path d="M226.15,35.09a9.84,9.84,0,0,1-3.23-.52A6.74,6.74,0,0,1,220.37,33a7.05,7.05,0,0,1-1.66-2.61,10.37,10.37,0,0,1-.6-3.7,11.39,11.39,0,0,1,.55-3.76,7.39,7.39,0,0,1,1.51-2.69,6.09,6.09,0,0,1,2.35-1.62,9,9,0,0,1,6,0,5.82,5.82,0,0,1,2.2,1.38,6.52,6.52,0,0,1,1.41,2.34,9.73,9.73,0,0,1,.49,3.17v2.17h-10a5.37,5.37,0,0,0,.3,1.69,3.5,3.5,0,0,0,.76,1.27,3.17,3.17,0,0,0,1.18.8,4.14,4.14,0,0,0,1.59.28,13.52,13.52,0,0,0,1.42-.08,9.45,9.45,0,0,0,1.29-.24,9.13,9.13,0,0,0,1.25-.41c.43-.17.85-.35,1.26-.56v3.46a10.31,10.31,0,0,1-1.18.52,10.18,10.18,0,0,1-2.67.57A10.72,10.72,0,0,1,226.15,35.09Zm-.57-13.8a2.56,2.56,0,0,0-2,.83,4.16,4.16,0,0,0-.9,2.62h5.7a5.33,5.33,0,0,0-.19-1.37,3,3,0,0,0-.53-1.09,2.45,2.45,0,0,0-.87-.73,2.67,2.67,0,0,0-1.21-.26Z"/><path d="M247,29.93a5.17,5.17,0,0,1-.46,2.26,4.36,4.36,0,0,1-1.34,1.61,5.78,5.78,0,0,1-2.09,1,10.69,10.69,0,0,1-2.76.33,12,12,0,0,1-1.49-.06,11.26,11.26,0,0,1-1.3-.16,12.18,12.18,0,0,1-1.19-.3,8.13,8.13,0,0,1-1.16-.44V30.44a14.4,14.4,0,0,0,2.65,1c.45.12.89.22,1.32.29a6.6,6.6,0,0,0,1.17.1,4.2,4.2,0,0,0,1-.11,2.2,2.2,0,0,0,.7-.31,1.19,1.19,0,0,0,.39-.47,1.39,1.39,0,0,0,.12-.57,1.71,1.71,0,0,0-.09-.55,1.37,1.37,0,0,0-.43-.52,7.85,7.85,0,0,0-1-.61c-.44-.23-1-.51-1.75-.84a12.18,12.18,0,0,1-1.86-1,5.48,5.48,0,0,1-1.28-1.07,3.88,3.88,0,0,1-.76-1.34,5.7,5.7,0,0,1-.25-1.79,4.46,4.46,0,0,1,.44-2,3.91,3.91,0,0,1,1.25-1.43,5.35,5.35,0,0,1,1.94-.85,10.15,10.15,0,0,1,2.52-.29,10.93,10.93,0,0,1,2.79.34,14.7,14.7,0,0,1,2.71,1l-1.35,3.16a17.89,17.89,0,0,0-2.13-.86,6.18,6.18,0,0,0-2-.34,2.15,2.15,0,0,0-1.31.32,1.07,1.07,0,0,0-.4.88,1.15,1.15,0,0,0,.1.52,1.33,1.33,0,0,0,.41.47,5.46,5.46,0,0,0,.87.53c.37.19.85.42,1.45.69s1.31.61,1.87.9a6.51,6.51,0,0,1,1.44,1,4,4,0,0,1,.92,1.34A4.82,4.82,0,0,1,247,29.93Z"/><path d="M249.88,14.18a2.65,2.65,0,0,1,.19-1,1.9,1.9,0,0,1,.52-.67,1.92,1.92,0,0,1,.78-.36,4.47,4.47,0,0,1,1.88,0,2,2,0,0,1,.77.36,1.82,1.82,0,0,1,.53.67,2.8,2.8,0,0,1,0,2.09A1.77,1.77,0,0,1,254,16a2,2,0,0,1-.77.37,4.07,4.07,0,0,1-1.88,0,1.88,1.88,0,0,1-.78-.37,1.66,1.66,0,0,1-.52-.68A2.73,2.73,0,0,1,249.88,14.18Zm4.66,20.61h-4.47V18.42h4.47Z"/><path d="M272.29,18.44v2.44l-2.39.74a4,4,0,0,1,.41,1,5.54,5.54,0,0,1,.12,1.15A6.32,6.32,0,0,1,270,26a4.69,4.69,0,0,1-1.17,1.77A5.16,5.16,0,0,1,266.91,29a8.15,8.15,0,0,1-2.73.41h-.73a3.68,3.68,0,0,1-.58-.08,2.07,2.07,0,0,0-.46.52,1.13,1.13,0,0,0-.17.65.65.65,0,0,0,.19.49,1.54,1.54,0,0,0,.49.3,3,3,0,0,0,.72.14,6,6,0,0,0,.85,0H267a7.64,7.64,0,0,1,2.13.27,4.26,4.26,0,0,1,1.59.83,3.79,3.79,0,0,1,1,1.41,5.48,5.48,0,0,1,.35,2,5.65,5.65,0,0,1-.56,2.52,5.16,5.16,0,0,1-1.66,1.9,8.44,8.44,0,0,1-2.75,1.2,15.09,15.09,0,0,1-3.79.42,12,12,0,0,1-2.92-.32,6.32,6.32,0,0,1-2.08-.9,4,4,0,0,1-1.25-1.43,4.14,4.14,0,0,1-.42-1.89,3.72,3.72,0,0,1,1.18-2.66A4.4,4.4,0,0,1,259,34a7.82,7.82,0,0,1,1.34-.45,2.55,2.55,0,0,1-.61-.37,2.76,2.76,0,0,1-.54-.54,3.11,3.11,0,0,1-.4-.68,2.08,2.08,0,0,1-.15-.78,2.45,2.45,0,0,1,.14-.85,2.37,2.37,0,0,1,.4-.71,4.36,4.36,0,0,1,.66-.63c.26-.19.56-.39.89-.6a4.37,4.37,0,0,1-2-1.78,5.56,5.56,0,0,1-.75-2.9,6.12,6.12,0,0,1,.41-2.36,4.76,4.76,0,0,1,1.2-1.77,5.17,5.17,0,0,1,2-1.1,8.52,8.52,0,0,1,2.7-.38h.65l.73.09.67.11.48.1ZM260.57,37.11a1.74,1.74,0,0,0,.15.71,1.48,1.48,0,0,0,.51.6,2.65,2.65,0,0,0,.92.42,5.6,5.6,0,0,0,1.41.16,7.29,7.29,0,0,0,3.44-.65,1.94,1.94,0,0,0,1.15-1.73,1.2,1.2,0,0,0-.71-1.23,6,6,0,0,0-2.23-.31h-2.07a4,4,0,0,0-.85.1,2.49,2.49,0,0,0-.83.33,2,2,0,0,0-.64.62A1.79,1.79,0,0,0,260.57,37.11Zm1.61-13.33a3.55,3.55,0,0,0,.5,2.06,1.7,1.7,0,0,0,1.51.73,1.67,1.67,0,0,0,1.52-.73,3.79,3.79,0,0,0,.47-2.06,4.25,4.25,0,0,0-.46-2.1,1.63,1.63,0,0,0-1.53-.77C262.85,20.91,262.18,21.86,262.18,23.78Z"/><path d="M289,34.79h-4.47V25.23a5.32,5.32,0,0,0-.53-2.66,1.88,1.88,0,0,0-1.71-.89,2.77,2.77,0,0,0-1.46.35,2.49,2.49,0,0,0-.93,1,5.22,5.22,0,0,0-.49,1.69,15,15,0,0,0-.15,2.32v7.7h-4.47V18.42h3.41l.61,2.09h.24a4.5,4.5,0,0,1,.86-1.08,4.92,4.92,0,0,1,1.11-.75,5.14,5.14,0,0,1,1.27-.43,7,7,0,0,1,3.56.2,4.26,4.26,0,0,1,1.69,1.08,5.09,5.09,0,0,1,1.08,1.87,8.58,8.58,0,0,1,.38,2.71V34.79Z"/><path d="M80.11,52.33h1a6.85,6.85,0,0,1,.91.11l-.35,2.46-.85-.13a7.34,7.34,0,0,0-.81-.05,3.71,3.71,0,0,0-3,1.44,5.28,5.28,0,0,0-.85,1.67,7.18,7.18,0,0,0-.3,2.16v8.68H73.15V52.62h2.17l.32,3h.11c.25-.42.51-.83.79-1.22a5.87,5.87,0,0,1,.93-1,4.39,4.39,0,0,1,1.17-.72A3.91,3.91,0,0,1,80.11,52.33Z"/><path d="M90.73,69a7.78,7.78,0,0,1-2.94-.54,6.4,6.4,0,0,1-2.3-1.58A7.26,7.26,0,0,1,84,64.3a10.82,10.82,0,0,1-.53-3.52A12.23,12.23,0,0,1,84,57.22a8.11,8.11,0,0,1,1.37-2.66,5.76,5.76,0,0,1,2.1-1.66,6.71,6.71,0,0,1,5.31,0,5.56,5.56,0,0,1,2,1.46A6.67,6.67,0,0,1,96,56.64a9.41,9.41,0,0,1,.43,2.93v1.66H86.23a6.7,6.7,0,0,0,1.2,4.16,4.1,4.1,0,0,0,3.33,1.33,12.75,12.75,0,0,0,1.38-.07q.61-.08,1.23-.21A9.4,9.4,0,0,0,94.52,66c.37-.14.75-.3,1.13-.47V67.9a11.61,11.61,0,0,1-1.15.48,9.45,9.45,0,0,1-1.15.34,10.46,10.46,0,0,1-1.23.19A6.87,6.87,0,0,1,90.73,69Zm-.66-14.46a3.29,3.29,0,0,0-2.64,1.14A5.69,5.69,0,0,0,86.29,59H93.5a8,8,0,0,0-.2-1.82,4.08,4.08,0,0,0-.61-1.42,2.93,2.93,0,0,0-1.07-.91A3.47,3.47,0,0,0,90.07,54.54Z"/><path d="M109.6,64.3a4.76,4.76,0,0,1-.42,2A3.92,3.92,0,0,1,108,67.82a5.52,5.52,0,0,1-1.92.89,10.31,10.31,0,0,1-2.54.29,12.6,12.6,0,0,1-2.74-.26,7.1,7.1,0,0,1-2-.75V65.56c.3.15.64.31,1,.46a12.13,12.13,0,0,0,2.44.69,8,8,0,0,0,1.29.11,7.36,7.36,0,0,0,1.62-.16,3.31,3.31,0,0,0,1.09-.47,1.78,1.78,0,0,0,.6-.73,2.31,2.31,0,0,0,.19-1,2.52,2.52,0,0,0-.14-.82,2.13,2.13,0,0,0-.54-.72,5.54,5.54,0,0,0-1.06-.73,18.38,18.38,0,0,0-1.73-.82c-.73-.3-1.33-.6-1.89-.89a6.8,6.8,0,0,1-1.43-1,3.78,3.78,0,0,1-.9-1.26,4.5,4.5,0,0,1,.08-3.51,3.78,3.78,0,0,1,1.14-1.34,5.25,5.25,0,0,1,1.76-.82,8.33,8.33,0,0,1,2.28-.28,9.9,9.9,0,0,1,2.6.31,12.71,12.71,0,0,1,2.24.8l-.93,2.16a16,16,0,0,0-2-.74,6.8,6.8,0,0,0-2-.32,4.09,4.09,0,0,0-2.22.49,1.6,1.6,0,0,0-.71,1.4,2.31,2.31,0,0,0,.16.9,2.11,2.11,0,0,0,.58.71,6,6,0,0,0,1.1.69c.46.23,1,.48,1.72.77a20,20,0,0,1,1.88.87,6.94,6.94,0,0,1,1.41,1,4,4,0,0,1,.9,1.25A4.32,4.32,0,0,1,109.6,64.3Z"/><path d="M119.42,69a7.78,7.78,0,0,1-2.94-.54,6.4,6.4,0,0,1-2.3-1.58,7.24,7.24,0,0,1-1.48-2.58,10.82,10.82,0,0,1-.53-3.52,12,12,0,0,1,.48-3.56A8.06,8.06,0,0,1,114,54.56a5.76,5.76,0,0,1,2.1-1.66,6.3,6.3,0,0,1,2.7-.57,6.15,6.15,0,0,1,2.61.52,5.56,5.56,0,0,1,2,1.46,6.67,6.67,0,0,1,1.24,2.28,9.41,9.41,0,0,1,.43,2.93v1.66H114.92a6.7,6.7,0,0,0,1.2,4.16,4.1,4.1,0,0,0,3.33,1.33,12.75,12.75,0,0,0,1.38-.07q.61-.07,1.23-.21a7.67,7.67,0,0,0,1.15-.36c.37-.14.75-.3,1.13-.47v2.37a11.61,11.61,0,0,1-1.15.48,9.45,9.45,0,0,1-1.15.34,10.46,10.46,0,0,1-1.23.19A10.25,10.25,0,0,1,119.42,69Zm-.66-14.46a3.29,3.29,0,0,0-2.64,1.14A5.74,5.74,0,0,0,115,59h7.21a8,8,0,0,0-.2-1.82,4.08,4.08,0,0,0-.61-1.42,2.93,2.93,0,0,0-1.07-.91A3.53,3.53,0,0,0,118.76,54.54Z"/><path d="M137.53,68.71,137,66.48h-.12a8.33,8.33,0,0,1-1,1.14,4.7,4.7,0,0,1-1,.78,4.81,4.81,0,0,1-1.27.45A8.17,8.17,0,0,1,132,69a5.88,5.88,0,0,1-1.86-.29,3.85,3.85,0,0,1-1.47-.87,4.12,4.12,0,0,1-1-1.5,5.92,5.92,0,0,1-.35-2.13A4.37,4.37,0,0,1,129,60.52a9,9,0,0,1,5.15-1.41l2.7-.1V58a5.36,5.36,0,0,0-.22-1.64A2.44,2.44,0,0,0,136,55.3a2.2,2.2,0,0,0-1-.58,4.4,4.4,0,0,0-1.35-.18,7.27,7.27,0,0,0-2.27.35,14.64,14.64,0,0,0-2,.85l-.94-2a12.47,12.47,0,0,1,2.42-1,9.83,9.83,0,0,1,2.8-.41,10.17,10.17,0,0,1,2.58.3,4.29,4.29,0,0,1,1.8.95,4,4,0,0,1,1.07,1.66,7.53,7.53,0,0,1,.35,2.45v11Zm-4.89-1.86a4.89,4.89,0,0,0,1.65-.28,3.59,3.59,0,0,0,1.32-.84,4,4,0,0,0,.87-1.42,5.9,5.9,0,0,0,.32-2V60.84l-2.1.1a10.23,10.23,0,0,0-2.21.3,3.79,3.79,0,0,0-1.43.65,2.37,2.37,0,0,0-.77,1,3.6,3.6,0,0,0-.23,1.34,2.51,2.51,0,0,0,.71,2A2.7,2.7,0,0,0,132.64,66.85Z"/><path d="M150.7,52.33h1a6.85,6.85,0,0,1,.91.11l-.35,2.46-.84-.13a7.52,7.52,0,0,0-.82-.05,3.92,3.92,0,0,0-1.68.37,3.77,3.77,0,0,0-1.31,1.07,5.28,5.28,0,0,0-.85,1.67A7,7,0,0,0,146.4,60v8.68h-2.66V52.62h2.17l.32,3h.12a14,14,0,0,1,.78-1.22,5.57,5.57,0,0,1,.94-1,4.1,4.1,0,0,1,1.16-.72A3.91,3.91,0,0,1,150.7,52.33Z"/><path d="M161.15,69a8.18,8.18,0,0,1-2.77-.46,5.68,5.68,0,0,1-2.24-1.47,7.1,7.1,0,0,1-1.49-2.56,11.39,11.39,0,0,1-.55-3.76,12,12,0,0,1,.56-3.9,6.9,6.9,0,0,1,1.53-2.61,5.78,5.78,0,0,1,2.28-1.45,8.35,8.35,0,0,1,2.8-.46,9.84,9.84,0,0,1,2.23.25,8.29,8.29,0,0,1,1.82.61l-.79,2.26c-.22-.1-.47-.19-.74-.29a7.59,7.59,0,0,0-.85-.24,6.72,6.72,0,0,0-.87-.18,5.29,5.29,0,0,0-.8-.07,3.84,3.84,0,0,0-3.36,1.48,7.92,7.92,0,0,0-1,4.57A7.55,7.55,0,0,0,158,65.24a3.74,3.74,0,0,0,3.23,1.43,7.76,7.76,0,0,0,2.14-.27,10.77,10.77,0,0,0,1.75-.64v2.38a7.18,7.18,0,0,1-1.69.64A9,9,0,0,1,161.15,69Z"/><path d="M178.33,68.71V58.35a4.48,4.48,0,0,0-.77-2.86,2.94,2.94,0,0,0-2.41-1,4.72,4.72,0,0,0-2,.38A3.13,3.13,0,0,0,171.86,56a4.88,4.88,0,0,0-.71,1.83,13,13,0,0,0-.21,2.49v8.34h-2.67V45.91H171v6.77l-.12,2.11H171a4.35,4.35,0,0,1,.87-1.09,5.65,5.65,0,0,1,1.11-.77,4.81,4.81,0,0,1,1.27-.45,6.41,6.41,0,0,1,1.38-.15,5.4,5.4,0,0,1,4,1.4A6.23,6.23,0,0,1,181,58.2V68.71Z"/><path d="M197.4,69.07a8.43,8.43,0,0,1-2.77-.46,5.68,5.68,0,0,1-2.24-1.47,7,7,0,0,1-1.5-2.56,11.42,11.42,0,0,1-.54-3.76,12,12,0,0,1,.56-3.9,6.9,6.9,0,0,1,1.53-2.61,5.87,5.87,0,0,1,2.28-1.46,8.54,8.54,0,0,1,2.79-.45,9.93,9.93,0,0,1,2.24.25,7.8,7.8,0,0,1,1.82.61l-.79,2.26c-.22-.1-.47-.19-.75-.29s-.55-.17-.85-.25a7.25,7.25,0,0,0-.86-.17,4.43,4.43,0,0,0-.81-.07,3.81,3.81,0,0,0-3.35,1.48,7.86,7.86,0,0,0-1.06,4.57,7.63,7.63,0,0,0,1.07,4.52,3.74,3.74,0,0,0,3.23,1.43,7.76,7.76,0,0,0,2.14-.27,10.77,10.77,0,0,0,1.75-.64V68.2a6.8,6.8,0,0,1-1.69.65A9,9,0,0,1,197.4,69.07Z"/><path d="M210.68,69.07a7.67,7.67,0,0,1-3-.54,6.18,6.18,0,0,1-2.29-1.59A7.07,7.07,0,0,1,204,64.37a11.08,11.08,0,0,1-.52-3.52,12,12,0,0,1,.48-3.56,7.81,7.81,0,0,1,1.36-2.66,5.76,5.76,0,0,1,2.1-1.66,6.3,6.3,0,0,1,2.7-.57,6.15,6.15,0,0,1,2.61.52,5.56,5.56,0,0,1,2,1.46A6.62,6.62,0,0,1,216,56.65a9.43,9.43,0,0,1,.43,2.94v1.66H206.18a6.64,6.64,0,0,0,1.19,4.16,4.12,4.12,0,0,0,3.33,1.33,8.54,8.54,0,0,0,1.39-.07,10.22,10.22,0,0,0,1.23-.22,9.5,9.5,0,0,0,1.15-.35c.37-.14.74-.3,1.13-.48V68c-.4.18-.78.35-1.15.48a9.6,9.6,0,0,1-1.16.34,10.46,10.46,0,0,1-1.23.19Q211.42,69.07,210.68,69.07ZM210,54.61a3.28,3.28,0,0,0-2.65,1.14,5.64,5.64,0,0,0-1.13,3.33h7.2a8,8,0,0,0-.19-1.83,4.34,4.34,0,0,0-.62-1.41,2.91,2.91,0,0,0-1.06-.91A3.62,3.62,0,0,0,210,54.61Z"/><path d="M229.89,68.78V58.42a4.54,4.54,0,0,0-.77-2.86,2.94,2.94,0,0,0-2.41-1,4.72,4.72,0,0,0-2,.38,3.16,3.16,0,0,0-1.3,1.13,5,5,0,0,0-.7,1.83,12.21,12.21,0,0,0-.22,2.49v8.34h-2.66v-16H222l.38,2.17h.14a5.09,5.09,0,0,1,.87-1.09A4.69,4.69,0,0,1,224.5,53a5.22,5.22,0,0,1,1.27-.46,7.1,7.1,0,0,1,1.38-.14,5.35,5.35,0,0,1,4,1.4,6.27,6.27,0,0,1,1.35,4.47v10.5Z"/><path d="M241.86,66.89h.59l.64-.08a3.45,3.45,0,0,0,.56-.1l.39-.1v2a4.68,4.68,0,0,1-.48.18c-.21.06-.43.11-.65.15s-.47.08-.73.1h-.74a5.71,5.71,0,0,1-1.69-.24,3.07,3.07,0,0,1-1.34-.8,3.88,3.88,0,0,1-.89-1.55A8.13,8.13,0,0,1,237.2,64V54.7h-2.27V53.51l2.27-1.14L238.35,49h1.53v3.69h4.05v2h-4.05V64a4,4,0,0,0,.47,2.14A1.64,1.64,0,0,0,241.86,66.89Z"/><path d="M253.74,52.4h.95a5.62,5.62,0,0,1,.91.1l-.36,2.5-.84-.13a7.34,7.34,0,0,0-.81,0,3.82,3.82,0,0,0-1.69.37,3.89,3.89,0,0,0-1.31,1.07,5.28,5.28,0,0,0-.85,1.67,7.18,7.18,0,0,0-.3,2.16v8.67h-2.66V52.69h2.16l.33,3h.11c.25-.42.51-.83.79-1.22a5.52,5.52,0,0,1,.93-1,4.39,4.39,0,0,1,1.17-.72A3.91,3.91,0,0,1,253.74,52.4Z"/><path d="M264.36,69.07a7.78,7.78,0,0,1-2.94-.54,6.22,6.22,0,0,1-2.3-1.59,7.11,7.11,0,0,1-1.48-2.57,10.82,10.82,0,0,1-.53-3.52,12,12,0,0,1,.48-3.56A8.11,8.11,0,0,1,259,54.63,5.85,5.85,0,0,1,261.06,53a6.71,6.71,0,0,1,5.31,0,5.56,5.56,0,0,1,2,1.46,6.62,6.62,0,0,1,1.24,2.27,9.73,9.73,0,0,1,.43,2.94v1.66H259.86a6.7,6.7,0,0,0,1.2,4.16,4.1,4.1,0,0,0,3.33,1.33,8.36,8.36,0,0,0,1.38-.07,10.22,10.22,0,0,0,1.23-.22,9,9,0,0,0,1.15-.35c.37-.14.75-.3,1.13-.48V68a11.61,11.61,0,0,1-1.15.48,9.45,9.45,0,0,1-1.15.34,10.31,10.31,0,0,1-1.24.19Q265.11,69.07,264.36,69.07Zm-.66-14.46a3.29,3.29,0,0,0-2.64,1.14,5.72,5.72,0,0,0-1.14,3.33h7.21a8,8,0,0,0-.2-1.83,4.11,4.11,0,0,0-.61-1.41,2.93,2.93,0,0,0-1.07-.91,3.62,3.62,0,0,0-1.55-.32Z"/><path d="M20.31,11.65c6.37,10.43,14.35,23.5,19.24,34.62C42.18,43.2,46.33,38.63,50,34.93V9H18.7Z"/><path d="M40.86,49.37a44.78,44.78,0,0,1,3,10.45c.46,3.45-.19,6.47-1.78,8.28a4.71,4.71,0,0,1-3.6,1.68A5,5,0,0,1,34.92,68a9.64,9.64,0,0,1-2.3-7.33,22.91,22.91,0,0,1,4.8-11.8C32.72,37.74,24.36,24,17.75,13.21L15.19,9H0V74H50V39.23C46.46,42.93,42.85,47,40.86,49.37Z"/><path d="M37.11,66a2.24,2.24,0,0,0,1.38.83,1.78,1.78,0,0,0,1.35-.67c1-1.12,1.39-3.39,1.06-5.91a38.16,38.16,0,0,0-2.16-8,18.94,18.94,0,0,0-3.13,8.68A6.84,6.84,0,0,0,37.11,66Z"/><circle cx="55.5" cy="34.5" r="2.5"/><path d="M18,3a3,3,0,1,1-3-3A3,3,0,0,1,18,3Z"/>
    </symbol>

    <symbol id="logo-floe" viewBox="0 0 746 241">
        <path d="M144.6,0.2h-24.1H96.4C43.4,0.2,0,43.6,0,96.6v24.1v24.1v96.4h96.4h24.1h24.1c53,0,96.4-43.4,96.4-96.4v-24.1V96.6V0.2
            H144.6z M192.8,106.3v14.5v14.5c0,31.8-26,57.8-57.8,57.8h-14.5H106H48.2v-32.5h0.2c1.1-5.5,6-9.6,11.8-9.6l40.7-4.6l30.6-39.6
            l-71.4,5.7c-6,0-11-4.5-11.9-10.3c2.2-29.8,27.3-53.6,57.7-53.6h14.5h14.5h57.8V106.3z"/>
        <g>
            <path d="M390.2,124.6h-28.3v109.8h-38.9V124.6h-21.2v-19.5l21.2-8.9V86.1c0-8.9,2.3-17.3,4.5-23.2c2.2-5.8,5.2-10.5,9.2-14
                c4-3.5,8.8-6,14.4-7.4c5.6-1.5,12-2.2,19-2.2c7.6,0,14.1,0.6,19.3,1.8c5.2,1.2,9.7,2.6,13.3,4l-9,27.9c-2.6-0.9-5.3-1.7-8.1-2.5
                c-2.8-0.7-6.1-1.1-10-1.1c-5,0-8.5,1.6-10.5,4.8c-2,3.2-3,7.3-3,12.3l-0.3,9.8h28.3V124.6z"/>
            <path d="M453.9,234.4H415V39.7h38.9V234.4z"/>
            <path d="M603.2,162.9c0,11.6-1.5,21.9-4.4,30.9c-2.9,9-7.2,16.5-12.7,22.7c-5.5,6.1-12.2,10.8-20.2,14
                c-7.9,3.2-16.8,4.8-26.7,4.8c-9.2,0-17.7-1.6-25.4-4.8c-7.7-3.2-14.4-7.9-20-14c-5.6-6.1-10-13.7-13.1-22.7
                c-3.2-9-4.7-19.3-4.7-30.9c0-11.5,1.5-21.8,4.4-30.7c2.9-9,7.2-16.5,12.7-22.6c5.5-6.1,12.2-10.7,20.1-13.9
                c7.9-3.2,16.8-4.7,26.8-4.7c9.2,0,17.7,1.6,25.4,4.7c7.7,3.2,14.4,7.8,20,13.9c5.6,6.1,10,13.6,13.1,22.6
                C601.6,141.2,603.2,151.4,603.2,162.9z M514.8,162.9c0,13.9,2,24.3,5.8,31.3c3.9,7,10.3,10.5,19,10.5c8.7,0,15-3.5,18.9-10.6
                c3.9-7.1,5.8-17.5,5.8-31.2c0-13.9-2-24.2-5.8-31.1c-3.9-6.8-10.3-10.3-19.2-10.3c-8.7,0-15,3.4-18.9,10.3
                C516.7,138.7,514.8,149.1,514.8,162.9z"/>
            <path d="M691.1,235.3c-10,0-19.1-1.5-27.5-4.4c-8.4-2.9-15.6-7.3-21.7-13.1c-6.1-5.8-10.8-13.2-14.1-22.2
                c-3.4-8.9-5-19.4-5-31.4c0-12.2,1.5-22.9,4.6-32s7.4-16.7,12.9-22.8c5.5-6.1,12.2-10.7,19.9-13.8c7.8-3.1,16.4-4.6,25.8-4.6
                c9.2,0,17.5,1.4,25,4.2c7.4,2.8,13.7,6.9,18.9,12.3c5.2,5.4,9.2,12,11.9,19.9s4.2,16.8,4.2,26.9v18.4h-84.9
                c0.2,5.3,1,10.1,2.6,14.4c1.5,4.3,3.7,7.9,6.5,10.8c2.8,2.9,6.1,5.2,10.1,6.8c3.9,1.6,8.4,2.4,13.5,2.4c4.2,0,8.2-0.2,12-0.7
                c3.8-0.5,7.4-1.1,11-2.1c3.6-0.9,17.6-5.2,21.3-7.1v28.2c-3.3,1.7-6.7,3.2-10,4.4c-3.4,1.2-6.9,2.2-10.6,3
                c-3.7,0.8-7.8,1.4-12.1,1.8C701,235.1,696.3,235.3,691.1,235.3z M686.3,118c-6.7,0-12.3,2.4-16.7,7.1c-4.4,4.7-7,12.2-7.7,22.3
                h48.4c-0.1-4.2-0.6-8.1-1.6-11.7c-1-3.6-2.5-6.7-4.5-9.3s-4.5-4.7-7.5-6.2C693.7,118.8,690.2,118,686.3,118z"/>
        </g>
    </symbol>

    <symbol id="logo-floe-leaf" viewBox="0 0 240 240">
        <path d="M144.6,0.2h-24.1H96.4C43.4,0.2,0,43.6,0,96.6v24.1v24.1v96.4h96.4h24.1h24.1c53,0,96.4-43.4,96.4-96.4v-24.1V96.6V0.2
            H144.6z M192.8,106.3v14.5v14.5c0,31.8-26,57.8-57.8,57.8h-14.5H106H48.2v-32.5h0.2c1.1-5.5,6-9.6,11.8-9.6l40.7-4.6l30.6-39.6
            l-71.4,5.7c-6,0-11-4.5-11.9-10.3c2.2-29.8,27.3-53.6,57.7-53.6h14.5h14.5h57.8V106.3z"/>
    </symbol>

    <symbol id="logo-hewlett" viewBox="0 0 599.91 127.9">
        <path d="M53.3,127.9h3.9v-25h34V99H53.3Zm-9.7,0h3.9V75.1h5.8V93.3H91.1V89.4h-34V75.1h34V71.2h-34V65.4h34V61.5H43.6Zm3.8-62.4h5.8v5.8H47.4Zm65-14.8,2.6-9.9,2.6,9.9h2.7L125,34.1h-3.2L119,44.8l-2.7-10.7H114l-2.8,10.7-2.7-10.7h-3.2L110,50.7Zm24.3-16.6h-3.1V50.7h3.1Zm17.9,13.7h-5.5V34.1H146V50.7h8.6Zm16.7,0h-5.5V34.1h-3.1V50.7h8.6Zm11.2-13.7h-3.1V50.7h3.1ZM195.1,46h5.1l1.8,4.7h3.3l-6.2-16.3-.1-.3h-2.6L190,50.7h3.3l1.8-4.7Zm2.6-7.3,1.5,4.4h-3Zm24.2,6.8-4.5-11.4h-4.3V50.7h3.1V39l4.7,11.7h1.9l4.7-11.8V50.7h3.1V34.1h-4.3l-4.4,11.4Zm54.5-1.7h5.7v-3h-5.7V36.9h5.7V34h-8.8V50.6h3.1V43.8Zm17.9-9.7h-3.1V50.7h8.6v-3h-5.5Zm30,8.3a8.6,8.6,0,1,0-8.6,8.6A8.6,8.6,0,0,0,324.3,42.4Zm-14.1,0a5.5,5.5,0,1,1,5.5,5.6,5.5,5.5,0,0,1-5.5-5.6Zm33.6,8.3-4.5-6a4.93,4.93,0,0,0,4.2-5.2,5.43,5.43,0,0,0-1.6-4c-1-1-2.4-1.4-4.5-1.4h-5.3V50.7h3.1V44.1l4.7,6.5h3.9Zm-8.6-8.5V37h2c2.3,0,3.1,1.3,3.1,2.6,0,1.8-1.3,2.7-4,2.7h-1.1ZM356.7,46h5.1l1.8,4.7h3.3l-6.2-16.3-.1-.3H358l-6.3,16.6H355Zm2.6-7.3,1.5,4.4h-3ZM134.7,80.5H114.3V62.6h-4.7v40.5h4.7V84.8h20.4v18.3h4.7V62.6h-4.7Zm25.1-8a16.31,16.31,0,0,0-15.9,16.1c0,8.8,7.1,15.3,15.9,15.3,6.8,0,12.8-3.6,15-10l.1-.4h-4.7l-.1.2a11,11,0,0,1-10.5,6.9c-5.7,0-10.9-4.8-11.3-10.3h27.3V90a16.18,16.18,0,0,0-2.3-9.6,15.35,15.35,0,0,0-13.5-7.9ZM148.5,86.2a11.41,11.41,0,0,1,11.3-9.6,11.61,11.61,0,0,1,11.4,9.6Zm58,11.7-6.8-21h-3.8l-6.7,21L180,73.4l-.1-.2h-4.7l11.6,29.7.1.2h4.8l6.1-18.7,6.2,18.7h4.8l11.7-29.9h-4.6Zm17.4,5.2h4.4V62.6h-4.4Zm24.3-30.6a16.31,16.31,0,0,0-15.9,16.1c0,8.8,7.1,15.3,15.9,15.3,6.8,0,12.8-3.6,15-10l.1-.4h-4.7v.2a11,11,0,0,1-10.5,6.9c-5.7,0-10.9-4.8-11.3-10.3h27.4V90a16.18,16.18,0,0,0-2.3-9.6,15.83,15.83,0,0,0-13.7-7.9ZM236.9,86.2a11.41,11.41,0,0,1,11.3-9.6,11.61,11.61,0,0,1,11.4,9.6Zm54.7-23.5h-4.4V73.3h-12V62.7h-4.4V73.3h-6.3v4.1h6.3v25.8h4.4V77.3h12v25.8h4.4V77.3h7.2V73.2h-7.2Zm236.5,40.4h4.4V72.5h-4.4ZM516.5,61.9h-4.4V72.5h-6.3v4.1h6.3v26.6h4.4V76.6h7.2V72.5h-7.2Zm79.6,13.6c-2.6-2.6-5.6-3.7-9.7-3.7a11.18,11.18,0,0,0-9,4.1V72.6H573v30.6h4.4V86.3c-.1-3.4.9-6.3,2.7-8a9.19,9.19,0,0,1,12.6,0c1.8,1.7,2.8,4.6,2.8,8v16.8h4.4V86.3C600,81.7,598.6,77.9,596.1,75.5Zm-68-6.1h4.4V61.9h-4.4Zm-30.4,7.9c-3.6-5-9.2-5.5-11.5-5.5a16.06,16.06,0,1,0-1.13,32.1h1.13a14.4,14.4,0,0,0,11.5-5.5v4.8h4.4V72.6h-4.4ZM486.2,99.8a11.7,11.7,0,0,1-12-11.39V87.9c0-7.9,6-12.1,12-12.1a11.85,11.85,0,0,1,11.7,12h0a11.66,11.66,0,0,1-11.31,12Zm67-28a16,16,0,1,0,16,16,16.06,16.06,0,0,0-16-16Zm.1,28A11.72,11.72,0,0,1,541.7,88a11.85,11.85,0,0,1,11.57-12.1h0a11.71,11.71,0,0,1,11.6,11.8A11.9,11.9,0,0,1,553.3,99.8Zm-201.5-28a16,16,0,1,0,16.05,16A16.06,16.06,0,0,0,351.8,71.8Zm.1,28A11.72,11.72,0,0,1,340.3,88a11.85,11.85,0,0,1,11.57-12.1h0a11.71,11.71,0,0,1,11.6,11.8,11.85,11.85,0,0,1-11.57,12.1ZM312,103.1h4.7V84.5h15.9V80.3H316.7V66.2h16.5V61.9H312.1l-.1,41.2ZM462.1,77.2c-3.9-5-9.8-5.4-11.5-5.4a16.06,16.06,0,1,0-1.13,32.1h1.13a14.68,14.68,0,0,0,11.5-5.5v4.8h4.4V62h-4.4ZM450.7,99.8a11.7,11.7,0,0,1-12-11.39V87.9c0-7.9,6-12.1,12-12.1a11.85,11.85,0,0,1,11.7,12h0A11.73,11.73,0,0,1,451,99.8ZM393.9,88.7c0,5.3-1.4,7.2-3.1,8.8a8.14,8.14,0,0,1-6.1,2.3,9,9,0,0,1-6.8-2.7c-1.4-1.8-2.1-4.3-2.1-7.7V72.6h-4.4V89.5c0,4.3.9,7.7,2.7,9.9,1.4,1.7,4.6,4.6,10.6,4.6,5.6,0,8.3-3,9.4-4.7v4h4.2V72.7h-4.4v16Zm23.3-16.9a11.18,11.18,0,0,0-9,4.1V72.6h-4.4v30.6h4.4V86.3c-.1-3.4.9-6.3,2.7-8a9.19,9.19,0,0,1,12.6,0c1.8,1.7,2.8,4.6,2.8,8v16.8h4.4V86.3c0-4.7-1.3-8.3-3.8-10.8A12.89,12.89,0,0,0,417.2,71.8Z" transform="translate(0 0)"/><path d="M0,71.2H3.9V.1H0ZM53.3,31H47.5V0H43.7V31H13.3V0H9.4V34.8H43.6v5.8H9.6V71.1h3.9V44.4H43.7V61.5h3.9v-17h5.8V61.6h3.9V.1H53.4V31Zm0,9.7H47.5V34.9h5.8Zm199.9.2V36.6h-3v4.3h-4.3V44h4.3v4.3h3.1V44h4.3V40.9Z" transform="translate(0 0)"/>
    </symbol>

    <symbol id="logo-ocadu" viewBox="0 0 159.5 132.9">
        <path d="M4.1 7.9c-.6 0-1.1-.1-1.6-.3-.5-.2-1-.5-1.3-.8C.8 6.4.5 6 .3 5.5.1 5 0 4.5 0 4c0-1.1.4-2.1 1.2-2.8.4-.4.8-.7 1.3-.9 1.1-.4 2.2-.4 3.3 0 .5.2.9.5 1.3.8.4.4.7.8.9 1.3.2.5.3 1 .3 1.5C8.2 5 7.8 6 7 6.8c-.3.3-.8.6-1.3.8-.5.2-1 .3-1.6.3zm0-1.9c.3 0 .6 0 .8-.1.2-.1.4-.3.6-.4.2-.3.3-.5.4-.7.1-.3.2-.5.2-.8 0-.3 0-.5-.1-.8-.2-.3-.3-.5-.5-.7-.2-.2-.4-.3-.6-.4-.3-.1-.5-.2-.8-.2-.3 0-.5.1-.8.2-.5.2-.8.6-1 1.1-.1.2-.1.5-.1.7 0 .3 0 .5.1.8.1.3.2.5.4.7.2.2.4.3.6.5.3.1.5.1.8.1zM13.4 7.9c-.5 0-1-.1-1.5-.3-.5-.2-.9-.5-1.2-.8-.8-.7-1.2-1.7-1.2-2.8 0-1.1.4-2.1 1.1-2.8.4-.4.8-.7 1.3-.8.5-.3 1.1-.4 1.6-.4.4 0 .7 0 1.1.1l.9.3c.3.1.5.3.7.5l.6.6-1.6 1.2c-.2-.3-.4-.5-.7-.7-.3-.2-.6-.2-.9-.2-.3 0-.5.1-.7.2-.2.1-.4.2-.6.4-.2.2-.3.4-.4.6-.1.3-.1.5-.1.8 0 .3 0 .5.1.8 0 .4.1.6.3.8.2.2.4.3.6.4.2.2.5.2.7.2.2 0 .4 0 .5-.1.2 0 .3-.1.4-.2.1-.1.3-.2.4-.3l.4-.4 1.6 1.1c-.2.2-.4.5-.6.7-.2.2-.5.4-.7.5-.3.2-.6.3-.9.4-.4.2-.8.2-1.2.2zM20.8.1h2l3.3 7.7h-2.3l-.6-1.4h-2.9l-.5 1.4h-2.2L20.8.1zm1.8 4.7l-.9-2.2-.9 2.2h1.8zM27.3.2h2.9c.6 0 1.2.1 1.8.3.5.2 1 .4 1.4.8.4.3.7.7.8 1.2.2.5.3 1 .3 1.5s-.1 1-.3 1.5c-.2.5-.5.9-.9 1.2-.3.4-.8.6-1.3.8-.6.2-1.2.3-1.8.3h-2.9V.2zm2.9 5.7c.6 0 1.1-.2 1.5-.5.5-.4.7-.9.6-1.4 0-.5-.2-1.1-.6-1.4-.4-.4-1-.5-1.5-.5h-.9V6l.9-.1zM3.7 20c-.5 0-1-.1-1.5-.2-.4-.1-.8-.3-1.1-.6-.3-.3-.6-.7-.7-1.1-.2-.5-.3-1-.2-1.6v-4.3h2.2v4.2c0 .4.1.9.4 1.2.3.3.6.4 1 .4s.7-.1 1-.4c.3-.3.4-.8.4-1.2v-4.3h2.2v4.2c-.1.7-.2 1.2-.4 1.7-.3.8-1 1.5-1.8 1.7-.5.2-1 .3-1.5.3zM9.2 12.2h2l3.1 4v-4h2.1v7.6h-1.9l-3.3-4.2v4.2h-2v-7.6zM18.4 12.2h2.1v7.6h-2.1v-7.6zM21.8 12.2h2.4l1.7 4.8 1.7-4.8h2.3l-3.1 7.7h-2l-3-7.7zM31.1 12.2h6.1V14h-4v1.2h3.7v1.7h-3.7V18h4.1v1.8h-6.2v-7.6zM39.1 12.2h3.6c.5 0 1 .1 1.5.2.4.1.7.3 1 .6.5.5.7 1.1.7 1.8 0 .5-.1 1-.4 1.5-.3.4-.7.7-1.1.9l1.8 2.7h-2.4l-1.5-2.3h-.9v2.3h-2.1l-.2-7.7zm3.5 3.7c.3 0 .6-.1.8-.2.2-.2.3-.4.3-.7 0-.3-.1-.5-.3-.7-.2-.2-.5-.2-.8-.2h-1.4v1.8h1.4zM50.5 20c-.7 0-1.3-.1-1.9-.3-.6-.2-1.2-.5-1.6-1l1.2-1.4c.7.6 1.6.9 2.5.9.2 0 .4 0 .6-.1.1-.1.2-.2.2-.4 0-.1 0-.1-.1-.2l-.2-.2c-.1-.1-.3-.1-.4-.2-.2-.1-.4-.1-.6-.2-.4-.1-.8-.2-1.1-.3-.3-.1-.6-.2-.9-.4-.6-.4-.9-1-.8-1.6 0-.3.1-.7.2-1 .1-.3.3-.6.6-.8.3-.2.6-.4.9-.5.4-.1.8-.2 1.2-.2.6 0 1.2.1 1.8.3.5.2 1 .4 1.4.8l-1.1 1.5c-.3-.2-.7-.4-1.1-.6-.3-.1-.7-.2-1.1-.2-.2 0-.4 0-.6.1-.1.1-.2.2-.2.3 0 .1 0 .2.1.2l.2.2c.1.1.3.1.4.2.2.1.4.1.6.2l1.2.3c.3.1.6.3.9.5.2.2.4.4.6.7.1.3.2.6.2.9 0 .4-.1.7-.2 1-.1.3-.4.6-.6.8-.3.2-.6.4-1 .5-.5.1-.9.2-1.3.2zM55.2 12.2h2.1v7.6h-2.1v-7.6zM61 14.1h-2.3v-1.9h6.7v1.9h-2.3v5.8H61v-5.8zM69.2 17l-2.9-4.8h2.4l1.6 2.8 1.6-2.8h2.4l-3 4.8v2.9h-2.1V17z" transform="translate(74.132 12.228)"/><path class="st0" d="M159.5 0H62.1v31.3H0v66.1h62.1v35.5h39.5V97.4h57.8V0zM62.1 93.3H4v-58h58.1v58zm35.6 35.5H66.1V97.4h31.6v31.4zm57.7-35.5H66.1V4.1h89.3v89.2z"/><path class="st0" d="M28.6 54.9c.4-1 .6-2.1.6-3.2s-.2-2.2-.6-3.2c-.4-1-1-1.8-1.8-2.6-.8-.7-1.7-1.3-2.7-1.7-2.2-.8-4.6-.8-6.7 0-1 .4-1.9 1-2.7 1.7-1.6 1.5-2.4 3.6-2.4 5.8 0 1.1.2 2.2.6 3.1.4 1 1 1.8 1.8 2.6.8.7 1.7 1.3 2.7 1.7 2.2.9 4.6.9 6.7 0 1-.4 1.9-1 2.7-1.7.8-.7 1.4-1.6 1.8-2.5zm-3.5-3.2c0 .6-.1 1.1-.3 1.7-.2.5-.5 1-.8 1.4-.4.4-.8.7-1.3 1-.5.2-1.1.4-1.7.4-.6 0-1.2-.1-1.7-.4-.5-.2-1-.6-1.3-1-.4-.4-.7-.9-.9-1.4-.2-.5-.3-1.1-.3-1.7 0-.6.1-1.1.3-1.7.4-1 1.2-1.9 2.2-2.4.5-.2 1.1-.4 1.7-.4.6 0 1.2.1 1.7.4 1 .5 1.8 1.3 2.2 2.4.1.6.2 1.1.2 1.7zM51.6 57.7c.4-.4.8-.8 1.1-1.3l-3.1-2.2c-.2.2-.4.5-.7.7-.3.2-.5.4-.8.6-.3.2-.6.3-1 .4-.4.1-.8.1-1.2.1-.5 0-1.1-.1-1.6-.3-.5-.2-.9-.5-1.2-.9-.4-.4-.6-.9-.8-1.4-.2-.6-.3-1.1-.3-1.7 0-.6.1-1.1.3-1.7.2-.5.5-1 .8-1.4.3-.4.8-.7 1.2-.9.5-.2 1-.3 1.6-.3.7 0 1.4.2 2 .5.6.3 1 .8 1.4 1.3l3.1-2.4c-.3-.4-.7-.8-1.1-1.2-.9-.8-2.1-1.4-3.3-1.7-.7-.2-1.5-.2-2.2-.2-1.1 0-2.3.2-3.3.6-1 .4-1.9 1-2.6 1.7-1.5 1.5-2.4 3.6-2.3 5.8 0 2.2.8 4.3 2.4 5.8.7.7 1.6 1.3 2.6 1.7 1 .4 2.1.6 3.2.6.8 0 1.6-.1 2.3-.3.7-.2 1.3-.4 1.9-.7.7-.4 1.2-.7 1.6-1.2zM52.9 79.7c.4-1 .6-2.1.6-3.1 0-1.1-.2-2.1-.6-3.1-.4-.9-1-1.8-1.7-2.4-.8-.7-1.7-1.3-2.8-1.6-1.2-.4-2.5-.6-3.8-.6h-6v15.6h5.9c1.3 0 2.6-.2 3.8-.6 1-.4 2-.9 2.8-1.6.8-.8 1.4-1.7 1.8-2.6zm-3.6-3.1c.1 1.2-.4 2.3-1.3 3.1-.9.8-2.1 1.1-3.3 1.1h-1.9v-8.4h1.9c1.2-.1 2.4.3 3.3 1.1.9.8 1.4 1.9 1.3 3.1zM88.2 117.2c.4-1 .5-2 .5-3.1v-8.2h-4v8.3c.1.9-.2 1.8-.8 2.4-.6.5-1.3.8-2.1.8s-1.5-.3-2.1-.8c-.6-.7-.9-1.6-.8-2.5v-8.2h-4v8.3c0 1 .1 2 .5 3 .3.8.7 1.5 1.3 2.1.6.6 1.3 1 2.1 1.2 1.9.5 3.9.5 5.7 0 1.8-.4 3.2-1.7 3.7-3.3zM24.1 81.9l1 2.5h4.4l-6.7-15.7h-4.1L12 84.4h4.3l1-2.5h6.8zm-3.3-8.4l2.1 5.3h-4.2l2.1-5.3z"/>
    </symbol>

    <symbol id="cc-logo" viewBox="5.5 -3.5 64 64">
        <path d="M37.441-3.5c8.951,0,16.572,3.125,22.857,9.372c3.008,3.009,5.295,6.448,6.857,10.314
            c1.561,3.867,2.344,7.971,2.344,12.314c0,4.381-0.773,8.486-2.314,12.313c-1.543,3.828-3.82,7.21-6.828,10.143
            c-3.123,3.085-6.666,5.448-10.629,7.086c-3.961,1.638-8.057,2.457-12.285,2.457s-8.276-0.808-12.143-2.429
            c-3.866-1.618-7.333-3.961-10.4-7.027c-3.067-3.066-5.4-6.524-7-10.372S5.5,32.767,5.5,28.5c0-4.229,0.809-8.295,2.428-12.2
            c1.619-3.905,3.972-7.4,7.057-10.486C21.08-0.394,28.565-3.5,37.441-3.5z M37.557,2.272c-7.314,0-13.467,2.553-18.458,7.657
            c-2.515,2.553-4.448,5.419-5.8,8.6c-1.354,3.181-2.029,6.505-2.029,9.972c0,3.429,0.675,6.734,2.029,9.913
            c1.353,3.183,3.285,6.021,5.8,8.516c2.514,2.496,5.351,4.399,8.515,5.715c3.161,1.314,6.476,1.971,9.943,1.971
            c3.428,0,6.75-0.665,9.973-1.999c3.219-1.335,6.121-3.257,8.713-5.771c4.99-4.876,7.484-10.99,7.484-18.344
            c0-3.543-0.648-6.895-1.943-10.057c-1.293-3.162-3.18-5.98-5.654-8.458C50.984,4.844,44.795,2.272,37.557,2.272z M37.156,23.187
            l-4.287,2.229c-0.458-0.951-1.019-1.619-1.685-2c-0.667-0.38-1.286-0.571-1.858-0.571c-2.856,0-4.286,1.885-4.286,5.657
            c0,1.714,0.362,3.084,1.085,4.113c0.724,1.029,1.791,1.544,3.201,1.544c1.867,0,3.181-0.915,3.944-2.743l3.942,2
            c-0.838,1.563-2,2.791-3.486,3.686c-1.484,0.896-3.123,1.343-4.914,1.343c-2.857,0-5.163-0.875-6.915-2.629
            c-1.752-1.752-2.628-4.19-2.628-7.313c0-3.048,0.886-5.466,2.657-7.257c1.771-1.79,4.009-2.686,6.715-2.686
            C32.604,18.558,35.441,20.101,37.156,23.187z M55.613,23.187l-4.229,2.229c-0.457-0.951-1.02-1.619-1.686-2
            c-0.668-0.38-1.307-0.571-1.914-0.571c-2.857,0-4.287,1.885-4.287,5.657c0,1.714,0.363,3.084,1.086,4.113
            c0.723,1.029,1.789,1.544,3.201,1.544c1.865,0,3.18-0.915,3.941-2.743l4,2c-0.875,1.563-2.057,2.791-3.541,3.686
            c-1.486,0.896-3.105,1.343-4.857,1.343c-2.896,0-5.209-0.875-6.941-2.629c-1.736-1.752-2.602-4.19-2.602-7.313
            c0-3.048,0.885-5.466,2.658-7.257c1.77-1.79,4.008-2.686,6.713-2.686C51.117,18.558,53.938,20.101,55.613,23.187z"/>
    </symbol>

    <symbol id="cc-by" viewBox="5.5 -3.5 64 64">
        <path d="M37.443-3.5c8.988,0,16.57,3.085,22.742,9.257C66.393,11.967,69.5,19.548,69.5,28.5c0,8.991-3.049,16.476-9.145,22.456
            C53.879,57.319,46.242,60.5,37.443,60.5c-8.649,0-16.153-3.144-22.514-9.43C8.644,44.784,5.5,37.262,5.5,28.5
            c0-8.761,3.144-16.342,9.429-22.742C21.101-0.415,28.604-3.5,37.443-3.5z M37.557,2.272c-7.276,0-13.428,2.553-18.457,7.657
            c-5.22,5.334-7.829,11.525-7.829,18.572c0,7.086,2.59,13.22,7.77,18.398c5.181,5.182,11.352,7.771,18.514,7.771
            c7.123,0,13.334-2.607,18.629-7.828c5.029-4.838,7.543-10.952,7.543-18.343c0-7.276-2.553-13.465-7.656-18.571
            C50.967,4.824,44.795,2.272,37.557,2.272z M46.129,20.557v13.085h-3.656v15.542h-9.944V33.643h-3.656V20.557
            c0-0.572,0.2-1.057,0.599-1.457c0.401-0.399,0.887-0.6,1.457-0.6h13.144c0.533,0,1.01,0.2,1.428,0.6
            C45.918,19.5,46.129,19.986,46.129,20.557z M33.042,12.329c0-3.008,1.485-4.514,4.458-4.514s4.457,1.504,4.457,4.514
            c0,2.971-1.486,4.457-4.457,4.457S33.042,15.3,33.042,12.329z"/>
    </symbol>
</svg>
