<svg xmlns="http://www.w3.org/2000/svg">

    <!--
    Menu Icon Source: Pinecone, Platform Coop Tookit.
    https://github.com/platform-coop-toolkit/pinecone/tree/dev/src/assets/images
    BSD 3-Clause License
    Copyright (c) 2019, OCAD University. All rights reserved.
    -->
    <symbol id="icon-menu" viewBox="0 0 20 20">
        <path d="m3 5h14a1 1 0 0 0 0-2h-14a1 1 0 0 0 0 2z"/>
        <path d="m17 9h-14a1 1 0 0 0 0 2h14a1 1 0 0 0 0-2z"/>
        <path d="m17 15h-14a1 1 0 0 0 0 2h14a1 1 0 0 0 0-2z"/>
    </symbol>

    <symbol id="fleur" viewBox="0 0 147.16 315.28">
      <g>
        <path class="fleur-small-circle" d="M73.13,212.78A17,17,0,1,1,84.91,208,16.81,16.81,0,0,1,73.13,212.78Z"/>
        <path class="fleur-small-circle-outline" d="M73.13,177.91v2h0A15.93,15.93,0,1,1,62,184.4a15.82,15.82,0,0,1,11.09-4.49v-2m0,0A17.93,17.93,0,1,0,86,183.36a17.88,17.88,0,0,0-12.88-5.45Z"/>
      </g>
      <g>
        <path class="fleur-small-circle" d="M89,296.84a14.87,14.87,0,1,1,10.35-4.19A14.78,14.78,0,0,1,89,296.84Z"/>
        <path class="fleur-small-circle-outline" d="M89,266.09v2h0A13.88,13.88,0,1,1,79.35,272,13.78,13.78,0,0,1,89,268.09v-2m0,0a15.88,15.88,0,1,0,11.4,4.83A15.8,15.8,0,0,0,89,266.09Z"/>
      </g>
      <g>
        <path class="fleur-large-circle" d="M57.27,113.53A56.26,56.26,0,0,1,18.11,16.86,56.26,56.26,0,0,1,96.42,97.67,56,56,0,0,1,57.27,113.53Z"/>
        <path class="fleur-large-circle-outline" d="M57.26,0V2A55.26,55.26,0,0,1,95.72,97,55.26,55.26,0,1,1,18.81,17.58,54.94,54.94,0,0,1,57.26,2V0m0,0A57.26,57.26,0,1,0,98.39,17.42,57.06,57.06,0,0,0,57.26,0Z"/>
      </g>
      <g>
        <path class="fleur-plant" d="M69.11,68.52l-.25,0c-.3,0-.33,0-.07,0l.17,0c-.33-.09-.3-.06.08.09a2.11,2.11,0,0,1-.4-.23c.37.45.26.13.09,0-.61-.41.33.24,0,0-.11-.1-.34-.7-.08,0-.06-.15-.11-.31-.16-.47s-.07-.86-.06-.18c0-.16,0-.34,0-.5,0-.79.09.42,0,0,0-.1.23-.79,0-.06a1.56,1.56,0,0,1,.25-.42c-.67.51.1.12,0,.07l-.18.15c.3-.15.35-.19.16-.11-.41.06.49-.12.46-.11-.54.11.13,0,.33,0-.57,0,.4.12.62.19-.59-.21.93.59.47.25.15.11.84.84.56.48a5.27,5.27,0,0,1,.4.64c.09.19.09.18,0,0a3,3,0,0,1,.12.43,3.66,3.66,0,0,1-.25,1.9,5.37,5.37,0,0,1-1.69,2.14,5.51,5.51,0,0,1-2,1,4.56,4.56,0,0,1-1.2.2,8.87,8.87,0,0,1-1.71-.06c.4.06-.16-.05-.19-.06-.28-.06-.56-.13-.83-.21a4.85,4.85,0,0,1-1-.39,6.56,6.56,0,0,1-2.21-1.67,6.43,6.43,0,0,1-.56-.8c-.11-.17-.19-.35-.29-.52-.45-.79.08.28-.1-.21a8.34,8.34,0,0,1-.37-1.27c0-.19-.08-.38-.11-.57.09.63,0-.22,0-.35a12.13,12.13,0,0,1,0-1.48c0,.57.08-.46.13-.66a12.59,12.59,0,0,1,.42-1.45c.07-.19.14-.38.22-.57-.22.5.19-.36.2-.37a9.17,9.17,0,0,1,7.87-5.36,14.78,14.78,0,0,1,11,4.55,16.87,16.87,0,0,1,4.92,11.37,13.6,13.6,0,0,1-1,5.82,12.27,12.27,0,0,1-3.66,4.65c-3.35,2.53-7.69,3.57-11.67,3.94a35.19,35.19,0,0,1-7,.06,20.78,20.78,0,0,1-2.65-.54,15.39,15.39,0,0,1-2.77-1,17.38,17.38,0,0,1-8.18-8.25,24.12,24.12,0,0,1-1.75-5.72A22.32,22.32,0,0,1,44.94,66c.58-4,3-8.08,5.37-11.47a13.61,13.61,0,0,1,1.42-1.78,26.62,26.62,0,0,1,2.2-2.18,34.21,34.21,0,0,1,5.28-3.68c4.32-2.56,9.07-4.8,14.21-4.41,3.72.29,7.5,2.39,10.36,5.12C90.39,53.87,94,63.44,94.16,72.67a25.56,25.56,0,0,1-3.53,13.87A21,21,0,0,1,87,91.19c-.3.29-.6.56-.91.83s-.38.33-.58.48c-.44.36.56-.4-.21.16a24.79,24.79,0,0,1-2.38,1.54c-.78.45-1.59.85-2.42,1.23s-1.26.54-2.32.93c-2,.74-4.13,1.37-6.21,2a44.83,44.83,0,0,1-13.46,2.28c-5,0-10.15-.58-14.48-3.09a18.15,18.15,0,0,1-8.25-10.43,56,56,0,0,1-1.88-7.77c-.44-2.37-1-5.14-1.3-7.3a28.4,28.4,0,0,1,1.11-12.66c2.61-8.24,9-15,16.33-19.78,8.6-5.59,18.83-9.68,29.09-7.16a36.17,36.17,0,0,1,21,14.88,43,43,0,0,1,5.56,13c1.4,5,2.36,10.23,1.63,15.41-.69,4.92-3.13,9.15-5.57,13.41-2.3,4-4.79,7.74-8.77,10.17-8.16,5-17.25,9.71-27.09,8.87l-1-.1c-.17,0-.33,0-.5-.06.7.09.11,0-.06,0-.84-.13-1.67-.27-2.49-.45a42.22,42.22,0,0,1-5.28-1.48q-.64-.23-1.29-.48l-.71-.28c.12,0,.44.19-.13-.06-1-.42-1.95-.89-2.89-1.39a40.59,40.59,0,0,1-5.27-3.32,38.41,38.41,0,0,1-8.7-9.4A3.15,3.15,0,0,0,33.32,90a3.11,3.11,0,0,0-1.1,4.21,44.66,44.66,0,0,0,24.09,18.23,42.63,42.63,0,0,0,11.37,2c6.07.18,11.91-1.55,17.41-4,2.85-1.27,5.59-2.75,8.3-4.29a33.66,33.66,0,0,0,7.2-5.1c3.92-3.87,6.56-8.92,9.15-13.72a32.55,32.55,0,0,0,3.79-18.16,60.25,60.25,0,0,0-4.38-17.8A42.6,42.6,0,0,0,87,28.67a35.36,35.36,0,0,0-16.68-3.11,46.37,46.37,0,0,0-18.1,5.59c-9.67,5.1-18.66,12.68-23.07,22.91a35.21,35.21,0,0,0-2.95,15.38,68.89,68.89,0,0,0,1.29,9,83.18,83.18,0,0,0,1.84,8.68c1.71,5.95,4.77,11.06,9.89,14.64s11.26,4.66,17.41,4.95a50,50,0,0,0,16.6-2.35c4.5-1.32,9.11-2.69,13.17-5.1,9.71-5.74,14.51-17.06,13.87-28.08s-5.26-22.7-14-29.65a22.49,22.49,0,0,0-15.2-5.3c-6.27.37-12.16,3.32-17.32,6.75A33.08,33.08,0,0,0,43.66,53.4a40.51,40.51,0,0,0-3.8,7.52,24.33,24.33,0,0,0-1.25,8.55c.27,10.73,6.42,21,17,24.11,5.19,1.55,11,1.22,16.22.23s10.33-3.21,13.73-7.3c7.8-9.39,4.27-23.59-5-30.56a19.74,19.74,0,0,0-15.51-3.84,15.53,15.53,0,0,0-11,9.27c-2,4.7-1.73,10.09,1.59,14.12A13.3,13.3,0,0,0,70.5,79.23c5.42-2.2,9.52-9,6-14.54-2.92-4.51-10.77-6-13.51-.44-2.08,4.25.83,11,6.16,10.43a3.16,3.16,0,0,0,3.08-3.08,3.11,3.11,0,0,0-3.08-3.08Z"/>
        <path class="fleur-plant" d="M69.85,110A26.93,26.93,0,0,0,67,128c1,6,3.74,11.73,6.74,17,3.11,5.46,6.73,10.61,10.23,15.83,1.57,2.35,3.12,4.7,4.55,7.14.68,1.15,1.33,2.31,1.93,3.5.24.49.47,1,.7,1.48l.18.41c0-.08-.25-.63,0-.12.1.27.22.54.32.81a21.28,21.28,0,0,1,.88,3c0,.21.06.44.11.65-.23-.87,0-.2,0,.09.08.93.09,1.87.08,2.8A45.33,45.33,0,0,1,91,192.36c-2.16,8-5.87,15.43-9.5,22.82-3.79,7.7-7.61,15.47-10,23.74a81.43,81.43,0,0,0-3,24.11A84.06,84.06,0,0,0,83.3,309c1.23,1.76,2.54,3.47,3.9,5.13a3.1,3.1,0,0,0,4.35,0,3.15,3.15,0,0,0,0-4.36,78,78,0,0,1-15.08-65.4c1.8-7.88,5-15.24,8.56-22.49,3.71-7.63,7.66-15.2,10.44-23.24a61.51,61.51,0,0,0,2.9-12,35.2,35.2,0,0,0,.09-10.89c-.86-4.75-3.55-9.21-6.09-13.25-3.2-5.1-6.73-10-10-15.06-1.68-2.62-3.29-5.29-4.74-8-.7-1.32-1.35-2.66-2-4-.08-.18-.38-.86-.31-.71s-.22-.55-.28-.71c-.29-.71-.55-1.43-.79-2.16a35.59,35.59,0,0,1-1.16-4.19c-.13-.62-.24-1.25-.33-1.88s0,.49,0,0c0-.14,0-.27,0-.41,0-.4-.08-.8-.1-1.21a24.91,24.91,0,0,1,.12-4.14c-.07.61,0-.16.06-.38l.18-.92a21.17,21.17,0,0,1,.58-2.11c.1-.31.21-.61.32-.92.24-.67,0,0,.17-.43q.48-1.06,1-2.07c2-3.46-3.37-6.57-5.32-3.11Z"/>
        <path class="fleur-plant" d="M90.21,200.37c1.91-14.78-6.36-30.28-19.57-37.1a3.13,3.13,0,0,0-4.52,1.84c-2.94,7.3-1,15.85,3.2,22.27,4.34,6.71,10.77,11.56,17.07,16.29,1.34,1,3.45.21,4.22-1.11a3.15,3.15,0,0,0-1.11-4.21c-5.31-4-10.9-8.14-14.64-13.74-3.54-5.3-5.23-11.84-2.8-17.87l-4.53,1.84a31.5,31.5,0,0,1,16.52,31.79c-.21,1.65,1.57,3.08,3.08,3.08a3.15,3.15,0,0,0,3.08-3.08Z"/>
        <path class="fleur-plant" d="M79.49,284.31A31.5,31.5,0,0,1,96,252.52l-4.53-1.84c2.43,6,.74,12.57-2.8,17.87-3.74,5.6-9.33,9.75-14.64,13.74a3.17,3.17,0,0,0-1.11,4.21c.77,1.31,2.88,2.11,4.22,1.11,6.3-4.73,12.73-9.58,17.07-16.29,4.16-6.42,6.14-15,3.2-22.27a3.13,3.13,0,0,0-4.52-1.84c-13.21,6.82-21.48,22.32-19.57,37.1a3.18,3.18,0,0,0,3.08,3.08c1.5,0,3.29-1.42,3.08-3.08Z"/>
        <path class="fleur-plant" d="M126.59,134.21H116.31a20.64,20.64,0,0,0-20.57,20.57v30.85h30.85a20.62,20.62,0,0,0,20.57-20.56V134.21Zm10.29,22.63V163a12.38,12.38,0,0,1-12.34,12.34H106v-6.94h0a2.58,2.58,0,0,1,2.52-2.06l8.69-1,6.53-8.44-15.22,1.2a2.56,2.56,0,0,1-2.53-2.19,12.37,12.37,0,0,1,12.3-11.43h18.51Z"/>
        <path class="fleur-plant" d="M20.12,221.7v30.85a20.64,20.64,0,0,0,20.57,20.57H71.54V242.26A20.62,20.62,0,0,0,51,221.7H20.12ZM30.41,232H48.92a12.37,12.37,0,0,1,12.3,11.43,2.57,2.57,0,0,1-2.53,2.2L43.46,244.4,50,252.84l8.7,1a2.58,2.58,0,0,1,2.52,2.06h0v6.94H42.75a12.37,12.37,0,0,1-12.34-12.34V232Z"/>
      </g>
  </symbol>


    <!-- Logos  -->

    <symbol id="logo-idrc" viewBox="0 0 61.387 77.161">
        <path d="M21.701 12.809c6.365 10.428 14.345 23.502 19.237 34.619 2.625-3.069 6.783-7.631 10.449-11.338V10.161H20.086l1.615 2.648z"/>
        <path d="M42.243 50.534c1.541 3.866 2.62 7.419 3.018 10.443.454 3.457-.195 6.477-1.783 8.285-.965 1.102-2.21 1.684-3.598 1.684-1.236 0-2.506-.635-3.576-1.787-1.674-1.803-2.512-4.474-2.3-7.328.364-4.902 2.73-9.046 4.806-11.798-4.7-11.134-13.068-24.844-19.67-35.661-.885-1.45-1.746-2.86-2.565-4.211H1.387v65h50V40.393c-3.537 3.694-7.154 7.734-9.144 10.141z"/>
        <path d="M38.501 67.117c.568.612 1.097.829 1.378.829.514 0 .952-.217 1.344-.662.986-1.125 1.395-3.393 1.062-5.916-.307-2.34-1.064-5.046-2.152-7.997-1.489 2.304-2.887 5.306-3.138 8.682-.148 1.996.416 3.889 1.506 5.064z"/>
        <circle cx="56.887" cy="35.659" r="2.5"/>
        <path d="M19.387 4.16a3.004 3.004 0 0 1-3.001 3.001 3 3 0 1 1 3.001-3.001z"/>
    </symbol>

    <symbol id="logo-idrc-wordmark" viewBox="0 0 289 74">
        <path d="M73,14.18a2.47,2.47,0,0,1,.19-1,1.9,1.9,0,0,1,.52-.67,1.92,1.92,0,0,1,.78-.36,4.58,4.58,0,0,1,1.88,0,2,2,0,0,1,.77.36,1.77,1.77,0,0,1,.53.68,2.73,2.73,0,0,1,0,2,1.8,1.8,0,0,1-.53.69,2,2,0,0,1-.77.36,4,4,0,0,1-1.88,0,1.92,1.92,0,0,1-.78-.36,1.86,1.86,0,0,1-.52-.69A2.49,2.49,0,0,1,73,14.18Zm4.66,20.61H73.19V18.42h4.47Z"/><path d="M96,34.79H91.5V25.23a5.19,5.19,0,0,0-.5-2.66,1.86,1.86,0,0,0-1.71-.89,2.77,2.77,0,0,0-1.46.35,2.49,2.49,0,0,0-.93,1,5.48,5.48,0,0,0-.49,1.69A15,15,0,0,0,86.26,27v7.7H81.75V18.42h3.42l.6,2.09H86a4.23,4.23,0,0,1,.85-1.08A4.84,4.84,0,0,1,88,18.68a5.14,5.14,0,0,1,1.27-.43,7,7,0,0,1,3.56.2,4.26,4.26,0,0,1,1.69,1.08A4.69,4.69,0,0,1,95.6,21.4a8.32,8.32,0,0,1,.4,2.71Z"/><path d="M106.85,35.09a9.73,9.73,0,0,1-3.17-.49,6.17,6.17,0,0,1-2.42-1.5,6.51,6.51,0,0,1-1.53-2.61,11.65,11.65,0,0,1-.54-3.8,13.2,13.2,0,0,1,.55-4.09,6.71,6.71,0,0,1,1.55-2.6,5.88,5.88,0,0,1,2.42-1.42,11.11,11.11,0,0,1,3.14-.42,10.09,10.09,0,0,1,2.51.31,10.27,10.27,0,0,1,2.34.86l-1.29,3.4a15.42,15.42,0,0,0-1.86-.7,6.1,6.1,0,0,0-1.7-.27A2.5,2.5,0,0,0,104.5,23a7.43,7.43,0,0,0-.74,3.71,7,7,0,0,0,.74,3.63,2.49,2.49,0,0,0,2.3,1.18,7.55,7.55,0,0,0,2.31-.33,16.17,16.17,0,0,0,2.12-.85V34l-1,.47a9,9,0,0,1-1,.33,8,8,0,0,1-1.09.2Q107.49,35.07,106.85,35.09Z"/><path d="M119,34.79h-4.47V12H119Z"/><path d="M133.81,34.79l-.6-2.09H133a4.49,4.49,0,0,1-.87,1.07,4.58,4.58,0,0,1-1.11.74,5.62,5.62,0,0,1-1.27.44,7.1,7.1,0,0,1-1.38.14,6.47,6.47,0,0,1-2.18-.35,4.26,4.26,0,0,1-1.69-1.08,4.72,4.72,0,0,1-1.08-1.86,8.3,8.3,0,0,1-.38-2.71V18.42h4.46V28a5.2,5.2,0,0,0,.54,2.66,1.83,1.83,0,0,0,1.7.89,2.81,2.81,0,0,0,1.47-.36,2.42,2.42,0,0,0,.93-1,5.62,5.62,0,0,0,.49-1.7,14.94,14.94,0,0,0,.15-2.31v-7.7h4.46V34.79Z"/><path d="M152.5,29.93a5.18,5.18,0,0,1-.47,2.26,4.33,4.33,0,0,1-1.33,1.61,5.9,5.9,0,0,1-2.1,1,10.62,10.62,0,0,1-2.75.33q-.81,0-1.5-.06a11.26,11.26,0,0,1-1.3-.16,12.18,12.18,0,0,1-1.19-.3,8.13,8.13,0,0,1-1.16-.44V30.44A12.42,12.42,0,0,0,142,31a13.39,13.39,0,0,0,1.36.43,11.78,11.78,0,0,0,1.31.29,6.64,6.64,0,0,0,1.18.1,4.2,4.2,0,0,0,1-.11,2,2,0,0,0,.7-.31,1.19,1.19,0,0,0,.39-.47,1.4,1.4,0,0,0,.13-.57,1.28,1.28,0,0,0-.1-.55,1.37,1.37,0,0,0-.43-.52,7.85,7.85,0,0,0-1-.61c-.44-.23-1-.51-1.75-.84s-1.25-.64-1.85-1a5.11,5.11,0,0,1-1.29-1.07,3.88,3.88,0,0,1-.76-1.34,6,6,0,0,1-.25-1.79,4.46,4.46,0,0,1,.44-2,4,4,0,0,1,1.25-1.43,5.35,5.35,0,0,1,1.94-.85,10.15,10.15,0,0,1,2.52-.29,10.93,10.93,0,0,1,2.79.34,13.77,13.77,0,0,1,2.71,1L151,22.62a18.45,18.45,0,0,0-2.12-.86,6.18,6.18,0,0,0-2-.34,2.15,2.15,0,0,0-1.31.32,1.07,1.07,0,0,0-.4.88,1.15,1.15,0,0,0,.1.52,1.33,1.33,0,0,0,.41.47,5.94,5.94,0,0,0,.87.53c.37.19.85.42,1.45.69s1.32.61,1.87.9a6.51,6.51,0,0,1,1.44,1,3.87,3.87,0,0,1,.92,1.34A4.53,4.53,0,0,1,152.5,29.93Z"/><path d="M155.35,14.18a2.65,2.65,0,0,1,.19-1,1.9,1.9,0,0,1,.52-.67,2.06,2.06,0,0,1,.78-.36,4.32,4.32,0,0,1,.95-.1,4.2,4.2,0,0,1,.93.1,2,2,0,0,1,.77.36,1.82,1.82,0,0,1,.53.67,2.8,2.8,0,0,1,0,2.09,1.77,1.77,0,0,1-.53.68,2,2,0,0,1-.77.37,4.15,4.15,0,0,1-.93.11,4.33,4.33,0,0,1-.95-.11,1.88,1.88,0,0,1-.78-.37,1.82,1.82,0,0,1-.52-.68A2.73,2.73,0,0,1,155.35,14.18ZM160,34.79h-4.47V18.42H160Z"/><path d="M168,34.79l-5.78-16.37h4.67l2.71,9.33a17.48,17.48,0,0,1,.43,1.73,12.63,12.63,0,0,1,.23,1.62h.09a10.08,10.08,0,0,1,.23-1.65c.12-.58.26-1.15.43-1.7l2.69-9.33h4.69L172.6,34.79Z"/><path d="M187.21,35.09a9.9,9.9,0,0,1-3.24-.52,6.63,6.63,0,0,1-4.21-4.15,10.82,10.82,0,0,1-.59-3.7,12,12,0,0,1,.54-3.76,7.41,7.41,0,0,1,1.52-2.69,6.06,6.06,0,0,1,2.34-1.62,8.12,8.12,0,0,1,3-.54,8.41,8.41,0,0,1,2.94.49,6,6,0,0,1,2.26,1.4,6.52,6.52,0,0,1,1.41,2.34,9.47,9.47,0,0,1,.49,3.17v2.17h-10a5.37,5.37,0,0,0,.3,1.69,3.59,3.59,0,0,0,.76,1.27,3.21,3.21,0,0,0,1.19.8,4.14,4.14,0,0,0,1.59.28,13.33,13.33,0,0,0,1.41-.08,9.59,9.59,0,0,0,1.3-.24,9,9,0,0,0,1.24-.41c.43-.17.85-.35,1.26-.56v3.46a10.31,10.31,0,0,1-1.18.52,9.35,9.35,0,0,1-1.25.36,11.3,11.3,0,0,1-1.42.21A10.67,10.67,0,0,1,187.21,35.09Zm-.57-13.8a2.56,2.56,0,0,0-2,.83,4.14,4.14,0,0,0-.9,2.62h5.7a5.8,5.8,0,0,0-.19-1.37,3.45,3.45,0,0,0-.53-1.09,2.57,2.57,0,0,0-.88-.73A2.62,2.62,0,0,0,186.64,21.29Z"/><path d="M206.06,35.09A4.82,4.82,0,0,1,202,32.94a8.24,8.24,0,0,1-1.17-2.64,14.17,14.17,0,0,1-.42-3.67,14.37,14.37,0,0,1,.42-3.69A8.18,8.18,0,0,1,202,20.27a5,5,0,0,1,1.84-1.62,5.2,5.2,0,0,1,2.36-.54,5.88,5.88,0,0,1,1.45.18,4.16,4.16,0,0,1,1.18.52,4.67,4.67,0,0,1,.95.76,6.13,6.13,0,0,1,.74.94h.14c-.06-.38-.11-.77-.16-1.16s-.09-.68-.12-1.06a8.34,8.34,0,0,1,0-1V12h4.46V34.79h-3.41l-.86-2.12h-.19a7.24,7.24,0,0,1-.71.94,4,4,0,0,1-.91.77,4.55,4.55,0,0,1-1.17.52A5.63,5.63,0,0,1,206.06,35.09Zm1.63-3.56a3.14,3.14,0,0,0,1.35-.27,2.29,2.29,0,0,0,.9-.82,4.2,4.2,0,0,0,.51-1.37,10.32,10.32,0,0,0,.18-1.92v-.49a13.52,13.52,0,0,0-.14-2.11A5,5,0,0,0,210,23a2.44,2.44,0,0,0-.91-1,3.13,3.13,0,0,0-1.44-.32A2.17,2.17,0,0,0,205.6,23a8.16,8.16,0,0,0-.66,3.68,7.8,7.8,0,0,0,.66,3.63A2.23,2.23,0,0,0,207.69,31.53Z"/><path d="M226.15,35.09a9.84,9.84,0,0,1-3.23-.52A6.74,6.74,0,0,1,220.37,33a7.05,7.05,0,0,1-1.66-2.61,10.37,10.37,0,0,1-.6-3.7,11.39,11.39,0,0,1,.55-3.76,7.39,7.39,0,0,1,1.51-2.69,6.09,6.09,0,0,1,2.35-1.62,9,9,0,0,1,6,0,5.82,5.82,0,0,1,2.2,1.38,6.52,6.52,0,0,1,1.41,2.34,9.73,9.73,0,0,1,.49,3.17v2.17h-10a5.37,5.37,0,0,0,.3,1.69,3.5,3.5,0,0,0,.76,1.27,3.17,3.17,0,0,0,1.18.8,4.14,4.14,0,0,0,1.59.28,13.52,13.52,0,0,0,1.42-.08,9.45,9.45,0,0,0,1.29-.24,9.13,9.13,0,0,0,1.25-.41c.43-.17.85-.35,1.26-.56v3.46a10.31,10.31,0,0,1-1.18.52,10.18,10.18,0,0,1-2.67.57A10.72,10.72,0,0,1,226.15,35.09Zm-.57-13.8a2.56,2.56,0,0,0-2,.83,4.16,4.16,0,0,0-.9,2.62h5.7a5.33,5.33,0,0,0-.19-1.37,3,3,0,0,0-.53-1.09,2.45,2.45,0,0,0-.87-.73,2.67,2.67,0,0,0-1.21-.26Z"/><path d="M247,29.93a5.17,5.17,0,0,1-.46,2.26,4.36,4.36,0,0,1-1.34,1.61,5.78,5.78,0,0,1-2.09,1,10.69,10.69,0,0,1-2.76.33,12,12,0,0,1-1.49-.06,11.26,11.26,0,0,1-1.3-.16,12.18,12.18,0,0,1-1.19-.3,8.13,8.13,0,0,1-1.16-.44V30.44a14.4,14.4,0,0,0,2.65,1c.45.12.89.22,1.32.29a6.6,6.6,0,0,0,1.17.1,4.2,4.2,0,0,0,1-.11,2.2,2.2,0,0,0,.7-.31,1.19,1.19,0,0,0,.39-.47,1.39,1.39,0,0,0,.12-.57,1.71,1.71,0,0,0-.09-.55,1.37,1.37,0,0,0-.43-.52,7.85,7.85,0,0,0-1-.61c-.44-.23-1-.51-1.75-.84a12.18,12.18,0,0,1-1.86-1,5.48,5.48,0,0,1-1.28-1.07,3.88,3.88,0,0,1-.76-1.34,5.7,5.7,0,0,1-.25-1.79,4.46,4.46,0,0,1,.44-2,3.91,3.91,0,0,1,1.25-1.43,5.35,5.35,0,0,1,1.94-.85,10.15,10.15,0,0,1,2.52-.29,10.93,10.93,0,0,1,2.79.34,14.7,14.7,0,0,1,2.71,1l-1.35,3.16a17.89,17.89,0,0,0-2.13-.86,6.18,6.18,0,0,0-2-.34,2.15,2.15,0,0,0-1.31.32,1.07,1.07,0,0,0-.4.88,1.15,1.15,0,0,0,.1.52,1.33,1.33,0,0,0,.41.47,5.46,5.46,0,0,0,.87.53c.37.19.85.42,1.45.69s1.31.61,1.87.9a6.51,6.51,0,0,1,1.44,1,4,4,0,0,1,.92,1.34A4.82,4.82,0,0,1,247,29.93Z"/><path d="M249.88,14.18a2.65,2.65,0,0,1,.19-1,1.9,1.9,0,0,1,.52-.67,1.92,1.92,0,0,1,.78-.36,4.47,4.47,0,0,1,1.88,0,2,2,0,0,1,.77.36,1.82,1.82,0,0,1,.53.67,2.8,2.8,0,0,1,0,2.09A1.77,1.77,0,0,1,254,16a2,2,0,0,1-.77.37,4.07,4.07,0,0,1-1.88,0,1.88,1.88,0,0,1-.78-.37,1.66,1.66,0,0,1-.52-.68A2.73,2.73,0,0,1,249.88,14.18Zm4.66,20.61h-4.47V18.42h4.47Z"/><path d="M272.29,18.44v2.44l-2.39.74a4,4,0,0,1,.41,1,5.54,5.54,0,0,1,.12,1.15A6.32,6.32,0,0,1,270,26a4.69,4.69,0,0,1-1.17,1.77A5.16,5.16,0,0,1,266.91,29a8.15,8.15,0,0,1-2.73.41h-.73a3.68,3.68,0,0,1-.58-.08,2.07,2.07,0,0,0-.46.52,1.13,1.13,0,0,0-.17.65.65.65,0,0,0,.19.49,1.54,1.54,0,0,0,.49.3,3,3,0,0,0,.72.14,6,6,0,0,0,.85,0H267a7.64,7.64,0,0,1,2.13.27,4.26,4.26,0,0,1,1.59.83,3.79,3.79,0,0,1,1,1.41,5.48,5.48,0,0,1,.35,2,5.65,5.65,0,0,1-.56,2.52,5.16,5.16,0,0,1-1.66,1.9,8.44,8.44,0,0,1-2.75,1.2,15.09,15.09,0,0,1-3.79.42,12,12,0,0,1-2.92-.32,6.32,6.32,0,0,1-2.08-.9,4,4,0,0,1-1.25-1.43,4.14,4.14,0,0,1-.42-1.89,3.72,3.72,0,0,1,1.18-2.66A4.4,4.4,0,0,1,259,34a7.82,7.82,0,0,1,1.34-.45,2.55,2.55,0,0,1-.61-.37,2.76,2.76,0,0,1-.54-.54,3.11,3.11,0,0,1-.4-.68,2.08,2.08,0,0,1-.15-.78,2.45,2.45,0,0,1,.14-.85,2.37,2.37,0,0,1,.4-.71,4.36,4.36,0,0,1,.66-.63c.26-.19.56-.39.89-.6a4.37,4.37,0,0,1-2-1.78,5.56,5.56,0,0,1-.75-2.9,6.12,6.12,0,0,1,.41-2.36,4.76,4.76,0,0,1,1.2-1.77,5.17,5.17,0,0,1,2-1.1,8.52,8.52,0,0,1,2.7-.38h.65l.73.09.67.11.48.1ZM260.57,37.11a1.74,1.74,0,0,0,.15.71,1.48,1.48,0,0,0,.51.6,2.65,2.65,0,0,0,.92.42,5.6,5.6,0,0,0,1.41.16,7.29,7.29,0,0,0,3.44-.65,1.94,1.94,0,0,0,1.15-1.73,1.2,1.2,0,0,0-.71-1.23,6,6,0,0,0-2.23-.31h-2.07a4,4,0,0,0-.85.1,2.49,2.49,0,0,0-.83.33,2,2,0,0,0-.64.62A1.79,1.79,0,0,0,260.57,37.11Zm1.61-13.33a3.55,3.55,0,0,0,.5,2.06,1.7,1.7,0,0,0,1.51.73,1.67,1.67,0,0,0,1.52-.73,3.79,3.79,0,0,0,.47-2.06,4.25,4.25,0,0,0-.46-2.1,1.63,1.63,0,0,0-1.53-.77C262.85,20.91,262.18,21.86,262.18,23.78Z"/><path d="M289,34.79h-4.47V25.23a5.32,5.32,0,0,0-.53-2.66,1.88,1.88,0,0,0-1.71-.89,2.77,2.77,0,0,0-1.46.35,2.49,2.49,0,0,0-.93,1,5.22,5.22,0,0,0-.49,1.69,15,15,0,0,0-.15,2.32v7.7h-4.47V18.42h3.41l.61,2.09h.24a4.5,4.5,0,0,1,.86-1.08,4.92,4.92,0,0,1,1.11-.75,5.14,5.14,0,0,1,1.27-.43,7,7,0,0,1,3.56.2,4.26,4.26,0,0,1,1.69,1.08,5.09,5.09,0,0,1,1.08,1.87,8.58,8.58,0,0,1,.38,2.71V34.79Z"/><path d="M80.11,52.33h1a6.85,6.85,0,0,1,.91.11l-.35,2.46-.85-.13a7.34,7.34,0,0,0-.81-.05,3.71,3.71,0,0,0-3,1.44,5.28,5.28,0,0,0-.85,1.67,7.18,7.18,0,0,0-.3,2.16v8.68H73.15V52.62h2.17l.32,3h.11c.25-.42.51-.83.79-1.22a5.87,5.87,0,0,1,.93-1,4.39,4.39,0,0,1,1.17-.72A3.91,3.91,0,0,1,80.11,52.33Z"/><path d="M90.73,69a7.78,7.78,0,0,1-2.94-.54,6.4,6.4,0,0,1-2.3-1.58A7.26,7.26,0,0,1,84,64.3a10.82,10.82,0,0,1-.53-3.52A12.23,12.23,0,0,1,84,57.22a8.11,8.11,0,0,1,1.37-2.66,5.76,5.76,0,0,1,2.1-1.66,6.71,6.71,0,0,1,5.31,0,5.56,5.56,0,0,1,2,1.46A6.67,6.67,0,0,1,96,56.64a9.41,9.41,0,0,1,.43,2.93v1.66H86.23a6.7,6.7,0,0,0,1.2,4.16,4.1,4.1,0,0,0,3.33,1.33,12.75,12.75,0,0,0,1.38-.07q.61-.08,1.23-.21A9.4,9.4,0,0,0,94.52,66c.37-.14.75-.3,1.13-.47V67.9a11.61,11.61,0,0,1-1.15.48,9.45,9.45,0,0,1-1.15.34,10.46,10.46,0,0,1-1.23.19A6.87,6.87,0,0,1,90.73,69Zm-.66-14.46a3.29,3.29,0,0,0-2.64,1.14A5.69,5.69,0,0,0,86.29,59H93.5a8,8,0,0,0-.2-1.82,4.08,4.08,0,0,0-.61-1.42,2.93,2.93,0,0,0-1.07-.91A3.47,3.47,0,0,0,90.07,54.54Z"/><path d="M109.6,64.3a4.76,4.76,0,0,1-.42,2A3.92,3.92,0,0,1,108,67.82a5.52,5.52,0,0,1-1.92.89,10.31,10.31,0,0,1-2.54.29,12.6,12.6,0,0,1-2.74-.26,7.1,7.1,0,0,1-2-.75V65.56c.3.15.64.31,1,.46a12.13,12.13,0,0,0,2.44.69,8,8,0,0,0,1.29.11,7.36,7.36,0,0,0,1.62-.16,3.31,3.31,0,0,0,1.09-.47,1.78,1.78,0,0,0,.6-.73,2.31,2.31,0,0,0,.19-1,2.52,2.52,0,0,0-.14-.82,2.13,2.13,0,0,0-.54-.72,5.54,5.54,0,0,0-1.06-.73,18.38,18.38,0,0,0-1.73-.82c-.73-.3-1.33-.6-1.89-.89a6.8,6.8,0,0,1-1.43-1,3.78,3.78,0,0,1-.9-1.26,4.5,4.5,0,0,1,.08-3.51,3.78,3.78,0,0,1,1.14-1.34,5.25,5.25,0,0,1,1.76-.82,8.33,8.33,0,0,1,2.28-.28,9.9,9.9,0,0,1,2.6.31,12.71,12.71,0,0,1,2.24.8l-.93,2.16a16,16,0,0,0-2-.74,6.8,6.8,0,0,0-2-.32,4.09,4.09,0,0,0-2.22.49,1.6,1.6,0,0,0-.71,1.4,2.31,2.31,0,0,0,.16.9,2.11,2.11,0,0,0,.58.71,6,6,0,0,0,1.1.69c.46.23,1,.48,1.72.77a20,20,0,0,1,1.88.87,6.94,6.94,0,0,1,1.41,1,4,4,0,0,1,.9,1.25A4.32,4.32,0,0,1,109.6,64.3Z"/><path d="M119.42,69a7.78,7.78,0,0,1-2.94-.54,6.4,6.4,0,0,1-2.3-1.58,7.24,7.24,0,0,1-1.48-2.58,10.82,10.82,0,0,1-.53-3.52,12,12,0,0,1,.48-3.56A8.06,8.06,0,0,1,114,54.56a5.76,5.76,0,0,1,2.1-1.66,6.3,6.3,0,0,1,2.7-.57,6.15,6.15,0,0,1,2.61.52,5.56,5.56,0,0,1,2,1.46,6.67,6.67,0,0,1,1.24,2.28,9.41,9.41,0,0,1,.43,2.93v1.66H114.92a6.7,6.7,0,0,0,1.2,4.16,4.1,4.1,0,0,0,3.33,1.33,12.75,12.75,0,0,0,1.38-.07q.61-.07,1.23-.21a7.67,7.67,0,0,0,1.15-.36c.37-.14.75-.3,1.13-.47v2.37a11.61,11.61,0,0,1-1.15.48,9.45,9.45,0,0,1-1.15.34,10.46,10.46,0,0,1-1.23.19A10.25,10.25,0,0,1,119.42,69Zm-.66-14.46a3.29,3.29,0,0,0-2.64,1.14A5.74,5.74,0,0,0,115,59h7.21a8,8,0,0,0-.2-1.82,4.08,4.08,0,0,0-.61-1.42,2.93,2.93,0,0,0-1.07-.91A3.53,3.53,0,0,0,118.76,54.54Z"/><path d="M137.53,68.71,137,66.48h-.12a8.33,8.33,0,0,1-1,1.14,4.7,4.7,0,0,1-1,.78,4.81,4.81,0,0,1-1.27.45A8.17,8.17,0,0,1,132,69a5.88,5.88,0,0,1-1.86-.29,3.85,3.85,0,0,1-1.47-.87,4.12,4.12,0,0,1-1-1.5,5.92,5.92,0,0,1-.35-2.13A4.37,4.37,0,0,1,129,60.52a9,9,0,0,1,5.15-1.41l2.7-.1V58a5.36,5.36,0,0,0-.22-1.64A2.44,2.44,0,0,0,136,55.3a2.2,2.2,0,0,0-1-.58,4.4,4.4,0,0,0-1.35-.18,7.27,7.27,0,0,0-2.27.35,14.64,14.64,0,0,0-2,.85l-.94-2a12.47,12.47,0,0,1,2.42-1,9.83,9.83,0,0,1,2.8-.41,10.17,10.17,0,0,1,2.58.3,4.29,4.29,0,0,1,1.8.95,4,4,0,0,1,1.07,1.66,7.53,7.53,0,0,1,.35,2.45v11Zm-4.89-1.86a4.89,4.89,0,0,0,1.65-.28,3.59,3.59,0,0,0,1.32-.84,4,4,0,0,0,.87-1.42,5.9,5.9,0,0,0,.32-2V60.84l-2.1.1a10.23,10.23,0,0,0-2.21.3,3.79,3.79,0,0,0-1.43.65,2.37,2.37,0,0,0-.77,1,3.6,3.6,0,0,0-.23,1.34,2.51,2.51,0,0,0,.71,2A2.7,2.7,0,0,0,132.64,66.85Z"/><path d="M150.7,52.33h1a6.85,6.85,0,0,1,.91.11l-.35,2.46-.84-.13a7.52,7.52,0,0,0-.82-.05,3.92,3.92,0,0,0-1.68.37,3.77,3.77,0,0,0-1.31,1.07,5.28,5.28,0,0,0-.85,1.67A7,7,0,0,0,146.4,60v8.68h-2.66V52.62h2.17l.32,3h.12a14,14,0,0,1,.78-1.22,5.57,5.57,0,0,1,.94-1,4.1,4.1,0,0,1,1.16-.72A3.91,3.91,0,0,1,150.7,52.33Z"/><path d="M161.15,69a8.18,8.18,0,0,1-2.77-.46,5.68,5.68,0,0,1-2.24-1.47,7.1,7.1,0,0,1-1.49-2.56,11.39,11.39,0,0,1-.55-3.76,12,12,0,0,1,.56-3.9,6.9,6.9,0,0,1,1.53-2.61,5.78,5.78,0,0,1,2.28-1.45,8.35,8.35,0,0,1,2.8-.46,9.84,9.84,0,0,1,2.23.25,8.29,8.29,0,0,1,1.82.61l-.79,2.26c-.22-.1-.47-.19-.74-.29a7.59,7.59,0,0,0-.85-.24,6.72,6.72,0,0,0-.87-.18,5.29,5.29,0,0,0-.8-.07,3.84,3.84,0,0,0-3.36,1.48,7.92,7.92,0,0,0-1,4.57A7.55,7.55,0,0,0,158,65.24a3.74,3.74,0,0,0,3.23,1.43,7.76,7.76,0,0,0,2.14-.27,10.77,10.77,0,0,0,1.75-.64v2.38a7.18,7.18,0,0,1-1.69.64A9,9,0,0,1,161.15,69Z"/><path d="M178.33,68.71V58.35a4.48,4.48,0,0,0-.77-2.86,2.94,2.94,0,0,0-2.41-1,4.72,4.72,0,0,0-2,.38A3.13,3.13,0,0,0,171.86,56a4.88,4.88,0,0,0-.71,1.83,13,13,0,0,0-.21,2.49v8.34h-2.67V45.91H171v6.77l-.12,2.11H171a4.35,4.35,0,0,1,.87-1.09,5.65,5.65,0,0,1,1.11-.77,4.81,4.81,0,0,1,1.27-.45,6.41,6.41,0,0,1,1.38-.15,5.4,5.4,0,0,1,4,1.4A6.23,6.23,0,0,1,181,58.2V68.71Z"/><path d="M197.4,69.07a8.43,8.43,0,0,1-2.77-.46,5.68,5.68,0,0,1-2.24-1.47,7,7,0,0,1-1.5-2.56,11.42,11.42,0,0,1-.54-3.76,12,12,0,0,1,.56-3.9,6.9,6.9,0,0,1,1.53-2.61,5.87,5.87,0,0,1,2.28-1.46,8.54,8.54,0,0,1,2.79-.45,9.93,9.93,0,0,1,2.24.25,7.8,7.8,0,0,1,1.82.61l-.79,2.26c-.22-.1-.47-.19-.75-.29s-.55-.17-.85-.25a7.25,7.25,0,0,0-.86-.17,4.43,4.43,0,0,0-.81-.07,3.81,3.81,0,0,0-3.35,1.48,7.86,7.86,0,0,0-1.06,4.57,7.63,7.63,0,0,0,1.07,4.52,3.74,3.74,0,0,0,3.23,1.43,7.76,7.76,0,0,0,2.14-.27,10.77,10.77,0,0,0,1.75-.64V68.2a6.8,6.8,0,0,1-1.69.65A9,9,0,0,1,197.4,69.07Z"/><path d="M210.68,69.07a7.67,7.67,0,0,1-3-.54,6.18,6.18,0,0,1-2.29-1.59A7.07,7.07,0,0,1,204,64.37a11.08,11.08,0,0,1-.52-3.52,12,12,0,0,1,.48-3.56,7.81,7.81,0,0,1,1.36-2.66,5.76,5.76,0,0,1,2.1-1.66,6.3,6.3,0,0,1,2.7-.57,6.15,6.15,0,0,1,2.61.52,5.56,5.56,0,0,1,2,1.46A6.62,6.62,0,0,1,216,56.65a9.43,9.43,0,0,1,.43,2.94v1.66H206.18a6.64,6.64,0,0,0,1.19,4.16,4.12,4.12,0,0,0,3.33,1.33,8.54,8.54,0,0,0,1.39-.07,10.22,10.22,0,0,0,1.23-.22,9.5,9.5,0,0,0,1.15-.35c.37-.14.74-.3,1.13-.48V68c-.4.18-.78.35-1.15.48a9.6,9.6,0,0,1-1.16.34,10.46,10.46,0,0,1-1.23.19Q211.42,69.07,210.68,69.07ZM210,54.61a3.28,3.28,0,0,0-2.65,1.14,5.64,5.64,0,0,0-1.13,3.33h7.2a8,8,0,0,0-.19-1.83,4.34,4.34,0,0,0-.62-1.41,2.91,2.91,0,0,0-1.06-.91A3.62,3.62,0,0,0,210,54.61Z"/><path d="M229.89,68.78V58.42a4.54,4.54,0,0,0-.77-2.86,2.94,2.94,0,0,0-2.41-1,4.72,4.72,0,0,0-2,.38,3.16,3.16,0,0,0-1.3,1.13,5,5,0,0,0-.7,1.83,12.21,12.21,0,0,0-.22,2.49v8.34h-2.66v-16H222l.38,2.17h.14a5.09,5.09,0,0,1,.87-1.09A4.69,4.69,0,0,1,224.5,53a5.22,5.22,0,0,1,1.27-.46,7.1,7.1,0,0,1,1.38-.14,5.35,5.35,0,0,1,4,1.4,6.27,6.27,0,0,1,1.35,4.47v10.5Z"/><path d="M241.86,66.89h.59l.64-.08a3.45,3.45,0,0,0,.56-.1l.39-.1v2a4.68,4.68,0,0,1-.48.18c-.21.06-.43.11-.65.15s-.47.08-.73.1h-.74a5.71,5.71,0,0,1-1.69-.24,3.07,3.07,0,0,1-1.34-.8,3.88,3.88,0,0,1-.89-1.55A8.13,8.13,0,0,1,237.2,64V54.7h-2.27V53.51l2.27-1.14L238.35,49h1.53v3.69h4.05v2h-4.05V64a4,4,0,0,0,.47,2.14A1.64,1.64,0,0,0,241.86,66.89Z"/><path d="M253.74,52.4h.95a5.62,5.62,0,0,1,.91.1l-.36,2.5-.84-.13a7.34,7.34,0,0,0-.81,0,3.82,3.82,0,0,0-1.69.37,3.89,3.89,0,0,0-1.31,1.07,5.28,5.28,0,0,0-.85,1.67,7.18,7.18,0,0,0-.3,2.16v8.67h-2.66V52.69h2.16l.33,3h.11c.25-.42.51-.83.79-1.22a5.52,5.52,0,0,1,.93-1,4.39,4.39,0,0,1,1.17-.72A3.91,3.91,0,0,1,253.74,52.4Z"/><path d="M264.36,69.07a7.78,7.78,0,0,1-2.94-.54,6.22,6.22,0,0,1-2.3-1.59,7.11,7.11,0,0,1-1.48-2.57,10.82,10.82,0,0,1-.53-3.52,12,12,0,0,1,.48-3.56A8.11,8.11,0,0,1,259,54.63,5.85,5.85,0,0,1,261.06,53a6.71,6.71,0,0,1,5.31,0,5.56,5.56,0,0,1,2,1.46,6.62,6.62,0,0,1,1.24,2.27,9.73,9.73,0,0,1,.43,2.94v1.66H259.86a6.7,6.7,0,0,0,1.2,4.16,4.1,4.1,0,0,0,3.33,1.33,8.36,8.36,0,0,0,1.38-.07,10.22,10.22,0,0,0,1.23-.22,9,9,0,0,0,1.15-.35c.37-.14.75-.3,1.13-.48V68a11.61,11.61,0,0,1-1.15.48,9.45,9.45,0,0,1-1.15.34,10.31,10.31,0,0,1-1.24.19Q265.11,69.07,264.36,69.07Zm-.66-14.46a3.29,3.29,0,0,0-2.64,1.14,5.72,5.72,0,0,0-1.14,3.33h7.21a8,8,0,0,0-.2-1.83,4.11,4.11,0,0,0-.61-1.41,2.93,2.93,0,0,0-1.07-.91,3.62,3.62,0,0,0-1.55-.32Z"/><path d="M20.31,11.65c6.37,10.43,14.35,23.5,19.24,34.62C42.18,43.2,46.33,38.63,50,34.93V9H18.7Z"/><path d="M40.86,49.37a44.78,44.78,0,0,1,3,10.45c.46,3.45-.19,6.47-1.78,8.28a4.71,4.71,0,0,1-3.6,1.68A5,5,0,0,1,34.92,68a9.64,9.64,0,0,1-2.3-7.33,22.91,22.91,0,0,1,4.8-11.8C32.72,37.74,24.36,24,17.75,13.21L15.19,9H0V74H50V39.23C46.46,42.93,42.85,47,40.86,49.37Z"/><path d="M37.11,66a2.24,2.24,0,0,0,1.38.83,1.78,1.78,0,0,0,1.35-.67c1-1.12,1.39-3.39,1.06-5.91a38.16,38.16,0,0,0-2.16-8,18.94,18.94,0,0,0-3.13,8.68A6.84,6.84,0,0,0,37.11,66Z"/><circle cx="55.5" cy="34.5" r="2.5"/><path d="M18,3a3,3,0,1,1-3-3A3,3,0,0,1,18,3Z"/>
    </symbol>

    <symbol id="logo-floe" viewBox="0 0 746 241">
        <path d="M144.6,0.2h-24.1H96.4C43.4,0.2,0,43.6,0,96.6v24.1v24.1v96.4h96.4h24.1h24.1c53,0,96.4-43.4,96.4-96.4v-24.1V96.6V0.2
            H144.6z M192.8,106.3v14.5v14.5c0,31.8-26,57.8-57.8,57.8h-14.5H106H48.2v-32.5h0.2c1.1-5.5,6-9.6,11.8-9.6l40.7-4.6l30.6-39.6
            l-71.4,5.7c-6,0-11-4.5-11.9-10.3c2.2-29.8,27.3-53.6,57.7-53.6h14.5h14.5h57.8V106.3z"/>
        <g>
            <path d="M390.2,124.6h-28.3v109.8h-38.9V124.6h-21.2v-19.5l21.2-8.9V86.1c0-8.9,2.3-17.3,4.5-23.2c2.2-5.8,5.2-10.5,9.2-14
                c4-3.5,8.8-6,14.4-7.4c5.6-1.5,12-2.2,19-2.2c7.6,0,14.1,0.6,19.3,1.8c5.2,1.2,9.7,2.6,13.3,4l-9,27.9c-2.6-0.9-5.3-1.7-8.1-2.5
                c-2.8-0.7-6.1-1.1-10-1.1c-5,0-8.5,1.6-10.5,4.8c-2,3.2-3,7.3-3,12.3l-0.3,9.8h28.3V124.6z"/>
            <path d="M453.9,234.4H415V39.7h38.9V234.4z"/>
            <path d="M603.2,162.9c0,11.6-1.5,21.9-4.4,30.9c-2.9,9-7.2,16.5-12.7,22.7c-5.5,6.1-12.2,10.8-20.2,14
                c-7.9,3.2-16.8,4.8-26.7,4.8c-9.2,0-17.7-1.6-25.4-4.8c-7.7-3.2-14.4-7.9-20-14c-5.6-6.1-10-13.7-13.1-22.7
                c-3.2-9-4.7-19.3-4.7-30.9c0-11.5,1.5-21.8,4.4-30.7c2.9-9,7.2-16.5,12.7-22.6c5.5-6.1,12.2-10.7,20.1-13.9
                c7.9-3.2,16.8-4.7,26.8-4.7c9.2,0,17.7,1.6,25.4,4.7c7.7,3.2,14.4,7.8,20,13.9c5.6,6.1,10,13.6,13.1,22.6
                C601.6,141.2,603.2,151.4,603.2,162.9z M514.8,162.9c0,13.9,2,24.3,5.8,31.3c3.9,7,10.3,10.5,19,10.5c8.7,0,15-3.5,18.9-10.6
                c3.9-7.1,5.8-17.5,5.8-31.2c0-13.9-2-24.2-5.8-31.1c-3.9-6.8-10.3-10.3-19.2-10.3c-8.7,0-15,3.4-18.9,10.3
                C516.7,138.7,514.8,149.1,514.8,162.9z"/>
            <path d="M691.1,235.3c-10,0-19.1-1.5-27.5-4.4c-8.4-2.9-15.6-7.3-21.7-13.1c-6.1-5.8-10.8-13.2-14.1-22.2
                c-3.4-8.9-5-19.4-5-31.4c0-12.2,1.5-22.9,4.6-32s7.4-16.7,12.9-22.8c5.5-6.1,12.2-10.7,19.9-13.8c7.8-3.1,16.4-4.6,25.8-4.6
                c9.2,0,17.5,1.4,25,4.2c7.4,2.8,13.7,6.9,18.9,12.3c5.2,5.4,9.2,12,11.9,19.9s4.2,16.8,4.2,26.9v18.4h-84.9
                c0.2,5.3,1,10.1,2.6,14.4c1.5,4.3,3.7,7.9,6.5,10.8c2.8,2.9,6.1,5.2,10.1,6.8c3.9,1.6,8.4,2.4,13.5,2.4c4.2,0,8.2-0.2,12-0.7
                c3.8-0.5,7.4-1.1,11-2.1c3.6-0.9,17.6-5.2,21.3-7.1v28.2c-3.3,1.7-6.7,3.2-10,4.4c-3.4,1.2-6.9,2.2-10.6,3
                c-3.7,0.8-7.8,1.4-12.1,1.8C701,235.1,696.3,235.3,691.1,235.3z M686.3,118c-6.7,0-12.3,2.4-16.7,7.1c-4.4,4.7-7,12.2-7.7,22.3
                h48.4c-0.1-4.2-0.6-8.1-1.6-11.7c-1-3.6-2.5-6.7-4.5-9.3s-4.5-4.7-7.5-6.2C693.7,118.8,690.2,118,686.3,118z"/>
        </g>
    </symbol>

    <symbol id="logo-floe-leaf" viewBox="0 0 240 240">
        <path d="M144.6,0.2h-24.1H96.4C43.4,0.2,0,43.6,0,96.6v24.1v24.1v96.4h96.4h24.1h24.1c53,0,96.4-43.4,96.4-96.4v-24.1V96.6V0.2
            H144.6z M192.8,106.3v14.5v14.5c0,31.8-26,57.8-57.8,57.8h-14.5H106H48.2v-32.5h0.2c1.1-5.5,6-9.6,11.8-9.6l40.7-4.6l30.6-39.6
            l-71.4,5.7c-6,0-11-4.5-11.9-10.3c2.2-29.8,27.3-53.6,57.7-53.6h14.5h14.5h57.8V106.3z"/>
    </symbol>

    <symbol id="logo-hewlett" viewBox="0 0 599.91 127.9">
        <path d="M53.3,127.9h3.9v-25h34V99H53.3Zm-9.7,0h3.9V75.1h5.8V93.3H91.1V89.4h-34V75.1h34V71.2h-34V65.4h34V61.5H43.6Zm3.8-62.4h5.8v5.8H47.4Zm65-14.8,2.6-9.9,2.6,9.9h2.7L125,34.1h-3.2L119,44.8l-2.7-10.7H114l-2.8,10.7-2.7-10.7h-3.2L110,50.7Zm24.3-16.6h-3.1V50.7h3.1Zm17.9,13.7h-5.5V34.1H146V50.7h8.6Zm16.7,0h-5.5V34.1h-3.1V50.7h8.6Zm11.2-13.7h-3.1V50.7h3.1ZM195.1,46h5.1l1.8,4.7h3.3l-6.2-16.3-.1-.3h-2.6L190,50.7h3.3l1.8-4.7Zm2.6-7.3,1.5,4.4h-3Zm24.2,6.8-4.5-11.4h-4.3V50.7h3.1V39l4.7,11.7h1.9l4.7-11.8V50.7h3.1V34.1h-4.3l-4.4,11.4Zm54.5-1.7h5.7v-3h-5.7V36.9h5.7V34h-8.8V50.6h3.1V43.8Zm17.9-9.7h-3.1V50.7h8.6v-3h-5.5Zm30,8.3a8.6,8.6,0,1,0-8.6,8.6A8.6,8.6,0,0,0,324.3,42.4Zm-14.1,0a5.5,5.5,0,1,1,5.5,5.6,5.5,5.5,0,0,1-5.5-5.6Zm33.6,8.3-4.5-6a4.93,4.93,0,0,0,4.2-5.2,5.43,5.43,0,0,0-1.6-4c-1-1-2.4-1.4-4.5-1.4h-5.3V50.7h3.1V44.1l4.7,6.5h3.9Zm-8.6-8.5V37h2c2.3,0,3.1,1.3,3.1,2.6,0,1.8-1.3,2.7-4,2.7h-1.1ZM356.7,46h5.1l1.8,4.7h3.3l-6.2-16.3-.1-.3H358l-6.3,16.6H355Zm2.6-7.3,1.5,4.4h-3ZM134.7,80.5H114.3V62.6h-4.7v40.5h4.7V84.8h20.4v18.3h4.7V62.6h-4.7Zm25.1-8a16.31,16.31,0,0,0-15.9,16.1c0,8.8,7.1,15.3,15.9,15.3,6.8,0,12.8-3.6,15-10l.1-.4h-4.7l-.1.2a11,11,0,0,1-10.5,6.9c-5.7,0-10.9-4.8-11.3-10.3h27.3V90a16.18,16.18,0,0,0-2.3-9.6,15.35,15.35,0,0,0-13.5-7.9ZM148.5,86.2a11.41,11.41,0,0,1,11.3-9.6,11.61,11.61,0,0,1,11.4,9.6Zm58,11.7-6.8-21h-3.8l-6.7,21L180,73.4l-.1-.2h-4.7l11.6,29.7.1.2h4.8l6.1-18.7,6.2,18.7h4.8l11.7-29.9h-4.6Zm17.4,5.2h4.4V62.6h-4.4Zm24.3-30.6a16.31,16.31,0,0,0-15.9,16.1c0,8.8,7.1,15.3,15.9,15.3,6.8,0,12.8-3.6,15-10l.1-.4h-4.7v.2a11,11,0,0,1-10.5,6.9c-5.7,0-10.9-4.8-11.3-10.3h27.4V90a16.18,16.18,0,0,0-2.3-9.6,15.83,15.83,0,0,0-13.7-7.9ZM236.9,86.2a11.41,11.41,0,0,1,11.3-9.6,11.61,11.61,0,0,1,11.4,9.6Zm54.7-23.5h-4.4V73.3h-12V62.7h-4.4V73.3h-6.3v4.1h6.3v25.8h4.4V77.3h12v25.8h4.4V77.3h7.2V73.2h-7.2Zm236.5,40.4h4.4V72.5h-4.4ZM516.5,61.9h-4.4V72.5h-6.3v4.1h6.3v26.6h4.4V76.6h7.2V72.5h-7.2Zm79.6,13.6c-2.6-2.6-5.6-3.7-9.7-3.7a11.18,11.18,0,0,0-9,4.1V72.6H573v30.6h4.4V86.3c-.1-3.4.9-6.3,2.7-8a9.19,9.19,0,0,1,12.6,0c1.8,1.7,2.8,4.6,2.8,8v16.8h4.4V86.3C600,81.7,598.6,77.9,596.1,75.5Zm-68-6.1h4.4V61.9h-4.4Zm-30.4,7.9c-3.6-5-9.2-5.5-11.5-5.5a16.06,16.06,0,1,0-1.13,32.1h1.13a14.4,14.4,0,0,0,11.5-5.5v4.8h4.4V72.6h-4.4ZM486.2,99.8a11.7,11.7,0,0,1-12-11.39V87.9c0-7.9,6-12.1,12-12.1a11.85,11.85,0,0,1,11.7,12h0a11.66,11.66,0,0,1-11.31,12Zm67-28a16,16,0,1,0,16,16,16.06,16.06,0,0,0-16-16Zm.1,28A11.72,11.72,0,0,1,541.7,88a11.85,11.85,0,0,1,11.57-12.1h0a11.71,11.71,0,0,1,11.6,11.8A11.9,11.9,0,0,1,553.3,99.8Zm-201.5-28a16,16,0,1,0,16.05,16A16.06,16.06,0,0,0,351.8,71.8Zm.1,28A11.72,11.72,0,0,1,340.3,88a11.85,11.85,0,0,1,11.57-12.1h0a11.71,11.71,0,0,1,11.6,11.8,11.85,11.85,0,0,1-11.57,12.1ZM312,103.1h4.7V84.5h15.9V80.3H316.7V66.2h16.5V61.9H312.1l-.1,41.2ZM462.1,77.2c-3.9-5-9.8-5.4-11.5-5.4a16.06,16.06,0,1,0-1.13,32.1h1.13a14.68,14.68,0,0,0,11.5-5.5v4.8h4.4V62h-4.4ZM450.7,99.8a11.7,11.7,0,0,1-12-11.39V87.9c0-7.9,6-12.1,12-12.1a11.85,11.85,0,0,1,11.7,12h0A11.73,11.73,0,0,1,451,99.8ZM393.9,88.7c0,5.3-1.4,7.2-3.1,8.8a8.14,8.14,0,0,1-6.1,2.3,9,9,0,0,1-6.8-2.7c-1.4-1.8-2.1-4.3-2.1-7.7V72.6h-4.4V89.5c0,4.3.9,7.7,2.7,9.9,1.4,1.7,4.6,4.6,10.6,4.6,5.6,0,8.3-3,9.4-4.7v4h4.2V72.7h-4.4v16Zm23.3-16.9a11.18,11.18,0,0,0-9,4.1V72.6h-4.4v30.6h4.4V86.3c-.1-3.4.9-6.3,2.7-8a9.19,9.19,0,0,1,12.6,0c1.8,1.7,2.8,4.6,2.8,8v16.8h4.4V86.3c0-4.7-1.3-8.3-3.8-10.8A12.89,12.89,0,0,0,417.2,71.8Z" transform="translate(0 0)"/><path d="M0,71.2H3.9V.1H0ZM53.3,31H47.5V0H43.7V31H13.3V0H9.4V34.8H43.6v5.8H9.6V71.1h3.9V44.4H43.7V61.5h3.9v-17h5.8V61.6h3.9V.1H53.4V31Zm0,9.7H47.5V34.9h5.8Zm199.9.2V36.6h-3v4.3h-4.3V44h4.3v4.3h3.1V44h4.3V40.9Z" transform="translate(0 0)"/>
    </symbol>

    <symbol id="logo-ocadu" viewBox="0 0 159.5 132.9">
        <path d="M4.1 7.9c-.6 0-1.1-.1-1.6-.3-.5-.2-1-.5-1.3-.8C.8 6.4.5 6 .3 5.5.1 5 0 4.5 0 4c0-1.1.4-2.1 1.2-2.8.4-.4.8-.7 1.3-.9 1.1-.4 2.2-.4 3.3 0 .5.2.9.5 1.3.8.4.4.7.8.9 1.3.2.5.3 1 .3 1.5C8.2 5 7.8 6 7 6.8c-.3.3-.8.6-1.3.8-.5.2-1 .3-1.6.3zm0-1.9c.3 0 .6 0 .8-.1.2-.1.4-.3.6-.4.2-.3.3-.5.4-.7.1-.3.2-.5.2-.8 0-.3 0-.5-.1-.8-.2-.3-.3-.5-.5-.7-.2-.2-.4-.3-.6-.4-.3-.1-.5-.2-.8-.2-.3 0-.5.1-.8.2-.5.2-.8.6-1 1.1-.1.2-.1.5-.1.7 0 .3 0 .5.1.8.1.3.2.5.4.7.2.2.4.3.6.5.3.1.5.1.8.1zM13.4 7.9c-.5 0-1-.1-1.5-.3-.5-.2-.9-.5-1.2-.8-.8-.7-1.2-1.7-1.2-2.8 0-1.1.4-2.1 1.1-2.8.4-.4.8-.7 1.3-.8.5-.3 1.1-.4 1.6-.4.4 0 .7 0 1.1.1l.9.3c.3.1.5.3.7.5l.6.6-1.6 1.2c-.2-.3-.4-.5-.7-.7-.3-.2-.6-.2-.9-.2-.3 0-.5.1-.7.2-.2.1-.4.2-.6.4-.2.2-.3.4-.4.6-.1.3-.1.5-.1.8 0 .3 0 .5.1.8 0 .4.1.6.3.8.2.2.4.3.6.4.2.2.5.2.7.2.2 0 .4 0 .5-.1.2 0 .3-.1.4-.2.1-.1.3-.2.4-.3l.4-.4 1.6 1.1c-.2.2-.4.5-.6.7-.2.2-.5.4-.7.5-.3.2-.6.3-.9.4-.4.2-.8.2-1.2.2zM20.8.1h2l3.3 7.7h-2.3l-.6-1.4h-2.9l-.5 1.4h-2.2L20.8.1zm1.8 4.7l-.9-2.2-.9 2.2h1.8zM27.3.2h2.9c.6 0 1.2.1 1.8.3.5.2 1 .4 1.4.8.4.3.7.7.8 1.2.2.5.3 1 .3 1.5s-.1 1-.3 1.5c-.2.5-.5.9-.9 1.2-.3.4-.8.6-1.3.8-.6.2-1.2.3-1.8.3h-2.9V.2zm2.9 5.7c.6 0 1.1-.2 1.5-.5.5-.4.7-.9.6-1.4 0-.5-.2-1.1-.6-1.4-.4-.4-1-.5-1.5-.5h-.9V6l.9-.1zM3.7 20c-.5 0-1-.1-1.5-.2-.4-.1-.8-.3-1.1-.6-.3-.3-.6-.7-.7-1.1-.2-.5-.3-1-.2-1.6v-4.3h2.2v4.2c0 .4.1.9.4 1.2.3.3.6.4 1 .4s.7-.1 1-.4c.3-.3.4-.8.4-1.2v-4.3h2.2v4.2c-.1.7-.2 1.2-.4 1.7-.3.8-1 1.5-1.8 1.7-.5.2-1 .3-1.5.3zM9.2 12.2h2l3.1 4v-4h2.1v7.6h-1.9l-3.3-4.2v4.2h-2v-7.6zM18.4 12.2h2.1v7.6h-2.1v-7.6zM21.8 12.2h2.4l1.7 4.8 1.7-4.8h2.3l-3.1 7.7h-2l-3-7.7zM31.1 12.2h6.1V14h-4v1.2h3.7v1.7h-3.7V18h4.1v1.8h-6.2v-7.6zM39.1 12.2h3.6c.5 0 1 .1 1.5.2.4.1.7.3 1 .6.5.5.7 1.1.7 1.8 0 .5-.1 1-.4 1.5-.3.4-.7.7-1.1.9l1.8 2.7h-2.4l-1.5-2.3h-.9v2.3h-2.1l-.2-7.7zm3.5 3.7c.3 0 .6-.1.8-.2.2-.2.3-.4.3-.7 0-.3-.1-.5-.3-.7-.2-.2-.5-.2-.8-.2h-1.4v1.8h1.4zM50.5 20c-.7 0-1.3-.1-1.9-.3-.6-.2-1.2-.5-1.6-1l1.2-1.4c.7.6 1.6.9 2.5.9.2 0 .4 0 .6-.1.1-.1.2-.2.2-.4 0-.1 0-.1-.1-.2l-.2-.2c-.1-.1-.3-.1-.4-.2-.2-.1-.4-.1-.6-.2-.4-.1-.8-.2-1.1-.3-.3-.1-.6-.2-.9-.4-.6-.4-.9-1-.8-1.6 0-.3.1-.7.2-1 .1-.3.3-.6.6-.8.3-.2.6-.4.9-.5.4-.1.8-.2 1.2-.2.6 0 1.2.1 1.8.3.5.2 1 .4 1.4.8l-1.1 1.5c-.3-.2-.7-.4-1.1-.6-.3-.1-.7-.2-1.1-.2-.2 0-.4 0-.6.1-.1.1-.2.2-.2.3 0 .1 0 .2.1.2l.2.2c.1.1.3.1.4.2.2.1.4.1.6.2l1.2.3c.3.1.6.3.9.5.2.2.4.4.6.7.1.3.2.6.2.9 0 .4-.1.7-.2 1-.1.3-.4.6-.6.8-.3.2-.6.4-1 .5-.5.1-.9.2-1.3.2zM55.2 12.2h2.1v7.6h-2.1v-7.6zM61 14.1h-2.3v-1.9h6.7v1.9h-2.3v5.8H61v-5.8zM69.2 17l-2.9-4.8h2.4l1.6 2.8 1.6-2.8h2.4l-3 4.8v2.9h-2.1V17z" transform="translate(74.132 12.228)"/><path class="st0" d="M159.5 0H62.1v31.3H0v66.1h62.1v35.5h39.5V97.4h57.8V0zM62.1 93.3H4v-58h58.1v58zm35.6 35.5H66.1V97.4h31.6v31.4zm57.7-35.5H66.1V4.1h89.3v89.2z"/><path class="st0" d="M28.6 54.9c.4-1 .6-2.1.6-3.2s-.2-2.2-.6-3.2c-.4-1-1-1.8-1.8-2.6-.8-.7-1.7-1.3-2.7-1.7-2.2-.8-4.6-.8-6.7 0-1 .4-1.9 1-2.7 1.7-1.6 1.5-2.4 3.6-2.4 5.8 0 1.1.2 2.2.6 3.1.4 1 1 1.8 1.8 2.6.8.7 1.7 1.3 2.7 1.7 2.2.9 4.6.9 6.7 0 1-.4 1.9-1 2.7-1.7.8-.7 1.4-1.6 1.8-2.5zm-3.5-3.2c0 .6-.1 1.1-.3 1.7-.2.5-.5 1-.8 1.4-.4.4-.8.7-1.3 1-.5.2-1.1.4-1.7.4-.6 0-1.2-.1-1.7-.4-.5-.2-1-.6-1.3-1-.4-.4-.7-.9-.9-1.4-.2-.5-.3-1.1-.3-1.7 0-.6.1-1.1.3-1.7.4-1 1.2-1.9 2.2-2.4.5-.2 1.1-.4 1.7-.4.6 0 1.2.1 1.7.4 1 .5 1.8 1.3 2.2 2.4.1.6.2 1.1.2 1.7zM51.6 57.7c.4-.4.8-.8 1.1-1.3l-3.1-2.2c-.2.2-.4.5-.7.7-.3.2-.5.4-.8.6-.3.2-.6.3-1 .4-.4.1-.8.1-1.2.1-.5 0-1.1-.1-1.6-.3-.5-.2-.9-.5-1.2-.9-.4-.4-.6-.9-.8-1.4-.2-.6-.3-1.1-.3-1.7 0-.6.1-1.1.3-1.7.2-.5.5-1 .8-1.4.3-.4.8-.7 1.2-.9.5-.2 1-.3 1.6-.3.7 0 1.4.2 2 .5.6.3 1 .8 1.4 1.3l3.1-2.4c-.3-.4-.7-.8-1.1-1.2-.9-.8-2.1-1.4-3.3-1.7-.7-.2-1.5-.2-2.2-.2-1.1 0-2.3.2-3.3.6-1 .4-1.9 1-2.6 1.7-1.5 1.5-2.4 3.6-2.3 5.8 0 2.2.8 4.3 2.4 5.8.7.7 1.6 1.3 2.6 1.7 1 .4 2.1.6 3.2.6.8 0 1.6-.1 2.3-.3.7-.2 1.3-.4 1.9-.7.7-.4 1.2-.7 1.6-1.2zM52.9 79.7c.4-1 .6-2.1.6-3.1 0-1.1-.2-2.1-.6-3.1-.4-.9-1-1.8-1.7-2.4-.8-.7-1.7-1.3-2.8-1.6-1.2-.4-2.5-.6-3.8-.6h-6v15.6h5.9c1.3 0 2.6-.2 3.8-.6 1-.4 2-.9 2.8-1.6.8-.8 1.4-1.7 1.8-2.6zm-3.6-3.1c.1 1.2-.4 2.3-1.3 3.1-.9.8-2.1 1.1-3.3 1.1h-1.9v-8.4h1.9c1.2-.1 2.4.3 3.3 1.1.9.8 1.4 1.9 1.3 3.1zM88.2 117.2c.4-1 .5-2 .5-3.1v-8.2h-4v8.3c.1.9-.2 1.8-.8 2.4-.6.5-1.3.8-2.1.8s-1.5-.3-2.1-.8c-.6-.7-.9-1.6-.8-2.5v-8.2h-4v8.3c0 1 .1 2 .5 3 .3.8.7 1.5 1.3 2.1.6.6 1.3 1 2.1 1.2 1.9.5 3.9.5 5.7 0 1.8-.4 3.2-1.7 3.7-3.3zM24.1 81.9l1 2.5h4.4l-6.7-15.7h-4.1L12 84.4h4.3l1-2.5h6.8zm-3.3-8.4l2.1 5.3h-4.2l2.1-5.3z"/>
    </symbol>

    <!--
        Creative Commons ("CC" and "BY" icons)
        Retrieved from https://creativecommons.org/about/downloads
        Copyright (c) 2021, Creative Commons
    -->
    <symbol id="cc-logo" viewBox="5.5 -3.5 64 64">
        <path d="M37.441-3.5c8.951,0,16.572,3.125,22.857,9.372c3.008,3.009,5.295,6.448,6.857,10.314
            c1.561,3.867,2.344,7.971,2.344,12.314c0,4.381-0.773,8.486-2.314,12.313c-1.543,3.828-3.82,7.21-6.828,10.143
            c-3.123,3.085-6.666,5.448-10.629,7.086c-3.961,1.638-8.057,2.457-12.285,2.457s-8.276-0.808-12.143-2.429
            c-3.866-1.618-7.333-3.961-10.4-7.027c-3.067-3.066-5.4-6.524-7-10.372S5.5,32.767,5.5,28.5c0-4.229,0.809-8.295,2.428-12.2
            c1.619-3.905,3.972-7.4,7.057-10.486C21.08-0.394,28.565-3.5,37.441-3.5z M37.557,2.272c-7.314,0-13.467,2.553-18.458,7.657
            c-2.515,2.553-4.448,5.419-5.8,8.6c-1.354,3.181-2.029,6.505-2.029,9.972c0,3.429,0.675,6.734,2.029,9.913
            c1.353,3.183,3.285,6.021,5.8,8.516c2.514,2.496,5.351,4.399,8.515,5.715c3.161,1.314,6.476,1.971,9.943,1.971
            c3.428,0,6.75-0.665,9.973-1.999c3.219-1.335,6.121-3.257,8.713-5.771c4.99-4.876,7.484-10.99,7.484-18.344
            c0-3.543-0.648-6.895-1.943-10.057c-1.293-3.162-3.18-5.98-5.654-8.458C50.984,4.844,44.795,2.272,37.557,2.272z M37.156,23.187
            l-4.287,2.229c-0.458-0.951-1.019-1.619-1.685-2c-0.667-0.38-1.286-0.571-1.858-0.571c-2.856,0-4.286,1.885-4.286,5.657
            c0,1.714,0.362,3.084,1.085,4.113c0.724,1.029,1.791,1.544,3.201,1.544c1.867,0,3.181-0.915,3.944-2.743l3.942,2
            c-0.838,1.563-2,2.791-3.486,3.686c-1.484,0.896-3.123,1.343-4.914,1.343c-2.857,0-5.163-0.875-6.915-2.629
            c-1.752-1.752-2.628-4.19-2.628-7.313c0-3.048,0.886-5.466,2.657-7.257c1.771-1.79,4.009-2.686,6.715-2.686
            C32.604,18.558,35.441,20.101,37.156,23.187z M55.613,23.187l-4.229,2.229c-0.457-0.951-1.02-1.619-1.686-2
            c-0.668-0.38-1.307-0.571-1.914-0.571c-2.857,0-4.287,1.885-4.287,5.657c0,1.714,0.363,3.084,1.086,4.113
            c0.723,1.029,1.789,1.544,3.201,1.544c1.865,0,3.18-0.915,3.941-2.743l4,2c-0.875,1.563-2.057,2.791-3.541,3.686
            c-1.486,0.896-3.105,1.343-4.857,1.343c-2.896,0-5.209-0.875-6.941-2.629c-1.736-1.752-2.602-4.19-2.602-7.313
            c0-3.048,0.885-5.466,2.658-7.257c1.77-1.79,4.008-2.686,6.713-2.686C51.117,18.558,53.938,20.101,55.613,23.187z"/>
    </symbol>

    <symbol id="cc-by" viewBox="5.5 -3.5 64 64">
        <path d="M37.443-3.5c8.988,0,16.57,3.085,22.742,9.257C66.393,11.967,69.5,19.548,69.5,28.5c0,8.991-3.049,16.476-9.145,22.456
            C53.879,57.319,46.242,60.5,37.443,60.5c-8.649,0-16.153-3.144-22.514-9.43C8.644,44.784,5.5,37.262,5.5,28.5
            c0-8.761,3.144-16.342,9.429-22.742C21.101-0.415,28.604-3.5,37.443-3.5z M37.557,2.272c-7.276,0-13.428,2.553-18.457,7.657
            c-5.22,5.334-7.829,11.525-7.829,18.572c0,7.086,2.59,13.22,7.77,18.398c5.181,5.182,11.352,7.771,18.514,7.771
            c7.123,0,13.334-2.607,18.629-7.828c5.029-4.838,7.543-10.952,7.543-18.343c0-7.276-2.553-13.465-7.656-18.571
            C50.967,4.824,44.795,2.272,37.557,2.272z M46.129,20.557v13.085h-3.656v15.542h-9.944V33.643h-3.656V20.557
            c0-0.572,0.2-1.057,0.599-1.457c0.401-0.399,0.887-0.6,1.457-0.6h13.144c0.533,0,1.01,0.2,1.428,0.6
            C45.918,19.5,46.129,19.986,46.129,20.557z M33.042,12.329c0-3.008,1.485-4.514,4.458-4.514s4.457,1.504,4.457,4.514
            c0,2.971-1.486,4.457-4.457,4.457S33.042,15.3,33.042,12.329z"/>
    </symbol>

    <!-- assets specific to this site -->
    <symbol id="arrow" width="16" height="21" viewBox="0 0 16 21">
        <path d="M2 19.5L13 10.5L2 1.5" stroke="var(--fl-bgColor, #000)" stroke-width="3" stroke-linecap="round"/>
    </symbol>

    <symbol id="fleur-large" width="392" height="777" viewBox="0 0 392 777">
        <path opacity="0.5" d="M180.194 529.8C204.593 529.8 224.373 509.997 224.373 485.57C224.373 461.142 204.593 441.339 180.194 441.339C155.794 441.339 136.014 461.142 136.014 485.57C136.014 509.997 155.794 529.8 180.194 529.8Z" fill="#BCDDA9"/>
        <path opacity="0.5" d="M219.297 734.719C240.894 734.719 258.401 717.191 258.401 695.57C258.401 673.949 240.894 656.422 219.297 656.422C197.701 656.422 180.193 673.949 180.193 695.57C180.193 717.191 197.701 734.719 219.297 734.719Z" fill="#BCDDA9"/>
        <path d="M141.114 282.55C219.049 282.55 282.228 219.299 282.228 141.275C282.228 63.251 219.049 0 141.114 0C63.1789 0 0 63.251 0 141.275C0 219.299 63.1789 282.55 141.114 282.55Z" fill="#F0EB96"/>
        <path d="M170.288 169.051H169.672C168.908 169.051 168.859 169.051 169.475 169.051H169.918C169.105 168.805 169.154 168.879 170.115 169.249C169.764 169.102 169.433 168.911 169.13 168.681C170.041 169.791 169.77 169.002 169.351 168.681C167.824 167.67 170.14 169.298 169.351 168.681C169.08 168.459 168.514 166.979 169.154 168.681C169.006 168.287 168.883 167.892 168.76 167.497C168.637 167.102 168.563 165.376 168.612 167.053C168.612 166.658 168.612 166.214 168.612 165.82C168.489 163.871 168.809 166.856 168.612 165.82C168.612 165.548 169.154 163.871 168.612 165.647C168.762 165.271 168.97 164.922 169.228 164.611C167.577 165.869 169.45 164.907 169.228 164.784L168.785 165.154C169.524 164.784 169.647 164.685 169.179 164.882C168.169 165.03 170.386 164.611 170.288 164.611C168.982 164.882 170.633 164.611 171.101 164.611C169.721 164.611 172.111 164.907 172.653 165.08C171.175 164.562 174.92 166.535 173.811 165.696C174.181 165.968 175.881 167.769 175.191 166.88C175.558 167.377 175.879 167.905 176.152 168.459C176.399 168.953 176.399 168.903 176.152 168.459C176.281 168.806 176.388 169.16 176.472 169.52C176.673 171.117 176.46 172.74 175.856 174.232C174.95 176.317 173.515 178.128 171.692 179.486C170.186 180.646 168.459 181.486 166.616 181.953C165.663 182.237 164.678 182.403 163.684 182.446C162.277 182.512 160.867 182.455 159.471 182.273C160.456 182.421 159.076 182.15 159.003 182.15L156.957 181.607C156.102 181.383 155.275 181.061 154.493 180.645C151.641 179.364 149.25 177.237 147.644 174.552C147.397 174.133 147.175 173.689 146.954 173.27C145.82 171.321 147.151 173.96 146.682 172.752C146.312 171.73 146.016 170.683 145.795 169.619C145.795 169.15 145.598 168.681 145.524 168.213C145.746 169.767 145.524 167.67 145.524 167.349C145.439 166.134 145.439 164.914 145.524 163.698C145.524 165.104 145.722 162.564 145.845 162.095C146.118 160.875 146.463 159.672 146.88 158.493L147.397 157.112C146.88 158.321 147.89 156.199 147.915 156.174C149.637 152.411 152.354 149.19 155.771 146.86C159.189 144.53 163.177 143.178 167.306 142.952C172.334 142.857 177.327 143.805 181.97 145.737C186.614 147.668 190.808 150.542 194.287 154.176C201.745 161.679 206.07 171.743 206.386 182.323C206.622 187.223 205.78 192.116 203.921 196.655C201.895 201.158 198.799 205.096 194.903 208.126C186.649 214.367 175.955 216.957 166.148 217.845C160.418 218.468 154.64 218.518 148.9 217.993C146.697 217.691 144.516 217.246 142.37 216.661C140.025 216.047 137.741 215.222 135.545 214.194C126.692 209.916 119.576 202.723 115.389 193.818C113.355 189.319 111.906 184.577 111.077 179.708C110.086 174.128 109.962 168.428 110.708 162.81C112.112 152.943 118.1 142.878 123.915 134.516C124.974 132.963 126.152 131.495 127.439 130.125C129.14 128.228 130.95 126.433 132.859 124.747C136.899 121.315 141.255 118.276 145.869 115.669C156.514 109.354 168.218 103.828 180.883 104.791C190.049 105.506 199.338 110.686 206.386 117.421C222.697 132.986 231.592 156.618 231.987 179.363C232.405 191.365 229.387 203.236 223.289 213.577C220.837 217.814 217.791 221.676 214.246 225.048C213.531 225.764 212.792 226.43 212.028 227.096L210.599 228.304C209.515 229.168 211.979 227.293 210.082 228.699C208.184 230.105 206.238 231.314 204.217 232.473C202.197 233.633 200.275 234.595 198.254 235.507C196.234 236.42 195.15 236.84 192.538 237.802C187.61 239.627 182.361 241.181 177.212 242.735C166.517 246.296 155.34 248.193 144.071 248.36C131.751 248.36 119.061 246.929 108.367 240.737C98.593 235.04 91.3383 225.846 88.0637 215.008C86.069 208.735 84.5129 202.33 83.4066 195.841C82.3225 189.995 80.9427 183.161 80.2281 177.833C78.7474 167.351 79.6829 156.668 82.9631 146.603C89.3696 126.277 105.139 109.601 123.201 97.8094C144.366 84.0199 169.598 73.9306 194.879 80.147C216.039 85.6172 234.453 98.6803 246.623 116.853C252.917 126.717 257.546 137.552 260.323 148.922C263.772 161.256 266.138 174.182 264.339 186.936C262.614 199.072 256.627 209.507 250.59 220.04C244.947 229.908 238.787 239.109 229.005 245.103C208.899 257.438 186.501 269.056 162.255 266.984L159.791 266.737L158.584 266.614C160.309 266.811 158.855 266.614 158.411 266.614C156.366 266.293 154.321 265.948 152.276 265.529C147.872 264.587 143.535 263.359 139.29 261.853L136.112 260.694L134.338 259.978C134.658 260.102 135.447 260.447 134.042 259.83C131.578 258.794 129.114 257.635 126.921 256.401C122.389 254.009 118.048 251.271 113.936 248.212C105.544 241.738 98.2978 233.9 92.4989 225.023C91.45 223.316 89.7825 222.08 87.8447 221.574C85.9069 221.068 83.8489 221.332 82.1008 222.31C80.3822 223.342 79.1358 225.008 78.6292 226.949C78.1225 228.89 78.3958 230.953 79.3903 232.695C93.353 254.138 114.342 270.039 138.748 277.665C147.812 280.572 157.229 282.232 166.74 282.599C181.721 283.043 196.111 278.776 209.663 272.732C216.685 269.599 223.437 265.948 230.089 262.149C236.536 258.753 242.509 254.523 247.855 249.568C257.514 240.046 264.019 227.564 270.401 215.724C277.842 201.926 281.097 186.253 279.764 170.63C278.425 155.528 274.785 140.72 268.972 126.721C258.65 101.713 239.092 81.6557 214.369 70.7237C201.487 64.8885 187.387 62.2565 173.269 63.0519C157.616 64.5387 142.435 69.2325 128.671 76.8414C104.819 89.4222 82.6427 108.121 71.8011 133.356C66.51 145.291 63.9829 158.27 64.409 171.321C64.9799 178.783 66.0418 186.2 67.5877 193.522C68.7149 200.736 70.2282 207.883 72.1214 214.934C76.3349 229.612 83.8748 242.217 96.4905 251.048C109.106 259.88 124.235 262.569 139.389 263.383C153.251 263.777 167.079 261.825 180.292 257.61C191.355 254.329 202.739 250.95 212.743 245.005C236.668 230.845 248.496 202.921 246.919 175.736C245.342 148.552 233.958 119.739 212.422 102.595C201.969 93.7772 188.633 89.1306 174.969 89.5456C159.495 90.4336 145.007 97.7107 132.293 106.172C122.239 112.784 113.767 121.535 107.48 131.802C103.723 137.643 100.585 143.86 98.1169 150.353C95.8414 157.143 94.7983 164.286 95.0369 171.444C95.6775 197.913 110.856 223.124 136.925 230.919C149.713 234.743 164.029 233.929 176.867 231.487C189.704 229.044 202.345 223.568 210.722 213.479C229.942 190.315 221.244 155.286 198.402 138.117C193.046 133.954 186.878 130.959 180.296 129.328C173.714 127.696 166.863 127.464 160.185 128.645C154.16 129.975 148.546 132.748 143.825 136.727C139.105 140.705 135.418 145.77 133.081 151.487C128.153 163.082 128.818 176.378 136.999 186.319C141.433 191.473 147.357 195.12 153.952 196.755C160.548 198.391 167.487 197.933 173.811 195.446C187.166 190.019 197.269 173.245 188.595 159.603C181.376 148.453 162.058 144.679 155.307 158.493C150.181 168.977 157.352 185.628 170.485 184.247C172.48 184.191 174.378 183.373 175.789 181.96C177.201 180.547 178.018 178.646 178.074 176.649C178.074 172.875 174.6 168.607 170.485 169.051H170.288Z" fill="#00394C"/>
        <path d="M172.111 271.252C164.669 284.78 162.176 300.484 165.064 315.655C167.528 330.456 174.255 344.615 181.672 357.591C189.335 371.06 198.254 383.764 206.878 396.641C210.747 402.438 214.566 408.259 218.09 414.254C219.765 417.091 221.367 419.952 222.821 422.888C223.437 424.096 224.003 425.354 224.57 426.538L225.014 427.55C225.014 427.353 224.398 425.996 225.014 427.279C225.26 427.945 225.531 428.586 225.777 429.277C226.704 431.681 227.437 434.156 227.97 436.677C227.97 437.195 228.118 437.762 228.241 438.281C227.675 436.159 228.241 437.787 228.241 438.527C228.439 440.797 228.463 443.115 228.438 445.41C228.305 455.239 226.889 465.008 224.225 474.469C218.903 494.203 209.761 512.532 200.792 530.786C191.355 549.88 181.918 568.973 176.275 589.349C170.868 608.695 168.377 628.741 168.883 648.824C169.748 689.357 182.442 728.751 205.4 762.15C208.431 766.467 211.659 770.685 215.01 774.78C216.439 776.188 218.364 776.978 220.369 776.978C222.374 776.978 224.299 776.188 225.728 774.78C227.114 773.333 227.887 771.406 227.887 769.402C227.887 767.398 227.114 765.471 225.728 764.025C207.931 741.598 195.359 715.476 188.931 687.565C182.502 659.654 182.379 630.659 188.571 602.694C193.006 583.256 200.891 565.1 209.638 547.24C218.78 528.394 228.537 509.72 235.387 489.886C238.743 480.281 241.137 470.365 242.533 460.285C243.998 451.396 244.073 442.333 242.754 433.421C240.635 421.703 234.007 410.701 227.749 400.76C219.864 388.179 211.166 376.092 203.108 363.585C198.969 357.122 195.002 350.536 191.429 343.851C189.704 340.594 188.078 337.289 186.501 333.983C186.279 333.515 185.565 331.837 185.737 332.232C185.91 332.627 185.195 330.85 185.023 330.456C184.333 328.704 183.692 326.928 183.076 325.127C181.936 321.747 180.99 318.304 180.242 314.816C179.914 313.27 179.643 311.716 179.429 310.154C179.232 308.97 179.553 311.363 179.429 310.154C179.429 309.808 179.429 309.488 179.429 309.142C179.331 308.156 179.257 307.169 179.208 306.182C179.022 302.767 179.121 299.343 179.503 295.945C179.331 297.45 179.503 295.55 179.651 295.007C179.799 294.465 179.922 293.478 180.095 292.738C180.489 290.987 180.957 289.235 181.524 287.533C181.77 286.768 182.041 286.028 182.312 285.263C182.904 283.635 182.312 285.264 182.731 284.203C183.52 282.46 184.341 280.757 185.195 279.096C190.123 270.561 176.891 262.889 172.086 271.425L172.111 271.252Z" fill="#00394C"/>
        <path d="M222.279 494.277C226.985 457.818 206.583 419.582 174.058 402.758C173.048 402.197 171.925 401.87 170.771 401.8C169.618 401.73 168.463 401.92 167.393 402.355C166.322 402.79 165.363 403.46 164.585 404.316C163.807 405.171 163.23 406.19 162.896 407.297C155.677 425.305 160.432 446.396 170.806 462.233C181.5 478.786 197.343 490.75 212.866 502.418C216.144 504.885 221.343 502.936 223.265 499.704C224.233 497.95 224.489 495.89 223.98 493.951C223.471 492.012 222.235 490.345 220.53 489.294C207.421 479.427 193.672 469.215 184.456 455.425C175.709 442.326 171.57 426.193 177.533 411.343L166.42 415.882C180.359 423.259 191.722 434.713 198.995 448.719C206.267 462.725 209.103 478.617 207.125 494.277C206.608 498.348 210.994 501.875 214.714 501.875C216.713 501.831 218.618 501.017 220.032 499.601C221.446 498.186 222.26 496.279 222.304 494.277H222.279Z" fill="#00394C"/>
        <path d="M195.84 701.343C193.875 685.681 196.719 669.791 203.995 655.787C211.271 641.783 222.633 630.328 236.57 622.947L225.408 618.408C231.395 633.209 227.231 649.391 218.509 662.49C209.293 676.28 195.519 686.517 182.411 696.36C180.723 697.426 179.505 699.095 179.001 701.029C178.498 702.962 178.748 705.014 179.7 706.77C181.598 709.977 186.797 711.95 190.074 709.483C205.622 697.815 221.441 685.851 232.159 669.299C242.41 653.462 247.288 632.296 240.044 614.362C239.714 613.255 239.14 612.237 238.364 611.381C237.588 610.526 236.631 609.856 235.562 609.42C234.493 608.985 233.341 608.795 232.189 608.865C231.037 608.934 229.915 609.262 228.907 609.823C196.357 626.647 175.98 664.883 180.686 701.343C180.742 703.336 181.556 705.233 182.962 706.645C184.368 708.057 186.26 708.878 188.25 708.94C191.946 708.94 196.382 705.438 195.84 701.343Z" fill="#00394C"/>
        <path d="M311.92 331.097H286.59C273.164 331.136 260.298 336.491 250.802 345.993C241.306 355.496 235.951 368.373 235.905 381.815V457.916H311.92C325.346 457.877 338.212 452.522 347.708 443.02C357.204 433.517 362.559 420.64 362.605 407.198V331.097H311.92ZM337.275 386.896V402.117C337.249 410.182 334.037 417.91 328.34 423.613C322.644 429.316 314.925 432.531 306.869 432.557H261.235V415.438H261.383C261.677 414.005 262.455 412.718 263.586 411.793C264.717 410.867 266.132 410.36 267.592 410.356L289.005 407.889L305.095 387.069L267.592 390.054C266.075 390.042 264.612 389.489 263.465 388.495C262.318 387.5 261.562 386.129 261.334 384.627C261.922 376.97 265.371 369.816 270.992 364.591C276.613 359.365 283.995 356.452 291.666 356.431H337.275V386.896Z" fill="#00394C"/>
        <path d="M49.5761 546.895V622.996C49.6216 636.44 54.9761 649.32 64.4715 658.826C73.9669 668.332 86.8325 673.693 100.261 673.739H176.276V597.637C176.237 584.191 170.884 571.308 161.387 561.8C151.891 552.292 139.021 546.934 125.591 546.895H49.5761ZM74.9308 572.254H120.54C128.208 572.275 135.587 575.189 141.204 580.415C146.821 585.641 150.264 592.795 150.847 600.449C150.629 601.951 149.88 603.325 148.736 604.321C147.592 605.317 146.129 605.869 144.613 605.876L107.086 602.892L123.176 623.712L144.613 626.178C146.07 626.181 147.482 626.685 148.613 627.606C149.743 628.526 150.523 629.808 150.822 631.235H150.946V648.355H105.337C97.2786 648.336 89.556 645.122 83.858 639.418C78.16 633.713 74.9503 625.982 74.9308 617.914V572.254Z" fill="#00394C"/>
    </symbol>
</svg>
