<svg width="337" height="71" viewBox="0 0 337 71" fill="none" xmlns="http://www.w3.org/2000/svg">
  <g clip-path="url(#clip0_2855_12471)">
    <path d="M11.3161 36.7858L6.94524 25.2275H-0.0712891L8.36729 45.5661H14.1326L22.5712 25.2275H15.687L11.3161 36.7858Z" fill="#231F20" />
    <path d="M42.5344 45.5661H48.0959L49.1817 42.5842H56.5014L57.5872 45.5661H64.3998L55.9612 25.2275H49.8596L43.1518 41.3882C42.9809 41.4157 42.81 41.4323 42.6006 41.4323C41.4155 41.4323 40.6659 40.8921 40.0927 39.6685L39.0069 37.3315C41.2116 36.3834 42.6006 34.2449 42.6006 31.6378C42.6006 28.3472 40.3959 25.2331 35.2809 25.2331H24.7754V45.5716H31.6211V38.048H32.9108L34.0297 41.4378C35.2148 45.0315 37.5903 45.8086 40.3352 45.8086C40.9581 45.8031 41.7573 45.7205 42.5344 45.5661ZM52.8415 32.2441L54.9746 38.3457H50.7085L52.8415 32.2441ZM33.214 34.074H31.6211V29.3945H33.214C34.84 29.3945 35.788 30.0394 35.788 31.7315C35.7935 33.4291 34.84 34.074 33.214 34.074Z" fill="#231F20" />
    <path d="M72.6406 25.2275H65.7949V45.5661H72.6406V25.2275Z" fill="#231F20" />
    <path d="M91.0111 40.7488H82.8095V37.563H89.319V32.7842H82.8095V30.0394H91.0111V25.2275H75.9639V45.5661H91.0111V40.7488Z" fill="#231F20" />
    <path d="M43.83 49.7114H36.9844V70.05H43.83V49.7114Z" fill="#231F20" />
    <path d="M55.9006 49.7114H47.1533V70.05H55.9006C64.4769 70.05 67.8998 65.4752 67.8998 59.8807C67.8998 54.2862 64.4769 49.7114 55.9006 49.7114ZM55.2226 65.1335H53.999V54.628H55.2226C58.7832 54.628 60.9494 55.813 60.9494 59.8807C60.9494 63.9484 58.7832 65.1335 55.2226 65.1335Z" fill="#231F20" />
    <path d="M91.0219 49.7114L84.5786 65.2382H76.4101V62.0524H82.9196V57.2736H76.4101V54.5287H84.6117V49.7169H69.5645V70.0555H82.5833H84.6172H89.2637L90.3495 67.0736H97.6692L98.755 70.0555H105.568L97.129 49.7169H91.0219V49.7114ZM91.8652 62.8295L93.9983 56.728L96.1314 62.8295H91.8652Z" fill="#231F20" />
    <path d="M187.302 49.623H185.671L188.487 56.1435H189.976L192.798 49.623H191.298L189.287 54.2805L187.302 49.623Z" fill="#231F20" />
    <path d="M195.036 49.623H193.525V56.1435H195.036V49.623Z" fill="#231F20" />
    <path d="M198.921 55.0465C198.138 55.0465 197.317 54.7654 196.771 54.3686L196.259 55.504C196.838 55.9505 197.879 56.2592 198.915 56.2592C200.778 56.2592 201.682 55.3277 201.682 54.2363C201.682 51.8442 197.89 52.671 197.89 51.4694C197.89 51.0615 198.238 50.7253 199.13 50.7253C199.709 50.7253 200.332 50.8907 200.938 51.2379L201.407 50.0914C200.801 49.7111 199.963 49.5127 199.141 49.5127C197.289 49.5127 196.391 50.4332 196.391 51.541C196.391 53.9607 200.183 53.1229 200.183 54.3466C200.178 54.7489 199.814 55.0465 198.921 55.0465Z" fill="#231F20" />
    <path d="M204.406 49.623H202.896V56.1435H204.406V49.623Z" fill="#231F20" />
    <path d="M209.295 49.5127C207.239 49.5127 205.729 50.9458 205.729 52.8859C205.729 54.8206 207.239 56.2592 209.295 56.2592C211.345 56.2592 212.861 54.8316 212.861 52.8859C212.866 50.9347 211.345 49.5127 209.295 49.5127ZM209.295 54.9694C208.132 54.9694 207.255 54.1206 207.255 52.8804C207.255 51.6403 208.132 50.7914 209.295 50.7914C210.458 50.7914 211.334 51.6403 211.334 52.8804C211.334 54.1206 210.463 54.9694 209.295 54.9694Z" fill="#231F20" />
    <path d="M215.678 52.186L218.93 56.1435H220.17V49.623H218.676V53.5805L215.435 49.623H214.189V56.1435H215.678V52.186Z" fill="#231F20" />
    <path d="M230.377 51.9876C230.377 50.527 229.285 49.623 227.544 49.623H224.722V56.1435H226.232V54.3246H227.544H227.621L228.878 56.1435H230.498L229.032 54.049C229.886 53.6853 230.377 52.9687 230.377 51.9876ZM227.461 53.1286H226.232V50.8577H227.461C228.382 50.8577 228.85 51.2766 228.85 51.9931C228.85 52.6986 228.382 53.1286 227.461 53.1286Z" fill="#231F20" />
    <path d="M233.805 49.623L230.9 56.1435H232.444L233.022 54.7435H236.048L236.627 56.1435H238.209L235.293 49.623H233.805ZM233.507 53.6026L234.544 51.1057L235.58 53.6026H233.507Z" fill="#231F20" />
    <path d="M242.04 49.623H239.08V56.1435H242.04C244.173 56.1435 245.634 54.8593 245.634 52.886C245.639 50.9073 244.173 49.623 242.04 49.623ZM241.968 54.9034H240.59V50.8632H241.968C243.264 50.8632 244.112 51.6349 244.112 52.886C244.107 54.1317 243.264 54.9034 241.968 54.9034Z" fill="#231F20" />
    <path d="M248.472 49.623H246.962V56.1435H248.472V49.623Z" fill="#231F20" />
    <path d="M256.013 55.0908L255.043 54.1979C254.607 54.7105 254.056 54.9695 253.4 54.9695C252.182 54.9695 251.317 54.1097 251.317 52.8806C251.317 51.6514 252.182 50.7916 253.4 50.7916C254.051 50.7916 254.602 51.0506 255.043 51.5577L256.013 50.6648C255.396 49.9207 254.459 49.5073 253.329 49.5073C251.3 49.5073 249.79 50.9128 249.79 52.8806C249.79 54.8483 251.3 56.2538 253.318 56.2538C254.459 56.2538 255.401 55.8459 256.013 55.0908Z" fill="#231F20" />
    <path d="M261.96 56.1435H263.542L260.626 49.623H259.132L256.228 56.1435H257.771L258.35 54.7435H261.376L261.96 56.1435ZM258.84 53.6026L259.876 51.1057L260.913 53.6026H258.84Z" fill="#231F20" />
    <path d="M269.186 54.9144H265.917V49.623H264.407V56.1435H269.186V54.9144Z" fill="#231F20" />
    <path d="M271.721 53.4262H274.747V52.2522H271.721V50.8356H275.149V49.623H270.222V56.1435H275.27V54.9309H271.721V53.4262Z" fill="#231F20" />
    <path d="M282.303 49.623H279.481V56.1435H280.992V54.3467H282.303C284.045 54.3467 285.137 53.4427 285.137 51.9876C285.137 50.527 284.045 49.623 282.303 49.623ZM282.221 53.1175H280.992V50.8522H282.221C283.141 50.8522 283.61 51.2711 283.61 51.9876C283.61 52.6986 283.141 53.1175 282.221 53.1175Z" fill="#231F20" />
    <path d="M289.646 49.5127C287.59 49.5127 286.08 50.9458 286.08 52.8859C286.08 54.8206 287.59 56.2592 289.646 56.2592C291.697 56.2592 293.212 54.8316 293.212 52.8859C293.212 50.9347 291.697 49.5127 289.646 49.5127ZM289.646 54.9694C288.483 54.9694 287.607 54.1206 287.607 52.8804C287.607 51.6403 288.483 50.7914 289.646 50.7914C290.809 50.7914 291.686 51.6403 291.686 52.8804C291.686 54.1206 290.809 54.9694 289.646 54.9694Z" fill="#231F20" />
    <path d="M300.382 53.2772V49.6284H298.894V53.2221C298.894 54.4623 298.365 54.9749 297.439 54.9749C296.53 54.9749 295.984 54.4623 295.984 53.2221V49.6284H294.474V53.2772C294.474 55.1954 295.57 56.2591 297.428 56.2591C299.285 56.2536 300.382 55.1954 300.382 53.2772Z" fill="#231F20" />
    <path d="M303.574 54.3299H304.886H304.963L306.219 56.1487H307.84L306.374 54.0543C307.223 53.6905 307.719 52.9739 307.719 51.9984C307.719 50.5377 306.627 49.6338 304.886 49.6338H302.063V56.1543H303.574V54.3299ZM303.574 50.8519H304.803C305.723 50.8519 306.192 51.2708 306.192 51.9873C306.192 52.6928 305.729 53.1228 304.803 53.1228H303.574V50.8519Z" fill="#231F20" />
    <path d="M185.059 63.6006H183.549V70.1211H188.328V68.8864H185.059V63.6006Z" fill="#231F20" />
    <path d="M189.37 63.1323C188.857 63.1323 188.466 63.4851 188.466 64.0252C188.466 64.4166 188.659 64.6977 188.962 64.8245L188.56 66.2961H189.48L190.02 64.9567C190.224 64.4441 190.263 64.2678 190.263 64.0252C190.263 63.4961 189.893 63.1323 189.37 63.1323Z" fill="#231F20" />
    <path d="M193.255 63.6006L190.351 70.1211H191.894L192.473 68.7211H195.499L196.077 70.1211H197.659L194.743 63.6006H193.255ZM192.958 67.5746L193.994 65.0778L195.03 67.5746H192.958Z" fill="#231F20" />
    <path d="M201.639 64.7691C202.289 64.7691 202.84 65.0282 203.281 65.5353L204.251 64.6423C203.634 63.8983 202.697 63.4849 201.567 63.4849C199.533 63.4849 198.028 64.8904 198.028 66.8581C198.028 68.8258 199.539 70.2313 201.556 70.2313C202.691 70.2313 203.634 69.8234 204.246 69.0683L203.276 68.1754C202.84 68.688 202.289 68.9471 201.633 68.9471C200.415 68.9471 199.55 68.0872 199.55 66.8581C199.555 65.629 200.42 64.7691 201.639 64.7691Z" fill="#231F20" />
    <path d="M208.512 64.7691C209.162 64.7691 209.713 65.0282 210.154 65.5353L211.124 64.6423C210.507 63.8983 209.57 63.4849 208.44 63.4849C206.412 63.4849 204.901 64.8904 204.901 66.8581C204.901 68.8258 206.412 70.2313 208.429 70.2313C209.564 70.2313 210.507 69.8234 211.119 69.0683L210.149 68.1754C209.713 68.688 209.162 68.9471 208.506 68.9471C207.288 68.9471 206.423 68.0872 206.423 66.8581C206.428 65.629 207.293 64.7691 208.512 64.7691Z" fill="#231F20" />
    <path d="M214.503 63.0664H215.638L214.382 61.7271H212.816L214.503 63.0664Z" fill="#231F20" />
    <path d="M213.825 67.3982H216.851V66.2242H213.825V64.8077H217.254V63.6006H212.326V70.1211H217.375V68.9085H213.825V67.3982Z" fill="#231F20" />
    <path d="M219.877 65.4416C219.877 65.0337 220.224 64.6975 221.117 64.6975C221.696 64.6975 222.319 64.8628 222.925 65.2101L223.393 64.0636C222.787 63.6833 221.949 63.4849 221.128 63.4849C219.276 63.4849 218.378 64.4053 218.378 65.5132C218.378 67.9329 222.17 67.0951 222.17 68.3187C222.17 68.7211 221.806 69.0187 220.913 69.0187C220.13 69.0187 219.309 68.7376 218.764 68.3408L218.251 69.4762C218.83 69.9227 219.871 70.2313 220.908 70.2313C222.771 70.2313 223.675 69.2998 223.675 68.2085C223.669 65.8164 219.877 66.6431 219.877 65.4416Z" fill="#231F20" />
    <path d="M229.225 63.6006H227.715V70.1211H229.225V63.6006Z" fill="#231F20" />
    <path d="M235.448 67.5581L232.202 63.6006H230.956V70.1211H232.444V66.1581L235.696 70.1211H236.936V63.6006H235.448V67.5581Z" fill="#231F20" />
    <path d="M241.875 64.7691C242.525 64.7691 243.076 65.0282 243.517 65.5353L244.487 64.6423C243.87 63.8983 242.933 63.4849 241.803 63.4849C239.775 63.4849 238.265 64.8904 238.265 66.8581C238.265 68.8258 239.775 70.2313 241.792 70.2313C242.928 70.2313 243.87 69.8234 244.482 69.0683L243.512 68.1754C243.076 68.688 242.525 68.9471 241.869 68.9471C240.651 68.9471 239.786 68.0872 239.786 66.8581C239.786 65.629 240.651 64.7691 241.875 64.7691Z" fill="#231F20" />
    <path d="M247.194 63.6006H245.684V70.1211H250.462V68.8864H247.194V63.6006Z" fill="#231F20" />
    <path d="M255.776 67.1943C255.776 68.4344 255.247 68.947 254.321 68.947C253.406 68.947 252.866 68.4344 252.866 67.1943V63.6006H251.355V67.2494C251.355 69.1675 252.452 70.2313 254.31 70.2313C256.162 70.2313 257.264 69.1675 257.264 67.2494V63.6006H255.776V67.1943Z" fill="#231F20" />
    <path d="M260.059 65.4416C260.059 65.0337 260.406 64.6975 261.299 64.6975C261.878 64.6975 262.5 64.8628 263.107 65.2101L263.575 64.0636C262.969 63.6833 262.131 63.4849 261.31 63.4849C259.458 63.4849 258.559 64.4053 258.559 65.5132C258.559 67.9329 262.352 67.0951 262.352 68.3187C262.352 68.7211 261.988 69.0187 261.095 69.0187C260.312 69.0187 259.491 68.7376 258.945 68.3408L258.433 69.4762C259.011 69.9227 260.053 70.2313 261.089 70.2313C262.952 70.2313 263.856 69.2998 263.856 68.2085C263.851 65.8164 260.059 66.6431 260.059 65.4416Z" fill="#231F20" />
    <path d="M266.579 63.6006H265.068V70.1211H266.579V63.6006Z" fill="#231F20" />
    <path d="M268.314 70.1211H269.819V67.7455H272.84V66.5329H269.819V64.8077H273.236V63.6006H268.314V70.1211Z" fill="#231F20" />
    <path d="M279.779 63.0664H280.915L279.658 61.7271H278.093L279.779 63.0664Z" fill="#231F20" />
    <path d="M279.322 63.6006L276.417 70.1211H277.96L278.539 68.7211H281.565L282.144 70.1211H283.726L280.81 63.6006H279.322ZM279.024 67.5746L280.06 65.0778L281.097 67.5746H279.024Z" fill="#231F20" />
    <path d="M288.929 63.6006H287.419V70.1211H292.198V68.8864H288.929V63.6006Z" fill="#231F20" />
    <path d="M293.239 63.1323C292.726 63.1323 292.335 63.4851 292.335 64.0252C292.335 64.4166 292.528 64.6977 292.831 64.8245L292.429 66.2961H293.349L293.889 64.9567C294.093 64.4441 294.132 64.2678 294.132 64.0252C294.132 63.4961 293.763 63.1323 293.239 63.1323Z" fill="#231F20" />
    <path d="M296.91 67.3982H299.942V66.2242H296.91V64.8077H300.339V63.6006H295.411V70.1211H300.46V68.9085H296.91V67.3982Z" fill="#231F20" />
    <path d="M307.939 63.6006L305.536 67.6518L303.094 63.6006H301.849V70.1211H303.265V66.2904L305.172 69.4266H305.856L307.774 66.2077L307.779 70.1211H309.196L309.179 63.6006H307.939Z" fill="#231F20" />
    <path d="M313.755 63.6006H310.933V70.1211H312.443V68.3242H313.755C315.496 68.3242 316.588 67.4203 316.588 65.9651C316.588 64.5045 315.496 63.6006 313.755 63.6006ZM313.672 67.0896H312.443V64.8242H313.672C314.592 64.8242 315.061 65.2431 315.061 65.9596C315.055 66.6707 314.592 67.0896 313.672 67.0896Z" fill="#231F20" />
    <path d="M319.354 63.6006H317.844V70.1211H322.623V68.8864H319.354V63.6006Z" fill="#231F20" />
    <path d="M326.702 63.4849C324.646 63.4849 323.136 64.9179 323.136 66.8581C323.136 68.7927 324.646 70.2313 326.702 70.2313C328.752 70.2313 330.268 68.8038 330.268 66.8581C330.274 64.9124 328.752 63.4849 326.702 63.4849ZM326.702 68.9471C325.539 68.9471 324.663 68.0983 324.663 66.8581C324.663 65.6179 325.539 64.7691 326.702 64.7691C327.865 64.7691 328.741 65.6179 328.741 66.8581C328.741 68.0983 327.87 68.9471 326.702 68.9471Z" fill="#231F20" />
    <path d="M333.106 63.6006H331.596V70.1211H333.106V63.6006Z" fill="#231F20" />
    <path d="M202.598 18.7012H201.088V25.2216H202.598V18.7012Z" fill="#231F20" />
    <path d="M206.004 21.2587L209.256 25.2216H210.496V18.7012H209.008V22.6587L205.761 18.7012H204.516V25.2216H206.004V21.2587Z" fill="#231F20" />
    <path d="M215.54 25.3319C216.675 25.3319 217.618 24.924 218.23 24.1689L217.26 23.276C216.824 23.7886 216.273 24.0477 215.617 24.0477C214.399 24.0477 213.534 23.1878 213.534 21.9587C213.534 20.7295 214.399 19.8697 215.617 19.8697C216.267 19.8697 216.819 20.1288 217.26 20.6358L218.23 19.7429C217.612 18.9988 216.675 18.5854 215.545 18.5854C213.517 18.5854 212.007 19.991 212.007 21.9587C212.007 23.9264 213.517 25.3319 215.54 25.3319Z" fill="#231F20" />
    <path d="M224.397 23.9925H221.128V18.7012H219.618V25.2216H224.397V23.9925Z" fill="#231F20" />
    <path d="M228.432 25.3319C230.284 25.3319 231.386 24.2681 231.386 22.35V18.7012H229.898V22.2949C229.898 23.535 229.369 24.0476 228.443 24.0476C227.533 24.0476 226.988 23.535 226.988 22.2949V18.7012H225.478V22.35C225.478 24.2681 226.574 25.3319 228.432 25.3319Z" fill="#231F20" />
    <path d="M235.399 24.1193C234.616 24.1193 233.795 23.8382 233.249 23.4414L232.736 24.5768C233.315 25.0232 234.357 25.3319 235.393 25.3319C237.256 25.3319 238.16 24.4004 238.16 23.3091C238.16 20.9169 234.368 21.7437 234.368 20.5421C234.368 20.1343 234.715 19.798 235.608 19.798C236.187 19.798 236.81 19.9634 237.416 20.3106L237.884 19.1642C237.278 18.7839 236.44 18.5854 235.619 18.5854C233.767 18.5854 232.869 19.5059 232.869 20.6138C232.869 23.0335 236.661 22.1957 236.661 23.4193C236.655 23.8217 236.291 24.1193 235.399 24.1193Z" fill="#231F20" />
    <path d="M241.076 18.7012H239.565V25.2216H241.076V18.7012Z" fill="#231F20" />
    <path d="M246.4 25.2216L249.222 18.7012H247.723L245.711 23.3587L243.727 18.7012H242.096L244.912 25.2216H246.4Z" fill="#231F20" />
    <path d="M255.186 24.009H251.636V22.4988H254.662V21.3248H251.636V19.9083H255.064V18.7012H250.137V25.2216H255.186V24.009Z" fill="#231F20" />
    <path d="M266.325 21.9586C266.325 19.9854 264.859 18.7012 262.731 18.7012H259.771V25.2216H262.731C264.864 25.2216 266.325 23.9374 266.325 21.9586ZM261.276 23.9815V19.9413H262.654C263.949 19.9413 264.798 20.713 264.798 21.9642C264.798 23.2098 263.949 23.987 262.654 23.987H261.276V23.9815Z" fill="#231F20" />
    <path d="M272.885 24.009H269.335V22.4988H272.361V21.3248H269.335V19.9083H272.763V18.7012H267.836V25.2216H272.885V24.009Z" fill="#231F20" />
    <path d="M276.61 24.1193C275.828 24.1193 275.007 23.8382 274.461 23.4414L273.948 24.5768C274.527 25.0232 275.569 25.3319 276.605 25.3319C278.468 25.3319 279.372 24.4004 279.372 23.3091C279.372 20.9169 275.58 21.7437 275.58 20.5421C275.58 20.1343 275.927 19.798 276.82 19.798C277.399 19.798 278.021 19.9634 278.628 20.3106L279.096 19.1642C278.49 18.7839 277.652 18.5854 276.831 18.5854C274.979 18.5854 274.081 19.5059 274.081 20.6138C274.081 23.0335 277.873 22.1957 277.873 23.4193C277.867 23.8217 277.509 24.1193 276.61 24.1193Z" fill="#231F20" />
    <path d="M282.288 18.7012H280.777V25.2216H282.288V18.7012Z" fill="#231F20" />
    <path d="M287.353 25.3319C288.284 25.3319 289.271 25.0453 289.987 24.5051V21.8595H288.609V23.7666C288.229 23.9705 287.843 24.0477 287.435 24.0477C286.184 24.0477 285.319 23.1823 285.319 21.9587C285.319 20.7185 286.184 19.8697 287.452 19.8697C288.113 19.8697 288.664 20.1012 289.138 20.6028L290.109 19.7099C289.475 18.9768 288.527 18.5854 287.38 18.5854C285.302 18.5854 283.792 19.991 283.792 21.9587C283.792 23.9264 285.302 25.3319 287.353 25.3319Z" fill="#231F20" />
    <path d="M293.25 21.2587L296.502 25.2216H297.742V18.7012H296.248V22.6587L293.007 18.7012H291.762V25.2216H293.25V21.2587Z" fill="#231F20" />
    <path d="M304.175 22.8461H307.195V21.6335H304.175V19.9083H307.597V18.7012H302.67V25.2216H304.175V22.8461Z" fill="#231F20" />
    <path d="M312.085 25.3319C314.135 25.3319 315.651 23.9043 315.651 21.9587C315.651 20.013 314.13 18.5854 312.085 18.5854C310.029 18.5854 308.519 20.0185 308.519 21.9587C308.519 23.8988 310.029 25.3319 312.085 25.3319ZM312.085 19.8752C313.248 19.8752 314.124 20.724 314.124 21.9642C314.124 23.2043 313.248 24.0532 312.085 24.0532C310.922 24.0532 310.045 23.2043 310.045 21.9642C310.045 20.7185 310.922 19.8752 312.085 19.8752Z" fill="#231F20" />
    <path d="M322.815 21.0657C322.815 19.6051 321.724 18.7012 319.982 18.7012H317.16V25.2216H318.67V23.4027H319.982H320.059L321.316 25.2216H322.937L321.47 23.1272C322.325 22.7634 322.815 22.0413 322.815 21.0657ZM319.9 22.2012H318.67V19.9303H319.9C320.82 19.9303 321.288 20.3492 321.288 21.0657C321.288 21.7713 320.826 22.2012 319.9 22.2012Z" fill="#231F20" />
    <path d="M203.006 32.3322V31.1196H198.078V37.6401H203.127V36.433H199.583V34.9228H202.609V33.7488H199.583V32.3322H203.006Z" fill="#231F20" />
    <path d="M206.12 33.8149L208.027 36.9511H208.705L210.628 33.7267L210.634 37.6401H212.05L212.034 31.1196H210.794L208.391 35.1763L205.949 31.1196H204.703V37.6401H206.12V33.8149Z" fill="#231F20" />
    <path d="M213.974 31.1196V37.6401H215.484V35.8433H216.796C218.537 35.8433 219.629 34.9393 219.629 33.4842C219.629 32.0236 218.537 31.1196 216.796 31.1196H213.974ZM218.096 33.4897C218.096 34.1952 217.633 34.6141 216.708 34.6141H215.478V32.3488H216.708C217.633 32.3488 218.096 32.7677 218.096 33.4897Z" fill="#231F20" />
    <path d="M221.073 31.1196V37.6401H225.852V36.411H222.578V31.1196H221.073Z" fill="#231F20" />
    <path d="M226.552 34.3825C226.552 36.3172 228.062 37.7557 230.118 37.7557C232.168 37.7557 233.684 36.3282 233.684 34.3825C233.684 32.4368 232.163 31.0093 230.118 31.0093C228.056 31.0093 226.552 32.4423 226.552 34.3825ZM232.157 34.3825C232.157 35.6227 231.281 36.4715 230.118 36.4715C228.955 36.4715 228.079 35.6227 228.079 34.3825C228.079 33.1423 228.955 32.2935 230.118 32.2935C231.281 32.2935 232.157 33.1423 232.157 34.3825Z" fill="#231F20" />
    <path d="M235.614 31.1196H234.01L236.534 35.3141V37.6401H238.044V35.3307L240.58 31.1196H239.097L237.355 34.0188L235.614 31.1196Z" fill="#231F20" />
    <path d="M242.933 33.8149L244.846 36.9511H245.524L247.448 33.7267L247.453 37.6401H248.87L248.853 31.1196H247.613L245.21 35.1763L242.768 31.1196H241.522V37.6401H242.933V33.8149Z" fill="#231F20" />
    <path d="M255.715 32.3322V31.1196H250.787V37.6401H255.836V36.433H252.292V34.9228H255.318V33.7488H252.292V32.3322H255.715Z" fill="#231F20" />
    <path d="M258.9 33.6826L262.152 37.6401H263.392V31.1196H261.899V35.0826L258.658 31.1196H257.412V37.6401H258.9V33.6826Z" fill="#231F20" />
    <path d="M268.172 37.6401V32.3488H270.261V31.1196H264.578V32.3488H266.662V37.6401H268.172Z" fill="#231F20" />
    <path d="M279.322 37.6401H280.904L277.988 31.1196H276.495L273.59 37.6401H275.133L275.712 36.2401H278.738L279.322 37.6401ZM276.202 35.0992L277.239 32.6023L278.275 35.0992H276.202Z" fill="#231F20" />
    <path d="M284.988 37.7557C286.124 37.7557 287.066 37.3479 287.678 36.5927L286.708 35.6998C286.272 36.2124 285.721 36.4715 285.065 36.4715C283.847 36.4715 282.982 35.6116 282.982 34.3825C282.982 33.1534 283.847 32.2935 285.065 32.2935C285.716 32.2935 286.267 32.5526 286.708 33.0597L287.678 32.1668C287.061 31.4227 286.124 31.0093 284.994 31.0093C282.96 31.0093 281.455 32.4148 281.455 34.3825C281.455 36.3447 282.965 37.7557 284.988 37.7557Z" fill="#231F20" />
    <path d="M292.132 32.2935C292.782 32.2935 293.333 32.5526 293.774 33.0597L294.744 32.1668C294.127 31.4227 293.19 31.0093 292.06 31.0093C290.026 31.0093 288.521 32.4148 288.521 34.3825C288.521 36.3502 290.032 37.7557 292.049 37.7557C293.184 37.7557 294.127 37.3479 294.739 36.5927L293.769 35.6998C293.333 36.2124 292.782 36.4715 292.126 36.4715C290.908 36.4715 290.043 35.6116 290.043 34.3825C290.043 33.1534 290.914 32.2935 292.132 32.2935Z" fill="#231F20" />
    <path d="M297.632 34.9228H300.658V33.7488H297.632V32.3322H301.055V31.1196H296.127V37.6401H301.176V36.433H297.632V34.9228Z" fill="#231F20" />
    <path d="M304.902 36.5431C304.12 36.5431 303.299 36.262 302.753 35.8652L302.24 37.0006C302.819 37.4471 303.861 37.7557 304.897 37.7557C306.76 37.7557 307.664 36.8242 307.664 35.7329C307.664 33.3408 303.872 34.1675 303.872 32.966C303.872 32.5581 304.219 32.2219 305.112 32.2219C305.691 32.2219 306.313 32.3872 306.92 32.7345L307.388 31.588C306.782 31.2077 305.944 31.0093 305.123 31.0093C303.271 31.0093 302.373 31.9298 302.373 33.0376C302.373 35.4573 306.165 34.6195 306.165 35.8431C306.159 36.2455 305.801 36.5431 304.902 36.5431Z" fill="#231F20" />
    <path d="M311.219 36.5431C310.436 36.5431 309.615 36.262 309.069 35.8652L308.557 37.0006C309.135 37.4471 310.177 37.7557 311.213 37.7557C313.076 37.7557 313.98 36.8242 313.98 35.7329C313.98 33.3408 310.188 34.1675 310.188 32.966C310.188 32.5581 310.535 32.2219 311.428 32.2219C312.007 32.2219 312.63 32.3872 313.236 32.7345L313.705 31.588C313.098 31.2077 312.261 31.0093 311.439 31.0093C309.587 31.0093 308.689 31.9298 308.689 33.0376C308.689 35.4573 312.481 34.6195 312.481 35.8431C312.476 36.2455 312.112 36.5431 311.219 36.5431Z" fill="#231F20" />
    <path d="M129.743 23.6621H98L120.725 69.9834H132.614L138.898 42.1597L129.743 23.6621Z" fill="#462A73" />
    <path d="M174.209 13.9897C177.298 10.9009 177.298 5.89301 174.209 2.80421C171.12 -0.284592 166.112 -0.284604 163.023 2.8042C159.935 5.893 159.935 10.9009 163.023 13.9897C166.112 17.0785 171.12 17.0785 174.209 13.9897Z" fill="#00977A" />
    <path d="M192.732 6.04137C187.821 11.7406 163.067 38.4618 152.088 11.8398L136.12 70.0555L163.591 69.8571L193.024 6.23979C193.118 6.04688 192.87 5.88153 192.732 6.04137Z" fill="#00977A" />
  </g>
  <defs>
    <clipPath id="clip0_2855_12471">
      <rect width="336.22" height="71" />
    </clipPath>
  </defs>
</svg>
