<svg width="169" height="132" viewBox="0 0 169 132" fill="none" xmlns="http://www.w3.org/2000/svg">
<path opacity="0.75" d="M60 120C93.1371 120 120 93.1371 120 60C120 26.8629 93.1371 0 60 0C26.8629 0 0 26.8629 0 60C0 93.1371 26.8629 120 60 120Z" fill="var(--fl-fgColor, #BCDCA9)"/>
<path d="M92.9187 64.7627L86.1293 57.6799L93.8071 50.0021L100.89 56.7915L107.612 54.0591L107.731 44.3373L118.691 44.4428L118.993 54.1664L125.765 57.0235L132.727 50.3653L140.551 58.189L133.889 65.1473L136.746 71.9187L146.469 72.221L146.575 83.1811L136.853 83.2997L134.121 90.0222L140.914 97.1092L133.236 104.787L126.149 97.9934L119.427 100.726L119.308 110.448L108.348 110.342L108.046 100.618L101.275 97.7614L94.3162 104.424L86.4925 96.6001L93.1507 89.6376L90.2936 82.8661L80.57 82.5639L80.4645 71.6037L90.1863 71.4851L92.9187 64.7627Z" stroke="var(--fl-fgColor, #003749)" stroke-width="3" stroke-linejoin="round"/>
<path d="M108.853 64.5612C107.062 65.2661 105.383 66.3415 103.93 67.7944C98.3863 73.3384 98.281 82.2176 103.698 87.6344C109.115 93.0513 117.994 92.9459 123.538 87.4019C129.082 81.8579 129.187 72.9787 123.77 67.5618C122.482 66.2733 120.995 65.2949 119.403 64.6293" stroke="var(--fl-fgColor, #003749)" stroke-width="3" stroke-linejoin="round"/>
<path d="M69.468 32.4684L85.1704 48.1708" stroke="var(--fl-fgColor, #003749)" stroke-width="3" stroke-linejoin="round"/>
<path d="M69.4683 25.4893C71.3952 27.4163 71.3971 30.5394 69.4683 32.4682C67.5394 34.397 64.4164 34.3952 62.4894 32.4682C60.5624 30.5412 60.5606 27.4182 62.4894 25.4893C64.4182 23.5605 67.5413 23.5624 69.4683 25.4893Z" stroke="var(--fl-fgColor, #003749)" stroke-width="3" stroke-linejoin="round"/>
<path d="M69.468 121.448L86.0427 104.874" stroke="var(--fl-fgColor, #003749)" stroke-width="3" stroke-linejoin="round"/>
<path d="M157.576 120.576L141.874 104.874" stroke="var(--fl-fgColor, #003749)" stroke-width="3" stroke-linejoin="round"/>
<path d="M157.576 127.555C155.649 125.628 155.647 122.505 157.576 120.576C159.505 118.647 162.628 118.649 164.555 120.576C166.482 122.503 166.484 125.626 164.555 127.555C162.626 129.484 159.503 129.482 157.576 127.555Z" stroke="var(--fl-fgColor, #003749)" stroke-width="3" stroke-linejoin="round"/>
<path d="M63.6193 128.511C61.6923 126.584 61.6905 123.461 63.6193 121.532C65.5481 119.603 68.6711 119.605 70.5981 121.532C72.5251 123.459 72.527 126.582 70.5981 128.511C68.6693 130.439 65.5463 130.438 63.6193 128.511Z" stroke="var(--fl-fgColor, #003749)" stroke-width="3" stroke-linejoin="round"/>
<path d="M158.532 32.4682C156.605 30.5412 156.603 27.4182 158.532 25.4893C160.461 23.5605 163.584 23.5624 165.511 25.4893C167.438 27.4163 167.44 30.5394 165.511 32.4682C163.582 34.397 160.459 34.3952 158.532 32.4682Z" stroke="var(--fl-fgColor, #003749)" stroke-width="3" stroke-linejoin="round"/>
<path d="M157.576 33.3407L141.001 49.9154" stroke="var(--fl-fgColor, #003749)" stroke-width="3" stroke-linejoin="round"/>
</svg>
