<svg width="172" height="120" viewBox="0 0 172 120" fill="none" xmlns="http://www.w3.org/2000/svg">
<path opacity="0.75" d="M60 120C93.1371 120 120 93.1371 120 60C120 26.8629 93.1371 0 60 0C26.8629 0 0 26.8629 0 60C0 93.1371 26.8629 120 60 120Z" fill="var(--fl-fgColor, #A9CCDC)"/>
<path d="M129.116 46.0684C131.378 47.9906 133.623 50.0595 135.826 52.2656C138.029 54.4716 140.091 56.7201 142.007 58.9882C144.575 62.0231 146.876 65.0874 148.892 68.1257C152.394 73.396 155.031 78.5783 156.692 83.3624C159.714 92.0463 159.505 99.4085 155.357 103.573C151.209 107.73 143.863 107.939 135.199 104.914C130.431 103.25 125.259 100.6 120.002 97.0915C116.97 95.0682 113.912 92.761 110.887 90.1862C108.625 88.264 106.38 86.195 104.177 83.989C101.975 81.7829 99.9121 79.5312 97.9998 77.2631C95.4315 74.2315 93.1308 71.1671 91.1141 68.1289C87.6124 62.8585 84.9724 57.673 83.3113 52.8889C80.2927 44.205 80.5015 36.8428 84.6493 32.682C88.797 28.5244 96.1397 28.3156 104.804 31.3407C109.575 33.0051 114.748 35.6549 120.005 39.1631C123.037 41.1864 126.094 43.4936 129.116 46.0684Z" stroke="var(--fl-fgColor, #104170)" stroke-width="3" stroke-miterlimit="10"/>
<path d="M110.887 46.0686C113.84 45.8238 116.888 45.6965 120.002 45.6965C123.115 45.6965 126.16 45.8238 129.113 46.0686C133.068 46.3949 136.86 46.9301 140.43 47.6513C146.618 48.8914 152.143 50.6863 156.692 52.8923C164.948 56.89 170 62.2419 170 68.1291C170 74.0162 164.948 79.3682 156.692 83.3658C152.143 85.5719 146.621 87.3667 140.43 88.6068C136.86 89.328 133.068 89.8632 129.113 90.1896C126.16 90.4343 123.112 90.5616 120.002 90.5616C116.892 90.5616 113.84 90.4343 110.887 90.1896C106.932 89.8632 103.14 89.328 99.5728 88.6101C93.3854 87.3635 87.8605 85.5719 83.3081 83.3658C75.0485 79.3682 70 74.0162 70 68.1291C70 62.2419 75.0485 56.89 83.3081 52.889C87.8605 50.6863 93.3822 48.8914 99.5728 47.648C103.14 46.9301 106.932 46.3949 110.887 46.0686Z" stroke="var(--fl-fgColor, #104170)" stroke-width="3" stroke-miterlimit="10"/>
<path d="M97.9998 58.9916C99.9121 56.7235 101.978 54.4751 104.177 52.269C106.38 50.063 108.625 47.994 110.887 46.0718C113.915 43.497 116.973 41.1898 120.002 39.1665C125.256 35.6584 130.428 33.0085 135.199 31.3442C143.86 28.319 151.209 28.5279 155.357 32.6854C159.505 36.843 159.714 44.2084 156.692 52.8956C155.031 57.6797 152.391 62.862 148.892 68.1323C146.876 71.1706 144.572 74.2349 142.007 77.2666C140.091 79.5346 138.025 81.7864 135.826 83.9924C133.623 86.1985 131.378 88.2674 129.116 90.1896C126.091 92.7644 123.033 95.0716 120.005 97.0949C114.748 100.603 109.582 103.253 104.807 104.917C96.1462 107.942 88.797 107.737 84.6493 103.576C80.5015 99.4184 80.2927 92.053 83.3113 83.3658C84.9724 78.585 87.6124 73.3994 91.1141 68.1291C93.1276 65.0909 95.4348 62.0265 97.9998 58.9916Z" stroke="var(--fl-fgColor, #104170)" stroke-width="3" stroke-miterlimit="10"/>
<path d="M98 77.2631C97.7552 74.3032 97.6279 71.2454 97.6279 68.1289C97.6279 65.0124 97.7552 61.9513 98 58.9914C98.3263 55.0264 98.8582 51.2246 99.5729 47.6479C100.816 41.4442 102.605 35.9062 104.801 31.3407C108.792 23.0615 114.131 18 120.002 18C125.873 18 131.211 23.0615 135.199 31.3407C137.402 35.9029 139.19 41.4409 140.431 47.6511C141.145 51.2278 141.68 55.0264 142.003 58.9914C142.248 61.9513 142.376 65.0091 142.376 68.1289C142.376 71.2487 142.248 74.3032 142.003 77.2631C141.677 81.2281 141.145 85.03 140.431 88.6067C139.187 94.8136 137.399 100.355 135.199 104.917C131.208 113.193 125.869 118.255 120.002 118.255C114.134 118.255 108.795 113.193 104.804 104.917C102.601 100.358 100.813 94.8202 99.5729 88.6099C98.8582 85.03 98.323 81.2314 98 77.2631Z" stroke="var(--fl-fgColor, #104170)" stroke-width="3" stroke-miterlimit="10"/>
<path d="M110.773 57.5295H129.234" stroke="var(--fl-fgColor, #104170)" stroke-width="3" stroke-miterlimit="10"/>
<path d="M110.773 62.8291H129.234" stroke="var(--fl-fgColor, #104170)" stroke-width="3" stroke-miterlimit="10"/>
<path d="M110.773 68.1289H129.234" stroke="var(--fl-fgColor, #104170)" stroke-width="3" stroke-miterlimit="10"/>
<path d="M110.773 73.4287H129.234" stroke="var(--fl-fgColor, #104170)" stroke-width="3" stroke-miterlimit="10"/>
<path d="M110.773 78.7283H129.234" stroke="var(--fl-fgColor, #104170)" stroke-width="3" stroke-miterlimit="10"/>
</svg>
