<svg width="841" height="377" viewBox="0 0 841 377" fill="none" xmlns="http://www.w3.org/2000/svg">
<rect width="841" height="377" fill="#F1EDD9"/>
<path opacity="0.75" d="M313 376C394.186 376 460 310.186 460 229C460 147.814 394.186 82 313 82C231.814 82 166 147.814 166 229C166 310.186 231.814 376 313 376Z" fill="#FFDD00" fill-opacity="0.6"/>
<path opacity="0.5" fill-rule="evenodd" clip-rule="evenodd" d="M44.0018 0C23.3708 25.2227 11 57.4216 11 92.5C11 173.41 76.8141 239 158 239C239.186 239 305 173.41 305 92.5C305 57.4216 292.629 25.2227 271.998 0H44.0018Z" fill="#801D7F" fill-opacity="0.6"/>
<path fill-rule="evenodd" clip-rule="evenodd" d="M197.502 0C159.136 26.5254 134 70.8273 134 121C134 202.186 199.814 268 281 268C362.186 268 428 202.186 428 121C428 70.8273 402.864 26.5254 364.498 0H197.502Z" fill="#69B5B1" fill-opacity="0.6"/>
<path fill-rule="evenodd" clip-rule="evenodd" d="M0 322.863C26.9634 354.764 67.1344 375 112 375C193.186 375 259 308.738 259 227C259 145.262 193.186 79 112 79C67.1344 79 26.9634 99.2362 0 131.137V322.863Z" fill="#E44F50" fill-opacity="0.6"/>
<path opacity="0.5" fill-rule="evenodd" clip-rule="evenodd" d="M86.5863 377H334.414C349.336 354.102 358 326.806 358 297.5C358 216.59 291.962 151 210.5 151C129.038 151 63 216.59 63 297.5C63 326.806 71.6638 354.102 86.5863 377Z" fill="#8DC63F" fill-opacity="0.6"/>
<path d="M522 173.093V172.58L523.157 172.408C523.566 172.34 523.918 172.214 524.213 172.031C524.53 171.826 524.825 171.312 525.098 170.49L532.689 148.124H537.625L545.387 170.422C545.636 171.152 545.863 171.643 546.068 171.894C546.295 172.123 546.68 172.283 547.225 172.374L548.28 172.58V173.093H535.821V172.58L537.115 172.408C537.659 172.363 537.977 172.214 538.068 171.963C538.181 171.689 538.136 171.198 537.932 170.49L536.195 164.667H528.025L526.187 170.422C525.983 171.107 525.972 171.598 526.153 171.894C526.357 172.168 526.732 172.34 527.276 172.408L528.842 172.58V173.093H522ZM528.332 163.948H535.957L532.281 152.2H532.213L528.332 163.948Z" fill="var(--fl-fgColor, #003749)"/>
<path d="M549.432 173.093V172.58L550.76 172.511C551.191 172.465 551.475 172.328 551.611 172.1C551.747 171.849 551.815 171.358 551.815 170.627V150.213C551.815 149.642 551.736 149.254 551.577 149.048C551.441 148.843 551.123 148.717 550.624 148.672L549.432 148.637V148.124H561.245V148.637L559.951 148.706C559.543 148.729 559.259 148.866 559.1 149.117C558.941 149.345 558.862 149.779 558.862 150.418V170.764C558.862 171.426 558.941 171.872 559.1 172.1C559.282 172.328 559.588 172.465 560.019 172.511L561.245 172.58V173.093H549.432Z" fill="var(--fl-fgColor, #003749)"/>
<path d="M571.099 173.093V172.58L572.324 172.477C572.664 172.454 572.88 172.34 572.971 172.134C573.084 171.929 573.141 171.541 573.141 170.97V157.988C573.141 157.303 573.062 156.812 572.903 156.515C572.767 156.218 572.438 156.047 571.916 156.002L570.826 155.899L570.894 155.385L579.609 155.008L579.881 155.248V170.97C579.881 171.541 579.938 171.929 580.052 172.134C580.188 172.317 580.449 172.431 580.835 172.477L581.89 172.614V173.093H571.099ZM576.171 152.576C574.9 152.576 573.924 152.291 573.243 151.72C572.562 151.126 572.222 150.304 572.222 149.254C572.222 148.249 572.551 147.461 573.209 146.891C573.89 146.297 574.877 146 576.171 146C577.532 146 578.531 146.285 579.166 146.856C579.802 147.427 580.12 148.226 580.12 149.254C580.12 150.281 579.779 151.092 579.098 151.686C578.418 152.28 577.442 152.576 576.171 152.576Z" fill="var(--fl-fgColor, #003749)"/>
<path d="M583.597 173.093V172.58L584.788 172.477C585.106 172.454 585.31 172.34 585.401 172.134C585.514 171.929 585.571 171.541 585.571 170.97V157.988C585.571 157.303 585.492 156.812 585.333 156.515C585.197 156.218 584.879 156.047 584.38 156.002L583.29 155.899L583.324 155.385L591.835 155.008L592.073 155.248L592.039 158.776H592.073C592.55 157.452 593.276 156.458 594.252 155.796C595.25 155.111 596.442 154.768 597.826 154.768C599.097 154.768 600.164 155.02 601.026 155.522C601.911 156.002 602.581 156.721 603.035 157.68C603.489 158.616 603.715 159.815 603.715 161.276V171.004C603.715 171.575 603.784 171.963 603.92 172.168C604.056 172.351 604.34 172.465 604.771 172.511L605.724 172.58V173.093H595.341V172.614L596.192 172.511C596.533 172.465 596.748 172.351 596.839 172.168C596.952 171.963 597.009 171.575 597.009 171.004V160.763C597.009 159.621 596.952 158.765 596.839 158.194C596.748 157.623 596.555 157.235 596.26 157.029C595.988 156.824 595.613 156.721 595.137 156.721C594.615 156.721 594.138 156.915 593.707 157.303C593.276 157.668 592.924 158.159 592.652 158.776C592.402 159.393 592.277 160.089 592.277 160.865V170.97C592.277 171.563 592.323 171.952 592.414 172.134C592.504 172.317 592.697 172.431 592.992 172.477L593.945 172.614V173.093H583.597Z" fill="var(--fl-fgColor, #003749)"/>
<path d="M615.056 173.093V172.58L616.384 172.511C616.815 172.465 617.098 172.328 617.235 172.1C617.371 171.849 617.439 171.358 617.439 170.627V150.213C617.439 149.642 617.359 149.254 617.201 149.048C617.064 148.843 616.747 148.717 616.247 148.672L615.056 148.637V148.124H632.349L633.336 154.597L632.758 154.734C632.236 153.456 631.748 152.428 631.294 151.652C630.84 150.852 630.363 150.247 629.864 149.836C629.388 149.425 628.854 149.151 628.264 149.014C627.674 148.854 626.993 148.774 626.222 148.774H624.486V159.975H626.63C627.129 159.975 627.527 159.883 627.822 159.701C628.139 159.518 628.4 159.187 628.605 158.707C628.809 158.228 629.036 157.554 629.285 156.687L629.83 156.618V164.222L629.285 164.291C629.081 163.377 628.866 162.658 628.639 162.133C628.434 161.607 628.173 161.231 627.856 161.002C627.561 160.751 627.164 160.626 626.664 160.626H624.486V172.443H627.039C627.81 172.443 628.48 172.363 629.047 172.203C629.615 172.02 630.125 171.712 630.579 171.278C631.033 170.821 631.475 170.205 631.907 169.428C632.361 168.629 632.826 167.602 633.302 166.346H633.915L633.268 173.093H615.056Z" fill="var(--fl-fgColor, #003749)"/>
<path d="M643.685 173.573C642.165 173.573 640.826 173.265 639.668 172.648C638.511 172.009 637.614 171.038 636.979 169.737C636.343 168.412 636.026 166.734 636.026 164.702C636.026 162.669 636.378 160.911 637.081 159.427C637.807 157.943 638.851 156.801 640.213 156.002C641.575 155.18 643.209 154.768 645.115 154.768C645.796 154.768 646.443 154.86 647.055 155.043C647.691 155.202 648.281 155.431 648.826 155.728V149.391C648.826 148.82 648.735 148.42 648.553 148.192C648.372 147.941 648.043 147.793 647.566 147.747L646.477 147.644L646.511 147.13L655.327 146.788L655.566 147.028V170.935C655.566 171.483 655.623 171.872 655.736 172.1C655.849 172.328 656.122 172.465 656.553 172.511L657.608 172.58V173.093L649.779 173.402L649.166 170.285H649.03C648.735 170.901 648.349 171.461 647.872 171.963C647.396 172.465 646.806 172.854 646.102 173.128C645.421 173.424 644.616 173.573 643.685 173.573ZM646.204 171.381C646.635 171.381 647.044 171.278 647.43 171.072C647.838 170.867 648.167 170.513 648.417 170.011C648.689 169.508 648.826 168.812 648.826 167.921V156.755C648.394 156.39 647.929 156.116 647.43 155.933C646.953 155.728 646.488 155.625 646.034 155.625C645.353 155.625 644.797 155.899 644.366 156.447C643.935 156.972 643.617 157.828 643.413 159.016C643.209 160.203 643.106 161.813 643.106 163.845C643.106 165.695 643.231 167.179 643.481 168.298C643.731 169.394 644.082 170.182 644.536 170.661C644.99 171.141 645.546 171.381 646.204 171.381Z" fill="var(--fl-fgColor, #003749)"/>
<path d="M666.083 173.573C664.177 173.573 662.713 173.036 661.691 171.963C660.67 170.89 660.16 169.257 660.16 167.065V157.543C660.16 156.904 660.092 156.481 659.955 156.276C659.819 156.047 659.535 155.91 659.104 155.865L658.185 155.796L658.219 155.317L666.559 155.008L666.866 155.248V167.613C666.866 168.709 666.923 169.554 667.036 170.148C667.15 170.718 667.342 171.107 667.615 171.312C667.887 171.518 668.262 171.62 668.738 171.62C669.237 171.62 669.68 171.438 670.066 171.072C670.474 170.707 670.792 170.216 671.019 169.6C671.269 168.983 671.393 168.298 671.393 167.544V157.577C671.393 157.052 671.337 156.652 671.223 156.378C671.11 156.081 670.849 155.91 670.44 155.865L669.521 155.796L669.555 155.317L677.793 155.008L678.1 155.248V170.49C678.1 171.13 678.168 171.598 678.304 171.894C678.463 172.168 678.792 172.328 679.291 172.374L680.38 172.477L680.346 172.991L672.449 173.367L671.598 169.942H671.53C671.212 170.787 670.803 171.483 670.304 172.031C669.805 172.557 669.215 172.945 668.534 173.196C667.853 173.447 667.036 173.573 666.083 173.573Z" fill="var(--fl-fgColor, #003749)"/>
<path d="M691.023 173.573C689.14 173.573 687.517 173.219 686.155 172.511C684.816 171.78 683.784 170.753 683.058 169.428C682.331 168.081 681.968 166.483 681.968 164.633C681.968 162.761 682.365 161.082 683.16 159.598C683.954 158.091 685.111 156.915 686.632 156.07C688.152 155.202 690.002 154.768 692.181 154.768C693.656 154.768 694.915 155.02 695.959 155.522C697.003 156.002 697.798 156.63 698.342 157.406C698.887 158.159 699.159 158.97 699.159 159.838C699.159 160.272 699.057 160.717 698.853 161.174C698.649 161.607 698.32 161.984 697.866 162.304C697.435 162.601 696.867 162.749 696.164 162.749C695.347 162.749 694.7 162.567 694.223 162.201C693.769 161.813 693.542 161.311 693.542 160.694C693.542 160.26 693.667 159.735 693.917 159.118C694.167 158.502 694.654 157.623 695.381 156.481C695.018 156.161 694.564 155.91 694.019 155.728C693.497 155.545 692.964 155.454 692.419 155.454C691.693 155.454 691.057 155.693 690.513 156.173C689.991 156.652 689.582 157.44 689.287 158.536C688.992 159.609 688.845 161.025 688.845 162.783C688.845 164.953 689.253 166.62 690.07 167.784C690.887 168.949 692.124 169.531 693.781 169.531C694.847 169.531 695.778 169.371 696.572 169.052C697.389 168.709 698.184 168.264 698.955 167.716L699.296 168.058C698.479 169.862 697.389 171.232 696.028 172.168C694.666 173.105 692.998 173.573 691.023 173.573Z" fill="var(--fl-fgColor, #003749)"/>
<path d="M706.056 173.573C704.467 173.573 703.231 173.173 702.345 172.374C701.46 171.575 701.018 170.41 701.018 168.88C701.018 167.647 701.336 166.665 701.971 165.935C702.606 165.204 703.639 164.656 705.069 164.291C706.499 163.925 708.439 163.674 710.89 163.537V159.05C710.89 158.182 710.799 157.497 710.618 156.995C710.436 156.47 710.13 156.093 709.699 155.865C709.29 155.613 708.745 155.488 708.065 155.488C707.52 155.488 706.884 155.602 706.158 155.83C705.455 156.059 704.933 156.344 704.592 156.687C705.25 157.44 705.727 158.045 706.022 158.502C706.34 158.959 706.544 159.324 706.635 159.598C706.726 159.872 706.771 160.123 706.771 160.352C706.771 160.877 706.544 161.345 706.09 161.756C705.659 162.144 705.012 162.338 704.15 162.338C703.197 162.338 702.493 162.11 702.039 161.653C701.585 161.174 701.358 160.58 701.358 159.872C701.358 159.118 701.665 158.354 702.277 157.577C702.89 156.778 703.798 156.116 705.001 155.591C706.204 155.043 707.69 154.768 709.46 154.768C711.117 154.768 712.558 154.985 713.784 155.419C715.009 155.83 715.951 156.55 716.609 157.577C717.267 158.605 717.596 160.043 717.596 161.893V169.908C717.596 170.456 717.687 170.867 717.869 171.141C718.073 171.392 718.357 171.518 718.72 171.518C718.969 171.518 719.196 171.495 719.4 171.449C719.605 171.404 719.82 171.324 720.047 171.209L720.217 171.552C719.559 172.351 718.81 172.888 717.971 173.162C717.154 173.436 716.371 173.573 715.622 173.573C714.306 173.573 713.307 173.287 712.626 172.717C711.945 172.123 711.48 171.346 711.23 170.387C710.958 171.072 710.595 171.655 710.141 172.134C709.71 172.614 709.154 172.968 708.473 173.196C707.815 173.447 707.009 173.573 706.056 173.573ZM709.154 171.312C709.54 171.312 709.857 171.209 710.107 171.004C710.357 170.798 710.55 170.513 710.686 170.148C710.822 169.782 710.89 169.36 710.89 168.88V164.119C710.05 164.165 709.381 164.325 708.882 164.599C708.405 164.85 708.065 165.261 707.86 165.832C707.679 166.403 707.588 167.179 707.588 168.161C707.588 169.326 707.713 170.148 707.962 170.627C708.235 171.084 708.632 171.312 709.154 171.312Z" fill="var(--fl-fgColor, #003749)"/>
<path d="M727.542 173.573C726.498 173.573 725.579 173.413 724.785 173.093C723.991 172.774 723.378 172.237 722.947 171.483C722.515 170.707 722.3 169.68 722.3 168.401V155.899H720.053V155.454C721.279 155.339 722.209 155.077 722.845 154.666C723.503 154.232 723.991 153.627 724.308 152.85C724.649 152.051 724.932 151.058 725.159 149.87L728.461 149.425L729.006 149.733V155.248H733.295V155.899H729.006V167.373C729.006 168.309 729.154 169.052 729.449 169.6C729.744 170.125 730.243 170.387 730.947 170.387C731.469 170.387 731.968 170.273 732.444 170.045C732.921 169.817 733.375 169.485 733.806 169.052L734.078 169.394C733.261 170.696 732.354 171.723 731.355 172.477C730.356 173.207 729.086 173.573 727.542 173.573Z" fill="var(--fl-fgColor, #003749)"/>
<path d="M734.859 173.093V172.58L736.084 172.477C736.425 172.454 736.64 172.34 736.731 172.134C736.844 171.929 736.901 171.541 736.901 170.97V157.988C736.901 157.303 736.822 156.812 736.663 156.515C736.527 156.218 736.198 156.047 735.676 156.002L734.586 155.899L734.654 155.385L743.369 155.008L743.642 155.248V170.97C743.642 171.541 743.698 171.929 743.812 172.134C743.948 172.317 744.209 172.431 744.595 172.477L745.65 172.614V173.093H734.859ZM739.931 152.576C738.66 152.576 737.684 152.291 737.003 151.72C736.323 151.126 735.982 150.304 735.982 149.254C735.982 148.249 736.311 147.461 736.969 146.891C737.65 146.297 738.637 146 739.931 146C741.293 146 742.291 146.285 742.927 146.856C743.562 147.427 743.88 148.226 743.88 149.254C743.88 150.281 743.539 151.092 742.859 151.686C742.178 152.28 741.202 152.576 739.931 152.576Z" fill="var(--fl-fgColor, #003749)"/>
<path d="M757.197 173.573C755.222 173.573 753.497 173.23 752.022 172.545C750.57 171.837 749.435 170.821 748.618 169.497C747.801 168.15 747.393 166.517 747.393 164.599C747.393 162.452 747.824 160.66 748.686 159.221C749.548 157.76 750.763 156.652 752.329 155.899C753.895 155.145 755.733 154.768 757.843 154.768C759.772 154.768 761.463 155.1 762.916 155.762C764.368 156.401 765.491 157.394 766.286 158.742C767.08 160.066 767.477 161.744 767.477 163.777C767.477 165.809 767.057 167.556 766.218 169.017C765.401 170.479 764.221 171.609 762.677 172.408C761.134 173.185 759.307 173.573 757.197 173.573ZM757.707 172.888C758.365 172.888 758.887 172.648 759.273 172.168C759.682 171.666 759.965 170.798 760.124 169.565C760.306 168.332 760.397 166.608 760.397 164.393C760.397 162.567 760.328 161.082 760.192 159.941C760.056 158.776 759.852 157.874 759.58 157.235C759.307 156.572 758.989 156.116 758.626 155.865C758.263 155.613 757.843 155.488 757.367 155.488C756.709 155.488 756.164 155.728 755.733 156.207C755.302 156.664 754.984 157.474 754.78 158.639C754.575 159.804 754.473 161.436 754.473 163.537C754.473 166.003 754.609 167.91 754.882 169.257C755.154 170.604 755.529 171.552 756.005 172.1C756.482 172.625 757.049 172.888 757.707 172.888Z" fill="var(--fl-fgColor, #003749)"/>
<path d="M769.464 173.093V172.58L770.656 172.477C770.973 172.454 771.178 172.34 771.268 172.134C771.382 171.929 771.439 171.541 771.439 170.97V157.988C771.439 157.303 771.359 156.812 771.2 156.515C771.064 156.218 770.746 156.047 770.247 156.002L769.158 155.899L769.192 155.385L777.702 155.008L777.941 155.248L777.907 158.776H777.941C778.417 157.452 779.143 156.458 780.119 155.796C781.118 155.111 782.309 154.768 783.694 154.768C784.965 154.768 786.031 155.02 786.894 155.522C787.779 156.002 788.448 156.721 788.902 157.68C789.356 158.616 789.583 159.815 789.583 161.276V171.004C789.583 171.575 789.651 171.963 789.787 172.168C789.923 172.351 790.207 172.465 790.638 172.511L791.591 172.58V173.093H781.209V172.614L782.06 172.511C782.4 172.465 782.616 172.351 782.706 172.168C782.82 171.963 782.877 171.575 782.877 171.004V160.763C782.877 159.621 782.82 158.765 782.706 158.194C782.616 157.623 782.423 157.235 782.128 157.029C781.855 156.824 781.481 156.721 781.004 156.721C780.482 156.721 780.006 156.915 779.575 157.303C779.143 157.668 778.792 158.159 778.519 158.776C778.27 159.393 778.145 160.089 778.145 160.865V170.97C778.145 171.563 778.19 171.952 778.281 172.134C778.372 172.317 778.565 172.431 778.86 172.477L779.813 172.614V173.093H769.464Z" fill="var(--fl-fgColor, #003749)"/>
<path d="M797.596 173.573C796.552 173.573 795.723 173.287 795.111 172.717C794.498 172.146 794.192 171.404 794.192 170.49C794.192 169.577 794.498 168.846 795.111 168.298C795.723 167.727 796.552 167.442 797.596 167.442C798.64 167.442 799.468 167.727 800.081 168.298C800.694 168.846 801 169.565 801 170.456C801 171.369 800.682 172.123 800.047 172.717C799.434 173.287 798.617 173.573 797.596 173.573ZM797.596 160.9C796.552 160.9 795.723 160.614 795.111 160.043C794.498 159.472 794.192 158.719 794.192 157.783C794.192 156.892 794.498 156.173 795.111 155.625C795.723 155.054 796.552 154.768 797.596 154.768C798.64 154.768 799.468 155.054 800.081 155.625C800.694 156.173 801 156.892 801 157.783C801 158.696 800.682 159.45 800.047 160.043C799.434 160.614 798.617 160.9 797.596 160.9Z" fill="var(--fl-fgColor, #003749)"/>
<path d="M535.481 212.718C533.03 212.718 530.908 212.204 529.115 211.177C527.322 210.149 525.938 208.699 524.962 206.827C523.986 204.931 523.498 202.728 523.498 200.216C523.498 197.27 524.008 194.804 525.03 192.818C526.074 190.808 527.526 189.301 529.387 188.296C531.271 187.292 533.483 186.789 536.025 186.789C538.317 186.789 540.337 187.269 542.085 188.228C543.855 189.164 545.239 190.545 546.238 192.372C547.236 194.199 547.736 196.46 547.736 199.154C547.736 201.141 547.463 202.968 546.919 204.634C546.397 206.301 545.614 207.74 544.57 208.95C543.549 210.16 542.266 211.097 540.723 211.759C539.203 212.398 537.455 212.718 535.481 212.718ZM536.059 211.999C536.808 211.999 537.444 211.816 537.966 211.451C538.51 211.085 538.953 210.469 539.293 209.601C539.634 208.71 539.883 207.5 540.042 205.97C540.224 204.418 540.315 202.442 540.315 200.045C540.315 197.624 540.201 195.615 539.974 194.016C539.77 192.395 539.463 191.105 539.055 190.146C538.646 189.187 538.136 188.502 537.523 188.091C536.91 187.68 536.207 187.474 535.413 187.474C534.686 187.474 534.039 187.668 533.472 188.056C532.905 188.422 532.428 189.05 532.042 189.94C531.679 190.831 531.396 192.041 531.191 193.571C530.987 195.101 530.885 197.031 530.885 199.36C530.885 201.803 531.01 203.835 531.259 205.456C531.509 207.078 531.861 208.368 532.315 209.327C532.769 210.286 533.313 210.971 533.949 211.382C534.584 211.793 535.288 211.999 536.059 211.999Z" fill="var(--fl-fgColor, #003749)"/>
<path d="M549.487 219.637V219.123L550.61 219.02C550.928 218.997 551.143 218.883 551.257 218.678C551.37 218.495 551.427 218.118 551.427 217.547V197.133C551.427 196.425 551.348 195.934 551.189 195.66C551.053 195.364 550.724 195.192 550.202 195.147L549.146 195.044L549.18 194.53L557.691 194.153L557.929 194.393V197.373H557.963C558.258 196.756 558.644 196.197 559.121 195.695C559.62 195.169 560.221 194.747 560.925 194.427C561.651 194.085 562.502 193.914 563.478 193.914C564.93 193.914 566.213 194.233 567.325 194.873C568.459 195.489 569.344 196.448 569.98 197.75C570.638 199.051 570.967 200.73 570.967 202.785C570.967 204.794 570.604 206.541 569.878 208.025C569.174 209.51 568.142 210.663 566.78 211.485C565.441 212.307 563.796 212.718 561.844 212.718C561.14 212.718 560.494 212.649 559.904 212.512C559.313 212.375 558.735 212.17 558.167 211.896V217.513C558.167 218.061 558.224 218.438 558.338 218.643C558.451 218.849 558.78 218.975 559.325 219.02L560.755 219.123V219.637H549.487ZM561.027 211.862C561.685 211.862 562.218 211.61 562.627 211.108C563.058 210.583 563.376 209.727 563.58 208.539C563.784 207.329 563.886 205.696 563.886 203.641C563.886 201.769 563.762 200.284 563.512 199.188C563.285 198.092 562.945 197.316 562.491 196.859C562.037 196.38 561.504 196.14 560.891 196.14C560.414 196.14 559.96 196.266 559.529 196.517C559.121 196.768 558.791 197.168 558.542 197.716C558.292 198.264 558.167 198.983 558.167 199.873V210.629C558.553 210.971 559.007 211.268 559.529 211.519C560.051 211.747 560.55 211.862 561.027 211.862Z" fill="var(--fl-fgColor, #003749)"/>
<path d="M572.558 219.637V219.123L573.681 219.02C573.999 218.997 574.215 218.883 574.328 218.678C574.442 218.495 574.498 218.118 574.498 217.547V197.133C574.498 196.425 574.419 195.934 574.26 195.66C574.124 195.364 573.795 195.192 573.273 195.147L572.218 195.044L572.252 194.53L580.762 194.153L581 194.393V197.373H581.035C581.33 196.756 581.715 196.197 582.192 195.695C582.691 195.169 583.293 194.747 583.996 194.427C584.722 194.085 585.573 193.914 586.549 193.914C588.002 193.914 589.284 194.233 590.396 194.873C591.531 195.489 592.416 196.448 593.051 197.75C593.709 199.051 594.039 200.73 594.039 202.785C594.039 204.794 593.675 206.541 592.949 208.025C592.246 209.51 591.213 210.663 589.851 211.485C588.512 212.307 586.867 212.718 584.915 212.718C584.212 212.718 583.565 212.649 582.975 212.512C582.385 212.375 581.806 212.17 581.239 211.896V217.513C581.239 218.061 581.295 218.438 581.409 218.643C581.522 218.849 581.852 218.975 582.396 219.02L583.826 219.123V219.637H572.558ZM584.098 211.862C584.756 211.862 585.29 211.61 585.698 211.108C586.129 210.583 586.447 209.727 586.651 208.539C586.856 207.329 586.958 205.696 586.958 203.641C586.958 201.769 586.833 200.284 586.583 199.188C586.356 198.092 586.016 197.316 585.562 196.859C585.108 196.38 584.575 196.14 583.962 196.14C583.486 196.14 583.032 196.266 582.6 196.517C582.192 196.768 581.863 197.168 581.613 197.716C581.364 198.264 581.239 198.983 581.239 199.873V210.629C581.625 210.971 582.078 211.268 582.6 211.519C583.122 211.747 583.622 211.862 584.098 211.862Z" fill="var(--fl-fgColor, #003749)"/>
<path d="M606.003 212.718C604.028 212.718 602.303 212.375 600.828 211.69C599.376 210.982 598.241 209.966 597.424 208.642C596.607 207.295 596.199 205.662 596.199 203.744C596.199 201.597 596.63 199.805 597.492 198.366C598.355 196.905 599.569 195.797 601.135 195.044C602.701 194.29 604.539 193.914 606.649 193.914C608.578 193.914 610.269 194.245 611.722 194.907C613.174 195.546 614.298 196.54 615.092 197.887C615.886 199.211 616.283 200.89 616.283 202.922C616.283 204.954 615.863 206.701 615.024 208.162C614.207 209.624 613.027 210.754 611.483 211.553C609.94 212.33 608.113 212.718 606.003 212.718ZM606.513 212.033C607.171 212.033 607.693 211.793 608.079 211.314C608.488 210.811 608.771 209.944 608.93 208.71C609.112 207.477 609.203 205.753 609.203 203.538C609.203 201.712 609.135 200.227 608.998 199.086C608.862 197.921 608.658 197.019 608.386 196.38C608.113 195.718 607.796 195.261 607.432 195.01C607.069 194.758 606.649 194.633 606.173 194.633C605.515 194.633 604.97 194.873 604.539 195.352C604.108 195.809 603.79 196.619 603.586 197.784C603.381 198.949 603.279 200.581 603.279 202.682C603.279 205.148 603.415 207.055 603.688 208.402C603.96 209.749 604.335 210.697 604.811 211.245C605.288 211.77 605.855 212.033 606.513 212.033Z" fill="var(--fl-fgColor, #003749)"/>
<path d="M618.27 212.238V211.725L619.462 211.622C619.779 211.599 619.984 211.485 620.074 211.279C620.188 211.074 620.245 210.686 620.245 210.115V197.133C620.245 196.471 620.177 195.992 620.04 195.695C619.904 195.375 619.575 195.192 619.053 195.147L617.964 195.044L617.998 194.53L626.406 194.153L626.645 194.393L626.679 198.195H626.747C627.178 196.734 627.87 195.66 628.823 194.975C629.799 194.268 630.832 193.914 631.921 193.914C633.237 193.914 634.259 194.313 634.985 195.112C635.734 195.889 636.108 196.939 636.108 198.264C636.108 198.857 636.006 199.428 635.802 199.976C635.598 200.501 635.268 200.924 634.815 201.244C634.361 201.563 633.725 201.723 632.908 201.723C632 201.723 631.308 201.518 630.832 201.106C630.355 200.673 630.117 200.136 630.117 199.497C630.117 199.177 630.174 198.846 630.287 198.503C630.4 198.161 630.605 197.738 630.9 197.236C631.218 196.734 631.66 196.106 632.227 195.352C631.705 195.147 631.138 195.112 630.525 195.249C629.913 195.386 629.334 195.683 628.789 196.14C628.245 196.597 627.802 197.202 627.462 197.955C627.121 198.709 626.951 199.588 626.951 200.593V210.115C626.951 210.64 626.996 211.017 627.087 211.245C627.201 211.473 627.484 211.599 627.938 211.622L629.674 211.725V212.238H618.27Z" fill="var(--fl-fgColor, #003749)"/>
<path d="M644.499 212.718C643.455 212.718 642.536 212.558 641.741 212.238C640.947 211.919 640.334 211.382 639.903 210.629C639.472 209.852 639.256 208.825 639.256 207.546V195.044H637.01V194.599C638.235 194.484 639.165 194.222 639.801 193.811C640.459 193.377 640.947 192.772 641.265 191.995C641.605 191.196 641.889 190.203 642.116 189.016L645.418 188.57L645.963 188.879V194.393H650.252V195.044H645.963V206.518C645.963 207.455 646.11 208.197 646.405 208.745C646.7 209.27 647.199 209.532 647.903 209.532C648.425 209.532 648.924 209.418 649.401 209.19C649.877 208.962 650.331 208.631 650.762 208.197L651.035 208.539C650.218 209.841 649.31 210.868 648.311 211.622C647.313 212.353 646.042 212.718 644.499 212.718Z" fill="var(--fl-fgColor, #003749)"/>
<path d="M659.201 212.718C657.295 212.718 655.831 212.181 654.81 211.108C653.789 210.035 653.278 208.402 653.278 206.21V196.688C653.278 196.049 653.21 195.626 653.074 195.421C652.938 195.192 652.654 195.055 652.223 195.01L651.304 194.941L651.338 194.462L659.678 194.153L659.984 194.393V206.758C659.984 207.854 660.041 208.699 660.155 209.293C660.268 209.864 660.461 210.252 660.733 210.457C661.006 210.663 661.38 210.766 661.857 210.766C662.356 210.766 662.798 210.583 663.184 210.218C663.593 209.852 663.91 209.361 664.137 208.745C664.387 208.128 664.512 207.443 664.512 206.69V196.722C664.512 196.197 664.455 195.797 664.342 195.523C664.228 195.227 663.967 195.055 663.559 195.01L662.64 194.941L662.674 194.462L670.912 194.153L671.218 194.393V209.635C671.218 210.275 671.286 210.743 671.422 211.04C671.581 211.314 671.91 211.473 672.41 211.519L673.499 211.622L673.465 212.136L665.567 212.512L664.716 209.087H664.648C664.33 209.932 663.922 210.629 663.423 211.177C662.923 211.702 662.333 212.09 661.652 212.341C660.972 212.592 660.155 212.718 659.201 212.718Z" fill="var(--fl-fgColor, #003749)"/>
<path d="M675.051 212.238V211.725L676.243 211.622C676.56 211.599 676.765 211.485 676.855 211.279C676.969 211.074 677.025 210.686 677.025 210.115V197.133C677.025 196.448 676.946 195.957 676.787 195.66C676.651 195.364 676.333 195.192 675.834 195.147L674.745 195.044L674.779 194.53L683.289 194.153L683.528 194.393L683.493 197.921H683.528C684.004 196.597 684.73 195.603 685.706 194.941C686.705 194.256 687.896 193.914 689.281 193.914C690.551 193.914 691.618 194.165 692.481 194.667C693.366 195.147 694.035 195.866 694.489 196.825C694.943 197.761 695.17 198.96 695.17 200.421V210.149C695.17 210.72 695.238 211.108 695.374 211.314C695.51 211.496 695.794 211.61 696.225 211.656L697.178 211.725V212.238H686.796V211.759L687.647 211.656C687.987 211.61 688.203 211.496 688.293 211.314C688.407 211.108 688.464 210.72 688.464 210.149V199.908C688.464 198.766 688.407 197.91 688.293 197.339C688.203 196.768 688.01 196.38 687.715 196.174C687.442 195.969 687.068 195.866 686.591 195.866C686.069 195.866 685.593 196.06 685.162 196.448C684.73 196.814 684.379 197.305 684.106 197.921C683.857 198.538 683.732 199.234 683.732 200.01V210.115C683.732 210.708 683.777 211.097 683.868 211.279C683.959 211.462 684.152 211.576 684.447 211.622L685.4 211.759V212.238H675.051Z" fill="var(--fl-fgColor, #003749)"/>
<path d="M698.689 212.238V211.725L699.915 211.622C700.255 211.599 700.471 211.485 700.561 211.279C700.675 211.074 700.732 210.686 700.732 210.115V197.133C700.732 196.448 700.652 195.957 700.493 195.66C700.357 195.364 700.028 195.192 699.506 195.147L698.417 195.044L698.485 194.53L707.2 194.153L707.472 194.393V210.115C707.472 210.686 707.529 211.074 707.642 211.279C707.778 211.462 708.039 211.576 708.425 211.622L709.48 211.759V212.238H698.689ZM703.761 191.721C702.491 191.721 701.515 191.436 700.834 190.865C700.153 190.271 699.813 189.449 699.813 188.399C699.813 187.394 700.142 186.607 700.8 186.036C701.481 185.442 702.468 185.145 703.761 185.145C705.123 185.145 706.122 185.431 706.757 186.001C707.393 186.572 707.71 187.371 707.71 188.399C707.71 189.427 707.37 190.237 706.689 190.831C706.008 191.425 705.032 191.721 703.761 191.721Z" fill="var(--fl-fgColor, #003749)"/>
<path d="M717.769 212.718C716.725 212.718 715.806 212.558 715.011 212.238C714.217 211.919 713.604 211.382 713.173 210.629C712.742 209.852 712.526 208.825 712.526 207.546V195.044H710.279V194.599C711.505 194.484 712.435 194.222 713.071 193.811C713.729 193.377 714.217 192.772 714.535 191.995C714.875 191.196 715.159 190.203 715.386 189.016L718.688 188.57L719.232 188.879V194.393H723.522V195.044H719.232V206.518C719.232 207.455 719.38 208.197 719.675 208.745C719.97 209.27 720.469 209.532 721.173 209.532C721.695 209.532 722.194 209.418 722.671 209.19C723.147 208.962 723.601 208.631 724.032 208.197L724.305 208.539C723.488 209.841 722.58 210.868 721.581 211.622C720.583 212.353 719.312 212.718 717.769 212.718Z" fill="var(--fl-fgColor, #003749)"/>
<path d="M725.085 212.238V211.725L726.31 211.622C726.651 211.599 726.866 211.485 726.957 211.279C727.071 211.074 727.127 210.686 727.127 210.115V197.133C727.127 196.448 727.048 195.957 726.889 195.66C726.753 195.364 726.424 195.192 725.902 195.147L724.813 195.044L724.881 194.53L733.595 194.153L733.868 194.393V210.115C733.868 210.686 733.924 211.074 734.038 211.279C734.174 211.462 734.435 211.576 734.821 211.622L735.876 211.759V212.238H725.085ZM730.157 191.721C728.886 191.721 727.91 191.436 727.23 190.865C726.549 190.271 726.208 189.449 726.208 188.399C726.208 187.394 726.537 186.607 727.196 186.036C727.876 185.442 728.864 185.145 730.157 185.145C731.519 185.145 732.517 185.431 733.153 186.001C733.788 186.572 734.106 187.371 734.106 188.399C734.106 189.427 733.766 190.237 733.085 190.831C732.404 191.425 731.428 191.721 730.157 191.721Z" fill="var(--fl-fgColor, #003749)"/>
<path d="M746.776 212.718C744.847 212.718 743.19 212.364 741.806 211.656C740.444 210.948 739.4 209.921 738.674 208.573C737.971 207.203 737.619 205.571 737.619 203.675C737.619 201.575 738.061 199.805 738.946 198.366C739.854 196.928 741.057 195.832 742.555 195.078C744.075 194.302 745.743 193.914 747.559 193.914C749.17 193.914 750.566 194.188 751.746 194.736C752.926 195.261 753.834 196.037 754.469 197.065C755.128 198.069 755.457 199.268 755.457 200.661C755.457 200.935 755.445 201.221 755.423 201.518C755.423 201.792 755.411 202.1 755.389 202.442H744.529C744.552 203.744 744.734 204.863 745.074 205.799C745.414 206.712 745.948 207.42 746.674 207.923C747.4 208.425 748.319 208.676 749.431 208.676C750.384 208.676 751.304 208.539 752.189 208.265C753.096 207.991 754.072 207.455 755.116 206.655L755.525 206.964C754.799 208.699 753.687 210.092 752.189 211.142C750.691 212.193 748.887 212.718 746.776 212.718ZM744.529 201.826H749.091C749.114 201.392 749.136 200.981 749.159 200.593C749.182 200.205 749.193 199.805 749.193 199.394C749.193 197.727 749.045 196.517 748.75 195.763C748.455 195.01 747.979 194.633 747.321 194.633C746.821 194.633 746.368 194.827 745.959 195.215C745.573 195.603 745.255 196.323 745.006 197.373C744.756 198.401 744.597 199.885 744.529 201.826Z" fill="var(--fl-fgColor, #003749)"/>
<path d="M758.618 212.855L758.039 205.799L758.652 205.731C759.061 207.26 759.537 208.482 760.082 209.395C760.627 210.309 761.273 210.971 762.022 211.382C762.794 211.77 763.702 211.964 764.746 211.964C765.744 211.964 766.561 211.713 767.197 211.211C767.855 210.708 768.184 209.944 768.184 208.916C768.184 208.254 767.991 207.74 767.605 207.375C767.219 206.986 766.72 206.701 766.107 206.518C765.517 206.313 764.893 206.119 764.235 205.936C763.214 205.616 762.317 205.285 761.546 204.943C760.797 204.6 760.161 204.212 759.639 203.778C759.14 203.321 758.766 202.773 758.516 202.134C758.266 201.495 758.141 200.73 758.141 199.839C758.141 198.606 758.425 197.556 758.993 196.688C759.583 195.82 760.411 195.147 761.478 194.667C762.567 194.165 763.849 193.914 765.324 193.914C766.209 193.914 767.026 194.016 767.775 194.222C768.524 194.427 769.273 194.758 770.022 195.215L770.431 193.914H770.941L771.452 199.771L770.737 199.702C770.17 197.83 769.466 196.517 768.626 195.763C767.809 194.987 766.777 194.599 765.529 194.599C764.575 194.599 763.826 194.793 763.282 195.181C762.737 195.569 762.465 196.14 762.465 196.894C762.465 197.51 762.658 198.012 763.044 198.401C763.452 198.766 763.974 199.074 764.609 199.325C765.268 199.554 765.982 199.794 766.754 200.045C767.662 200.342 768.468 200.65 769.171 200.969C769.875 201.289 770.476 201.677 770.975 202.134C771.497 202.568 771.883 203.116 772.133 203.778C772.405 204.418 772.541 205.217 772.541 206.176C772.541 207.569 772.201 208.756 771.52 209.738C770.862 210.697 769.954 211.439 768.797 211.964C767.639 212.467 766.323 212.718 764.848 212.718C763.917 212.718 762.975 212.581 762.022 212.307C761.092 212.056 760.297 211.702 759.639 211.245L759.163 212.855H758.618Z" fill="var(--fl-fgColor, #003749)"/>
<path d="M528.4 251.863C526.811 251.863 525.574 251.463 524.689 250.664C523.804 249.865 523.362 248.7 523.362 247.17C523.362 245.937 523.679 244.956 524.315 244.225C524.95 243.494 525.983 242.946 527.413 242.581C528.842 242.215 530.783 241.964 533.234 241.827V237.34C533.234 236.472 533.143 235.787 532.961 235.285C532.78 234.76 532.474 234.383 532.042 234.155C531.634 233.904 531.089 233.778 530.408 233.778C529.864 233.778 529.228 233.892 528.502 234.12C527.798 234.349 527.276 234.634 526.936 234.977C527.594 235.73 528.071 236.335 528.366 236.792C528.684 237.249 528.888 237.614 528.979 237.888C529.069 238.162 529.115 238.413 529.115 238.642C529.115 239.167 528.888 239.635 528.434 240.046C528.003 240.434 527.356 240.628 526.494 240.628C525.54 240.628 524.837 240.4 524.383 239.943C523.929 239.464 523.702 238.87 523.702 238.162C523.702 237.409 524.008 236.644 524.621 235.867C525.234 235.068 526.142 234.406 527.345 233.881C528.547 233.333 530.034 233.059 531.804 233.059C533.461 233.059 534.902 233.276 536.127 233.709C537.353 234.12 538.295 234.84 538.953 235.867C539.611 236.895 539.94 238.333 539.94 240.183V248.198C539.94 248.746 540.031 249.157 540.212 249.431C540.417 249.682 540.7 249.808 541.063 249.808C541.313 249.808 541.54 249.785 541.744 249.739C541.949 249.694 542.164 249.614 542.391 249.5L542.561 249.842C541.903 250.641 541.154 251.178 540.315 251.452C539.498 251.726 538.715 251.863 537.966 251.863C536.649 251.863 535.651 251.578 534.97 251.007C534.289 250.413 533.824 249.637 533.574 248.678C533.302 249.363 532.939 249.945 532.485 250.424C532.054 250.904 531.498 251.258 530.817 251.486C530.159 251.737 529.353 251.863 528.4 251.863ZM531.498 249.602C531.884 249.602 532.201 249.5 532.451 249.294C532.701 249.089 532.893 248.803 533.03 248.438C533.166 248.072 533.234 247.65 533.234 247.17V242.409C532.394 242.455 531.725 242.615 531.225 242.889C530.749 243.14 530.408 243.551 530.204 244.122C530.023 244.693 529.932 245.469 529.932 246.451C529.932 247.616 530.057 248.438 530.306 248.917C530.579 249.374 530.976 249.602 531.498 249.602Z" fill="var(--fl-fgColor, #003749)"/>
<path d="M542.972 251.383V250.87L544.164 250.767C544.482 250.744 544.686 250.63 544.777 250.424C544.89 250.219 544.947 249.831 544.947 249.26V236.278C544.947 235.593 544.867 235.102 544.709 234.806C544.572 234.509 544.255 234.337 543.755 234.292L542.666 234.189L542.7 233.675L551.211 233.298L551.449 233.538L551.415 237.066H551.449C551.925 235.742 552.652 234.748 553.628 234.086C554.626 233.401 555.818 233.059 557.202 233.059C558.473 233.059 559.54 233.31 560.402 233.812C561.287 234.292 561.957 235.011 562.41 235.97C562.864 236.906 563.091 238.105 563.091 239.567V249.294C563.091 249.865 563.159 250.253 563.295 250.459C563.432 250.641 563.715 250.756 564.147 250.801L565.1 250.87V251.383H554.717V250.904L555.568 250.801C555.908 250.756 556.124 250.641 556.215 250.459C556.328 250.253 556.385 249.865 556.385 249.294V239.053C556.385 237.911 556.328 237.055 556.215 236.484C556.124 235.913 555.931 235.525 555.636 235.319C555.364 235.114 554.989 235.011 554.513 235.011C553.991 235.011 553.514 235.205 553.083 235.593C552.652 235.959 552.3 236.45 552.028 237.066C551.778 237.683 551.653 238.379 551.653 239.156V249.26C551.653 249.854 551.699 250.242 551.789 250.424C551.88 250.607 552.073 250.721 552.368 250.767L553.321 250.904V251.383H542.972Z" fill="var(--fl-fgColor, #003749)"/>
<path d="M574.105 251.863C572.585 251.863 571.246 251.555 570.088 250.938C568.931 250.299 568.035 249.328 567.399 248.027C566.764 246.702 566.446 245.024 566.446 242.992C566.446 240.959 566.798 239.201 567.501 237.717C568.227 236.233 569.271 235.091 570.633 234.292C571.995 233.47 573.629 233.059 575.535 233.059C576.216 233.059 576.863 233.15 577.476 233.333C578.111 233.493 578.701 233.721 579.246 234.018V227.681C579.246 227.11 579.155 226.711 578.973 226.482C578.792 226.231 578.463 226.083 577.986 226.037L576.897 225.934L576.931 225.42L585.748 225.078L585.986 225.318V249.226C585.986 249.774 586.043 250.162 586.156 250.39C586.27 250.618 586.542 250.756 586.973 250.801L588.029 250.87V251.383L580.199 251.692L579.586 248.575H579.45C579.155 249.191 578.769 249.751 578.293 250.253C577.816 250.756 577.226 251.144 576.522 251.418C575.842 251.715 575.036 251.863 574.105 251.863ZM576.624 249.671C577.056 249.671 577.464 249.568 577.85 249.363C578.258 249.157 578.588 248.803 578.837 248.301C579.11 247.798 579.246 247.102 579.246 246.211V235.045C578.815 234.68 578.349 234.406 577.85 234.223C577.373 234.018 576.908 233.915 576.454 233.915C575.773 233.915 575.217 234.189 574.786 234.737C574.355 235.262 574.037 236.119 573.833 237.306C573.629 238.493 573.527 240.103 573.527 242.135C573.527 243.985 573.651 245.469 573.901 246.588C574.151 247.684 574.503 248.472 574.956 248.952C575.41 249.431 575.966 249.671 576.624 249.671Z" fill="var(--fl-fgColor, #003749)"/>
<path d="M617.62 251.863C616.599 251.863 615.657 251.726 614.795 251.452C613.932 251.178 613.183 250.653 612.548 249.876C611.935 249.1 611.447 247.981 611.084 246.52L609.927 241.998C609.723 241.199 609.518 240.583 609.314 240.149C609.11 239.715 608.883 239.418 608.633 239.258C608.406 239.076 608.123 238.984 607.782 238.984C607.601 238.984 607.442 238.996 607.306 239.019C607.169 239.019 607.067 239.019 606.999 239.019V249.02C606.999 249.591 607.056 250.025 607.169 250.322C607.306 250.596 607.68 250.756 608.293 250.801L609.825 250.87V251.383H597.57V250.87L598.897 250.801C599.328 250.756 599.612 250.618 599.748 250.39C599.884 250.139 599.952 249.648 599.952 248.917V228.503C599.952 227.932 599.873 227.544 599.714 227.339C599.578 227.133 599.26 227.007 598.761 226.962L597.57 226.928V226.414H608.463C609.984 226.414 611.368 226.505 612.616 226.688C613.887 226.87 614.976 227.19 615.884 227.647C616.815 228.104 617.529 228.72 618.029 229.496C618.551 230.25 618.812 231.209 618.812 232.374C618.812 233.219 618.664 233.961 618.369 234.6C618.097 235.239 617.711 235.799 617.212 236.278C616.712 236.735 616.145 237.123 615.51 237.443C614.897 237.74 614.227 237.991 613.501 238.196C612.775 238.379 612.049 238.505 611.323 238.573V238.71C612.82 238.87 614.057 239.247 615.033 239.841C616.032 240.411 616.735 241.291 617.144 242.478L618.778 246.965C619.005 247.559 619.22 248.038 619.424 248.404C619.651 248.746 619.912 248.997 620.207 249.157C620.525 249.294 620.877 249.363 621.263 249.363C621.58 249.363 621.932 249.306 622.318 249.191C622.727 249.054 623.056 248.906 623.305 248.746L623.544 249.123C622.84 249.968 621.966 250.641 620.922 251.144C619.901 251.623 618.8 251.863 617.62 251.863ZM607.986 238.333C608.894 238.333 609.598 238.117 610.097 237.683C610.619 237.226 610.982 236.564 611.186 235.696C611.413 234.828 611.527 233.755 611.527 232.476C611.527 231.289 611.425 230.296 611.22 229.496C611.016 228.697 610.664 228.092 610.165 227.681C609.666 227.27 608.974 227.065 608.089 227.065H606.999V238.299C607.226 238.322 607.419 238.333 607.578 238.333C607.737 238.333 607.873 238.333 607.986 238.333Z" fill="var(--fl-fgColor, #003749)"/>
<path d="M623.691 251.383V250.87L624.916 250.767C625.257 250.744 625.472 250.63 625.563 250.424C625.676 250.219 625.733 249.831 625.733 249.26V236.278C625.733 235.593 625.654 235.102 625.495 234.806C625.359 234.509 625.03 234.337 624.508 234.292L623.418 234.189L623.486 233.675L632.201 233.298L632.473 233.538V249.26C632.473 249.831 632.53 250.219 632.644 250.424C632.78 250.607 633.041 250.721 633.427 250.767L634.482 250.904V251.383H623.691ZM628.763 230.867C627.492 230.867 626.516 230.581 625.835 230.01C625.154 229.417 624.814 228.594 624.814 227.544C624.814 226.539 625.143 225.752 625.801 225.181C626.482 224.587 627.469 224.29 628.763 224.29C630.125 224.29 631.123 224.576 631.759 225.146C632.394 225.717 632.712 226.517 632.712 227.544C632.712 228.572 632.371 229.382 631.69 229.976C631.01 230.57 630.034 230.867 628.763 230.867Z" fill="var(--fl-fgColor, #003749)"/>
<path d="M637.244 252L636.665 244.944L637.278 244.876C637.687 246.406 638.163 247.627 638.708 248.541C639.253 249.454 639.899 250.116 640.648 250.527C641.42 250.915 642.328 251.109 643.372 251.109C644.37 251.109 645.187 250.858 645.823 250.356C646.481 249.854 646.81 249.089 646.81 248.061C646.81 247.399 646.617 246.885 646.231 246.52C645.845 246.131 645.346 245.846 644.733 245.663C644.143 245.458 643.519 245.264 642.861 245.081C641.84 244.761 640.943 244.43 640.172 244.088C639.423 243.745 638.787 243.357 638.265 242.923C637.766 242.467 637.392 241.919 637.142 241.279C636.892 240.64 636.767 239.875 636.767 238.984C636.767 237.751 637.051 236.701 637.619 235.833C638.209 234.965 639.037 234.292 640.104 233.812C641.193 233.31 642.475 233.059 643.95 233.059C644.835 233.059 645.652 233.161 646.401 233.367C647.15 233.572 647.899 233.904 648.648 234.36L649.057 233.059H649.567L650.078 238.916L649.363 238.847C648.796 236.975 648.092 235.662 647.252 234.908C646.435 234.132 645.403 233.744 644.155 233.744C643.201 233.744 642.452 233.938 641.908 234.326C641.363 234.714 641.091 235.285 641.091 236.039C641.091 236.655 641.284 237.157 641.67 237.546C642.078 237.911 642.6 238.219 643.235 238.47C643.894 238.699 644.608 238.939 645.38 239.19C646.288 239.487 647.094 239.795 647.797 240.115C648.501 240.434 649.102 240.822 649.601 241.279C650.123 241.713 650.509 242.261 650.759 242.923C651.031 243.563 651.167 244.362 651.167 245.321C651.167 246.714 650.827 247.901 650.146 248.883C649.488 249.842 648.58 250.584 647.423 251.109C646.265 251.612 644.949 251.863 643.474 251.863C642.543 251.863 641.601 251.726 640.648 251.452C639.718 251.201 638.923 250.847 638.265 250.39L637.789 252H637.244Z" fill="var(--fl-fgColor, #003749)"/>
<path d="M670.713 251.794C670.032 251.794 669.419 251.68 668.875 251.452C668.33 251.246 667.819 250.915 667.343 250.459C666.889 250.002 666.446 249.42 666.015 248.712L662.134 242.204V241.896L668.772 235.799C669.204 235.411 669.476 235.08 669.589 234.806C669.726 234.509 669.51 234.326 668.943 234.257L667.513 234.052L667.547 233.538H673.913V234.052L673.028 234.223C672.619 234.292 672.188 234.406 671.734 234.566C671.303 234.703 670.792 235.045 670.202 235.593L667.104 238.47L671.87 246.246C672.506 247.342 673.016 248.118 673.402 248.575C673.788 249.032 674.219 249.26 674.696 249.26C674.9 249.26 675.104 249.226 675.309 249.157C675.535 249.089 675.774 248.974 676.023 248.815L676.262 249.191C675.626 249.991 674.843 250.63 673.913 251.109C672.982 251.566 671.916 251.794 670.713 251.794ZM652.977 251.383V250.87L654.1 250.801C654.441 250.756 654.668 250.641 654.781 250.459C654.895 250.253 654.951 249.854 654.951 249.26V228.024C654.951 227.339 654.883 226.848 654.747 226.551C654.611 226.254 654.271 226.083 653.726 226.037L652.671 225.934L652.705 225.42L661.419 225.078L661.692 225.318V249.26C661.692 249.808 661.748 250.185 661.862 250.39C661.998 250.596 662.27 250.733 662.679 250.801L663.564 250.87V251.383H652.977Z" fill="var(--fl-fgColor, #003749)"/>
<path d="M677.802 252L677.223 244.944L677.836 244.876C678.244 246.406 678.721 247.627 679.266 248.541C679.81 249.454 680.457 250.116 681.206 250.527C681.978 250.915 682.885 251.109 683.929 251.109C684.928 251.109 685.745 250.858 686.38 250.356C687.039 249.854 687.368 249.089 687.368 248.061C687.368 247.399 687.175 246.885 686.789 246.52C686.403 246.131 685.904 245.846 685.291 245.663C684.701 245.458 684.077 245.264 683.419 245.081C682.397 244.761 681.501 244.43 680.729 244.088C679.98 243.745 679.345 243.357 678.823 242.923C678.324 242.467 677.949 241.919 677.7 241.279C677.45 240.64 677.325 239.875 677.325 238.984C677.325 237.751 677.609 236.701 678.176 235.833C678.766 234.965 679.595 234.292 680.661 233.812C681.751 233.31 683.033 233.059 684.508 233.059C685.393 233.059 686.21 233.161 686.959 233.367C687.708 233.572 688.457 233.904 689.206 234.36L689.614 233.059H690.125L690.636 238.916L689.921 238.847C689.353 236.975 688.65 235.662 687.81 234.908C686.993 234.132 685.961 233.744 684.712 233.744C683.759 233.744 683.01 233.938 682.466 234.326C681.921 234.714 681.649 235.285 681.649 236.039C681.649 236.655 681.841 237.157 682.227 237.546C682.636 237.911 683.158 238.219 683.793 238.47C684.451 238.699 685.166 238.939 685.938 239.19C686.846 239.487 687.651 239.795 688.355 240.115C689.058 240.434 689.66 240.822 690.159 241.279C690.681 241.713 691.067 242.261 691.316 242.923C691.589 243.563 691.725 244.362 691.725 245.321C691.725 246.714 691.385 247.901 690.704 248.883C690.046 249.842 689.138 250.584 687.98 251.109C686.823 251.612 685.507 251.863 684.031 251.863C683.101 251.863 682.159 251.726 681.206 251.452C680.276 251.201 679.481 250.847 678.823 250.39L678.346 252H677.802Z" fill="var(--fl-fgColor, #003749)"/>
<path d="M385.906 70.8821C375.077 42.5799 359.974 25 343.251 25C310.331 25 283.664 93.0938 283.664 177.113C283.664 242.62 299.892 298.473 322.659 319.888" stroke="var(--fl-fgColor, #003749)" stroke-width="6" stroke-linecap="round" stroke-linejoin="round"/>
<path d="M363.859 319.888C386.611 298.473 402.854 242.62 402.854 177.113C402.854 156.105 401.189 136.104 398.174 117.907" stroke="var(--fl-fgColor, #003749)" stroke-width="6" stroke-linecap="round" stroke-linejoin="round"/>
<path d="M457.012 194.047C475.549 217.266 482.883 238.831 474.619 253.177C458.182 281.75 386.011 270.863 313.45 228.86C246.799 190.272 202.99 138.841 209.064 108.583" stroke="var(--fl-fgColor, #003749)" stroke-width="6" stroke-linecap="round" stroke-linejoin="round"/>
<path d="M242.54 85.4994C274.111 82.4917 323.484 96.6579 373.053 125.351C392.64 136.69 410.248 149.142 425.201 161.834" stroke="var(--fl-fgColor, #003749)" stroke-width="6" stroke-linecap="round" stroke-linejoin="round"/>
<path d="M263.012 160.391C277.59 148.194 294.613 136.269 313.45 125.351C367.128 94.2818 420.596 80.2359 451.432 86.5972" stroke="var(--fl-fgColor, #003749)" stroke-width="6" stroke-linecap="round" stroke-linejoin="round"/>
<path d="M477.934 112.659C479.644 143.307 436.794 191.956 373.038 228.86C300.492 270.863 228.321 281.75 211.869 253.177C203.89 239.327 210.459 218.755 227.617 196.438" stroke="var(--fl-fgColor, #003749)" stroke-width="6" stroke-linecap="round" stroke-linejoin="round"/>
<path d="M486.447 107.449C494.653 99.2215 494.653 85.8815 486.447 77.6536C478.242 69.4258 464.937 69.4258 456.732 77.6536C448.526 85.8815 448.526 99.2215 456.732 107.449C464.937 115.677 478.242 115.677 486.447 107.449Z" stroke="var(--fl-fgColor, #003749)" stroke-width="6" stroke-linecap="round" stroke-linejoin="round"/>
<path d="M358.106 338.938C366.312 330.711 366.312 317.371 358.106 309.143C349.9 300.915 336.596 300.915 328.39 309.143C320.184 317.371 320.184 330.711 328.39 338.938C336.596 347.166 349.9 347.166 358.106 338.938Z" stroke="var(--fl-fgColor, #003749)" stroke-width="6" stroke-linecap="round" stroke-linejoin="round"/>
<path d="M237.574 107.46C245.78 99.2325 245.78 85.8925 237.574 77.6646C229.368 69.4368 216.064 69.4368 207.858 77.6646C199.652 85.8925 199.652 99.2325 207.858 107.46C216.064 115.688 229.368 115.688 237.574 107.46Z" stroke="var(--fl-fgColor, #003749)" stroke-width="6" stroke-linecap="round" stroke-linejoin="round"/>
<path d="M352.775 207.641L327.818 144.42L305.876 200.017" stroke="var(--fl-fgColor, #003749)" stroke-width="6" stroke-linecap="round" stroke-linejoin="round"/>
<path d="M311.816 184.963H343.821" stroke="var(--fl-fgColor, #003749)" stroke-width="6" stroke-linecap="round" stroke-linejoin="round"/>
<path d="M372.003 148.48V200.122" stroke="var(--fl-fgColor, #003749)" stroke-width="6" stroke-linecap="round" stroke-linejoin="round"/>
</svg>

