<svg width="174" height="134" viewBox="0 0 174 134" fill="none" xmlns="http://www.w3.org/2000/svg">
<path opacity="0.75" d="M60 120C93.1371 120 120 93.1371 120 60C120 26.8629 93.1371 0 60 0C26.8629 0 0 26.8629 0 60C0 93.1371 26.8629 120 60 120Z" fill="var(--fl-fgColor, #BCDCA9)"/>
<path d="M171.996 54.2746C172.123 57.8607 169.315 60.8701 165.727 60.9959C162.139 61.1218 159.125 58.3168 159.004 54.7254C158.877 51.1393 161.685 48.1299 165.273 48.0041C168.861 47.8782 171.875 50.6832 171.996 54.2746Z" stroke="var(--fl-fgColor, #003749)" stroke-width="3" stroke-linejoin="round"/>
<path d="M72.9959 54.2746C73.1225 57.8607 70.3152 60.8701 66.7269 60.9959C63.1386 61.1218 60.1255 58.3168 60.0041 54.7254C59.8775 51.1393 62.6848 48.1299 66.2731 48.0041C69.8614 47.8782 72.8745 50.6832 72.9959 54.2746Z" stroke="var(--fl-fgColor, #003749)" stroke-width="3" stroke-linejoin="round"/>
<path d="M111.299 100.127C111.491 100.732 111.38 68.1426 111.345 64.3142C111.355 58.6657 120.686 58.4573 120.676 64.3193L120.564 91.2654L120.605 85.1034C120.605 85.1034 125.516 80.7818 129.516 86.6795L129.506 93.5939C129.506 93.5939 129.47 89.8774 129.521 88.7538C129.582 87.4472 136.515 83.9798 138.205 90.4468L138.23 95.2768C138.23 95.2768 138.25 92.6381 138.25 92.1043C138.463 90.701 144.167 87.2641 146.595 92.4398C146.595 92.4398 147.814 107.967 146.023 114.622C143.813 122.838 137.041 131.669 125.657 131.984C117.828 132.203 114.996 130.103 111.84 126.834C108.684 123.56 96.4253 96.3495 94.5237 94.1227C92.6171 91.8958 96.2736 88.7284 99.748 90.1164C103.222 91.5043 110.176 96.6292 111.294 100.122L111.299 100.127Z" stroke="var(--fl-fgColor, #003749)" stroke-width="3" stroke-linejoin="round"/>
<path d="M125.586 72H140V65.4563V54.4974V43.5488V37H135.423H122.474H109.526H96.5821H92V43.5488V54.4974V65.4563V72H106.265" stroke="var(--fl-fgColor, #003749)" stroke-width="3" stroke-linejoin="round"/>
<path d="M104 63V46H128V63" stroke="var(--fl-fgColor, #003749)" stroke-width="3" stroke-linejoin="round"/>
<path d="M159 54H158.995H140" stroke="var(--fl-fgColor, #003749)" stroke-width="3" stroke-linejoin="round"/>
<path d="M92 54H73" stroke="var(--fl-fgColor, #003749)" stroke-width="3" stroke-linejoin="round"/>
<path d="M158.443 77.8836C158.541 75.1014 156.368 72.7702 153.586 72.6728C150.809 72.5755 148.473 74.753 148.375 77.5352C148.278 80.3173 150.45 82.6486 153.232 82.7459C156.009 82.8433 158.346 80.6657 158.443 77.8836Z" stroke="var(--fl-fgColor, #003749)" stroke-width="3" stroke-linejoin="round"/>
<path d="M140.393 65.2281H153.412V72.6626" stroke="var(--fl-fgColor, #003749)" stroke-width="3" stroke-linejoin="round"/>
<path d="M158.443 30.582C158.541 33.3642 156.368 35.6955 153.586 35.7928C150.809 35.8902 148.473 33.7126 148.375 30.9305C148.278 28.1483 150.45 25.817 153.232 25.7197C156.009 25.6223 158.346 27.7999 158.443 30.582Z" stroke="var(--fl-fgColor, #003749)" stroke-width="3" stroke-linejoin="round"/>
<path d="M153.412 35.8031V43.2375H140.393" stroke="var(--fl-fgColor, #003749)" stroke-width="3" stroke-linejoin="round"/>
<path d="M73.0219 77.8836C72.9246 75.1014 75.097 72.7702 77.8792 72.6728C80.6613 72.5755 82.9926 74.753 83.0899 77.5352C83.1873 80.3173 81.0149 82.6486 78.2327 82.7459C75.4557 82.8433 73.1193 80.6657 73.0219 77.8836Z" stroke="var(--fl-fgColor, #003749)" stroke-width="3" stroke-linejoin="round"/>
<path d="M91.0724 65.2281H78.0481V72.6626" stroke="var(--fl-fgColor, #003749)" stroke-width="3" stroke-linejoin="round"/>
<path d="M73.0219 30.582C72.9246 33.3642 75.097 35.6955 77.8792 35.7928C80.6562 35.8902 82.9926 33.7126 83.0899 30.9305C83.1873 28.1483 81.0149 25.817 78.2327 25.7197C75.4557 25.6223 73.1193 27.7999 73.0219 30.582Z" stroke="var(--fl-fgColor, #003749)" stroke-width="3" stroke-linejoin="round"/>
<path d="M78.0481 35.8031V43.2375H91.0724" stroke="var(--fl-fgColor, #003749)" stroke-width="3" stroke-linejoin="round"/>
<path d="M104.003 7.82717C103.906 10.5874 106.063 12.9003 108.825 12.9969C111.581 13.0935 113.9 10.9331 113.997 8.17283C114.094 5.4126 111.937 3.0997 109.175 3.00312C106.419 2.90653 104.1 5.06694 104.003 7.82717Z" stroke="var(--fl-fgColor, #003749)" stroke-width="3" stroke-linejoin="round"/>
<path d="M117.003 22.3445C116.897 24.8287 119.269 26.9103 122.307 26.9972C125.339 27.0841 127.89 25.1398 127.997 22.6555C128.103 20.1713 125.731 18.0897 122.693 18.0028C119.661 17.9159 117.11 19.8602 117.003 22.3445Z" stroke="var(--fl-fgColor, #003749)" stroke-width="3" stroke-linejoin="round"/>
<path d="M96 23V37" stroke="var(--fl-fgColor, #003749)" stroke-width="3" stroke-linejoin="round"/>
<path d="M109 37V13" stroke="var(--fl-fgColor, #003749)" stroke-width="3" stroke-linejoin="round"/>
<path d="M122 37V27" stroke="var(--fl-fgColor, #003749)" stroke-width="3" stroke-linejoin="round"/>
<path d="M136 23V37" stroke="var(--fl-fgColor, #003749)" stroke-width="3" stroke-linejoin="round"/>
</svg>
