<svg width="138" height="120" viewBox="0 0 138 120" fill="none" xmlns="http://www.w3.org/2000/svg">
<path opacity="0.75" d="M60 120C93.1371 120 120 93.1371 120 60C120 26.8629 93.1371 0 60 0C26.8629 0 0 26.8629 0 60C0 93.1371 26.8629 120 60 120Z" fill="var(--fl-fgColor, #F0EC96)"/>
<g clip-path="url(#clip0_0_1)">
<path d="M137.605 44.3859C137.601 44.3816 137.599 44.3759 137.594 44.3716C134.741 41.5079 119.597 26.2912 118.713 25.4028C118.497 25.1858 118.121 25 117.746 25H79.4484C75.1972 25 71.7383 28.4887 71.7383 32.7757V35.1106H67.7039C63.4561 35.1106 60 38.5998 60 42.8883V112.222C60 116.511 63.4561 120 67.7039 120H118.553C122.801 120 126.257 116.511 126.257 112.222V109.891H130.299C134.546 109.891 138 106.404 138 102.117V45.3563C138 44.9837 137.824 44.611 137.605 44.3864V44.3859ZM119.116 29.7124C121.913 32.5233 133.215 43.8773 133.306 43.9688H122.053C120.434 43.9688 119.116 42.6383 119.116 41.0036V29.7124ZM130.299 107.124H79.4484C76.7087 107.124 74.479 104.878 74.479 102.117V66.3673C74.479 65.6034 73.8651 64.9836 73.1084 64.9836C72.3517 64.9836 71.7378 65.6034 71.7378 66.3673V102.117C71.7378 106.404 75.1968 109.891 79.4479 109.891H123.516V112.222C123.516 114.985 121.289 117.233 118.553 117.233H67.7039C64.9675 117.233 62.7407 114.985 62.7407 112.222V42.8883C62.7407 40.1257 64.9675 37.8775 67.7039 37.8775H71.7383V59.2741C71.7383 60.038 72.3522 60.6577 73.1089 60.6577C73.8656 60.6577 74.4794 60.038 74.4794 59.2741V32.7757C74.4794 30.0141 76.7092 27.7669 79.4489 27.7669H116.375V41.0036C116.375 44.1642 118.922 46.7357 122.053 46.7357H135.26V102.116C135.26 104.878 133.035 107.124 130.299 107.124L130.299 107.124Z" fill="var(--fl-fgColor, #003749)"/>
<path d="M130.609 66.8472H105.988C105.231 66.8472 104.617 67.4669 104.617 68.2309C104.617 68.9948 105.231 69.6145 105.988 69.6145H130.609C131.366 69.6145 131.98 68.9948 131.98 68.2309C131.98 67.4669 131.366 66.8472 130.609 66.8472Z" fill="var(--fl-fgColor, #003749)"/>
<path d="M130.609 75.7279H105.988C105.231 75.7279 104.617 76.3477 104.617 77.1116C104.617 77.8755 105.231 78.4953 105.988 78.4953H130.609C131.366 78.4953 131.98 77.8755 131.98 77.1116C131.98 76.3477 131.366 75.7279 130.609 75.7279Z" fill="var(--fl-fgColor, #003749)"/>
<path d="M130.609 86.4539H89.8204L95.0816 83.131C95.2832 83.0041 95.4706 82.7866 95.5669 82.6022C95.5674 82.6013 95.5684 82.6003 95.5688 82.5994C100.943 72.2349 99.8912 74.2628 110.308 54.1718C112.077 50.7608 110.768 46.5321 107.388 44.7452C104.006 42.9606 99.8267 44.271 98.0519 47.695C95.111 53.3672 88.0679 66.9502 83.3125 76.1225C83.312 76.1235 83.312 76.1249 83.311 76.1259C83.2337 76.2763 83.1464 76.589 83.1578 76.8295L83.609 86.4535H82.1521C81.3954 86.4535 80.7815 87.0732 80.7815 87.8371C80.7815 88.6011 81.3954 89.2208 82.1521 89.2208H130.609C131.365 89.2208 131.979 88.6011 131.979 87.8371C131.979 87.0732 131.365 86.4535 130.609 86.4535L130.609 86.4539ZM98.0225 53.7187L105.423 57.6294L93.7765 80.0906L86.3762 76.1795L98.0225 53.7183V53.7187ZM86.3041 85.4108L86.009 79.1083L91.6018 82.0644L86.3041 85.4103V85.4108ZM107.88 52.8897L106.694 55.1781L99.2934 51.2675L100.481 48.9776C101.551 46.9143 104.073 46.1145 106.118 47.1969C108.158 48.275 108.95 50.8288 107.881 52.8892L107.88 52.8897Z" fill="var(--fl-fgColor, #003749)"/>
<path d="M130.609 97.1796H113.21C112.453 97.1796 111.84 97.7993 111.84 98.5632C111.84 99.3272 112.453 99.9469 113.21 99.9469H130.609C131.366 99.9469 131.98 99.3272 131.98 98.5632C131.98 97.7993 131.366 97.1796 130.609 97.1796Z" fill="var(--fl-fgColor, #003749)"/>
<path d="M106.382 97.1796H82.153C81.3964 97.1796 80.7825 97.7993 80.7825 98.5632C80.7825 99.3272 81.3964 99.9469 82.153 99.9469H106.382C107.138 99.9469 107.752 99.3272 107.752 98.5632C107.752 97.7993 107.138 97.1796 106.382 97.1796Z" fill="var(--fl-fgColor, #003749)"/>
<path d="M81.1965 41.2919H89.9283" stroke="var(--fl-fgColor, #003749)" stroke-width="3" stroke-linejoin="round"/>
<path d="M92.0007 45.479L85.4988 30.6301L79 45.479" stroke="var(--fl-fgColor, #003749)" stroke-width="3" stroke-linejoin="round"/>
<path d="M96 30V46" stroke="var(--fl-fgColor, #003749)" stroke-width="3" stroke-linejoin="round"/>
</g>
<defs>
<clipPath id="clip0_0_1">
<rect width="78" height="95" fill="white" transform="translate(60 25)"/>
</clipPath>
</defs>
</svg>
