<svg width="153" height="120" viewBox="0 0 153 120" fill="none" xmlns="http://www.w3.org/2000/svg">
<path opacity="0.75" d="M60 120C93.1371 120 120 93.1371 120 60C120 26.8629 93.1371 0 60 0C26.8629 0 0 26.8629 0 60C0 93.1371 26.8629 120 60 120Z" fill="var(--fl-fgColor, #F0EC96)"/>
<path d="M106.117 19.1254C92.2901 18.0719 71.1838 23.1354 71.0009 54.3868C70.8871 74.1103 82.1657 77.8549 84.1898 84.4376C86.1203 90.7222 82.7916 92.7313 84.2914 96.1206C91.1277 111.561 96.5536 116.804 114.66 117C120.2 117.061 123.281 103.075 123.281 103.075C123.281 103.075 138.356 103.324 140.424 100.053C141.884 97.7418 141.762 96.092 140.652 92.0248C139.543 87.9576 145.798 90.3057 142.879 85.8383C141.493 83.7107 146.106 82.9757 143.583 78.6227C142.225 76.2787 150.728 75.6702 151 72.6648C149.955 68.2055 143.404 62.8969 143.168 54.8605C142.546 33.3647 134.543 21.2897 106.117 19.1254Z" stroke="var(--fl-fgColor, #414141)" stroke-width="3" stroke-linejoin="round"/>
<path d="M96 42H117V63H96V42Z" stroke="var(--fl-fgColor, #414141)" stroke-width="3" stroke-linejoin="round"/>
<path d="M115.223 32.0105V37.364" stroke="var(--fl-fgColor, #414141)" stroke-width="3" stroke-linejoin="round"/>
<path d="M97.2451 32.0105V37.364" stroke="var(--fl-fgColor, #414141)" stroke-width="3" stroke-linejoin="round"/>
<path d="M103.238 32.0105V37.364" stroke="var(--fl-fgColor, #414141)" stroke-width="3" stroke-linejoin="round"/>
<path d="M109.23 32.0105V37.364" stroke="var(--fl-fgColor, #414141)" stroke-width="3" stroke-linejoin="round"/>
<path d="M126.443 61.5056H121.143" stroke="var(--fl-fgColor, #414141)" stroke-width="3" stroke-linejoin="round"/>
<path d="M126.443 43.3445H121.143" stroke="var(--fl-fgColor, #414141)" stroke-width="3" stroke-linejoin="round"/>
<path d="M126.443 49.3982H121.143" stroke="var(--fl-fgColor, #414141)" stroke-width="3" stroke-linejoin="round"/>
<path d="M126.443 55.4519H121.143" stroke="var(--fl-fgColor, #414141)" stroke-width="3" stroke-linejoin="round"/>
<path d="M97.2451 72.8435V67.486" stroke="var(--fl-fgColor, #414141)" stroke-width="3" stroke-linejoin="round"/>
<path d="M115.223 72.8435V67.486" stroke="var(--fl-fgColor, #414141)" stroke-width="3" stroke-linejoin="round"/>
<path d="M109.23 72.8435V67.486" stroke="var(--fl-fgColor, #414141)" stroke-width="3" stroke-linejoin="round"/>
<path d="M103.238 72.8435V67.486" stroke="var(--fl-fgColor, #414141)" stroke-width="3" stroke-linejoin="round"/>
<path d="M86.0254 43.3445H91.3259" stroke="var(--fl-fgColor, #414141)" stroke-width="3" stroke-linejoin="round"/>
<path d="M86.0254 61.5056H91.3259" stroke="var(--fl-fgColor, #414141)" stroke-width="3" stroke-linejoin="round"/>
<path d="M86.0254 55.4519H91.3259" stroke="var(--fl-fgColor, #414141)" stroke-width="3" stroke-linejoin="round"/>
<path d="M86.0254 49.3982H91.3259" stroke="var(--fl-fgColor, #414141)" stroke-width="3" stroke-linejoin="round"/>
</svg>
