<svg width="171" height="120" viewBox="0 0 171 120" fill="none" xmlns="http://www.w3.org/2000/svg">
<path opacity="0.75" d="M60 120C93.1371 120 120 93.1371 120 60C120 26.8629 93.1371 0 60 0C26.8629 0 0 26.8629 0 60C0 93.1371 26.8629 120 60 120Z" fill="var(--fl-fgColor, #A9CCDC)" />
<path d="M108.222 66.4184L99.1257 43.4226L90.0237 66.4184" stroke="var(--fl-fgColor, #003749)" stroke-width="3" stroke-linecap="round" stroke-linejoin="round"/>
<path d="M93.2893 58.1753H104.962" stroke="var(--fl-fgColor, #003749)" stroke-width="3" stroke-linecap="round" stroke-linejoin="round"/>
<path d="M116.876 44.3579V66.4183" stroke="var(--fl-fgColor, #003749)" stroke-width="3" stroke-linecap="round" stroke-linejoin="round"/>
<path d="M59.4583 91.3254C60.1613 88.347 58.3167 85.3626 55.3383 84.6596C52.3598 83.9566 49.3755 85.8013 48.6725 88.7797C47.9695 91.7581 49.8142 94.7425 52.7926 95.4455C55.771 96.1484 58.7554 94.3038 59.4583 91.3254Z" stroke="var(--fl-fgColor, #003749)" stroke-width="3" stroke-linecap="round" stroke-linejoin="round"/>
<path d="M48.7544 62.1213C50.9184 59.9573 50.9184 56.4489 48.7544 54.285C46.5905 52.1211 43.0821 52.1211 40.9181 54.285C38.7542 56.4489 38.7542 59.9573 40.9181 62.1213C43.0821 64.2852 46.5905 64.2852 48.7544 62.1213Z" stroke="var(--fl-fgColor, #003749)" stroke-width="3" stroke-linecap="round" stroke-linejoin="round"/>
<path d="M54.9529 31.8266C57.9736 31.3362 60.0249 28.49 59.5346 25.4692C59.0443 22.4485 56.198 20.3972 53.1773 20.8876C50.1565 21.3779 48.1053 24.2242 48.5956 27.2449C49.0859 30.2656 51.9322 32.3169 54.9529 31.8266Z" stroke="var(--fl-fgColor, #003749)" stroke-width="3" stroke-linecap="round" stroke-linejoin="round"/>
<path d="M56.8264 58.2026H84.138" stroke="var(--fl-fgColor, #003749)" stroke-width="3" stroke-linecap="round" stroke-linejoin="round"/>
<path d="M62.6028 80.6348L64.4899 78.7477C65.9285 77.3091 67.8758 76.4995 69.9107 76.4995H73.4115" stroke="var(--fl-fgColor, #003749)" stroke-width="3" stroke-linecap="round" stroke-linejoin="round"/>
<path d="M62.6028 35.7756L64.4899 37.6628C65.9285 39.1014 67.8758 39.9109 69.9107 39.9109H74.3578" stroke="var(--fl-fgColor, #003749)" stroke-width="3" stroke-linecap="round" stroke-linejoin="round"/>
<path d="M155.196 95.4588C158.175 94.7589 160.023 91.7765 159.323 88.7974C158.623 85.8182 155.641 83.9705 152.662 84.6703C149.683 85.3702 147.835 88.3526 148.535 91.3317C149.235 94.3109 152.217 96.1586 155.196 95.4588Z" stroke="var(--fl-fgColor, #003749)" stroke-width="3" stroke-linecap="round" stroke-linejoin="round"/>
<path d="M167.082 62.1208C169.246 59.9569 169.246 56.4484 167.082 54.2845C164.918 52.1206 161.41 52.1206 159.246 54.2845C157.082 56.4484 157.082 59.9568 159.246 62.1208C161.41 64.2847 164.918 64.2847 167.082 62.1208Z" stroke="var(--fl-fgColor, #003749)" stroke-width="3" stroke-linecap="round" stroke-linejoin="round"/>
<path d="M159.405 27.2418C159.893 24.2209 157.841 21.3757 154.82 20.8869C151.799 20.3982 148.954 22.4509 148.465 25.4719C147.976 28.4929 150.029 31.3381 153.05 31.8269C156.071 32.3156 158.916 30.2628 159.405 27.2418Z" stroke="var(--fl-fgColor, #003749)" stroke-width="3" stroke-linecap="round" stroke-linejoin="round"/>
<path d="M151.173 58.2026H142.782" stroke="var(--fl-fgColor, #003749)" stroke-width="3" stroke-linecap="round" stroke-linejoin="round"/>
<path d="M145.391 80.6348L143.504 78.7477C142.065 77.3091 140.118 76.4995 138.083 76.4995H113.529" stroke="var(--fl-fgColor, #003749)" stroke-width="3" stroke-linecap="round" stroke-linejoin="round"/>
<path d="M145.391 35.7756L143.504 37.6628C142.066 39.1014 140.118 39.9109 138.084 39.9109H126.509" stroke="var(--fl-fgColor, #003749)" stroke-width="3" stroke-linecap="round" stroke-linejoin="round"/>
<path d="M135.616 46.6172C135.944 48.4387 136.12 50.3094 136.136 52.2294C136.191 60.0679 133.472 66.1286 128.823 72.8622C124.72 78.8026 118.282 83.2168 116.882 90.3442" stroke="var(--fl-fgColor, #003749)" stroke-width="3" stroke-linecap="round" stroke-linejoin="round"/>
<path d="M72.0439 48.9691C73.756 32.7507 87.3161 20.3174 104 20.3174C117.335 20.3174 128.675 28.2653 133.565 39.7413" stroke="var(--fl-fgColor, #003749)" stroke-width="3" stroke-linecap="round" stroke-linejoin="round"/>
<path d="M91.1125 90.3388C89.7121 83.2169 83.5639 79.2511 79.1715 72.8567C75.7856 67.9228 73.4116 63.3663 72.3997 58.2026" stroke="var(--fl-fgColor, #003749)" stroke-width="3" stroke-linecap="round" stroke-linejoin="round"/>
<path d="M104.071 103.067H91.7141C89.6574 103.067 87.989 101.399 87.989 99.3422C87.989 97.2855 89.6574 95.6172 91.7141 95.6172H95.4227" stroke="var(--fl-fgColor, #003749)" stroke-width="3" stroke-linecap="round" stroke-linejoin="round"/>
<path d="M99.9903 110.523H94.5149C92.4581 110.523 90.7898 108.854 90.7898 106.798C90.7898 104.741 92.4581 103.073 94.5149 103.073H104.071" stroke="var(--fl-fgColor, #003749)" stroke-width="3" stroke-linecap="round" stroke-linejoin="round"/>
<path d="M104.071 117.973H101.746C99.6896 117.973 98.0212 116.304 98.0212 114.248C98.0212 112.191 98.0212 110.523 98.0212 110.523" stroke="var(--fl-fgColor, #003749)" stroke-width="3" stroke-linecap="round" stroke-linejoin="round"/>
<path d="M112.112 103.067H116.428C118.484 103.067 120.153 101.399 120.153 99.3422C120.153 97.2855 118.484 95.6172 116.428 95.6172H104.071" stroke="var(--fl-fgColor, #003749)" stroke-width="3" stroke-linecap="round" stroke-linejoin="round"/>
<path d="M106.396 110.523H113.633C115.689 110.523 117.358 108.854 117.358 106.798C117.358 104.741 115.689 103.073 113.633 103.073H112.117" stroke="var(--fl-fgColor, #003749)" stroke-width="3" stroke-linecap="round" stroke-linejoin="round"/>
<path d="M104.071 117.973H106.396C108.453 117.973 110.121 116.304 110.121 114.248V110.523" stroke="var(--fl-fgColor, #003749)" stroke-width="3" stroke-linecap="round" stroke-linejoin="round"/>
</svg>
