<svg width="163" height="136" viewBox="0 0 163 136" fill="none" xmlns="http://www.w3.org/2000/svg">
<path opacity="0.75" d="M60 120C93.1371 120 120 93.1371 120 60C120 26.8629 93.1371 0 60 0C26.8629 0 0 26.8629 0 60C0 93.1371 26.8629 120 60 120Z" fill="var(--fl-fgColor, #F0EC96)"/>
<path d="M75.089 87.2092C80.3673 85.6945 89.0717 85.3786 94.5921 86.7758C104.673 89.3232 112.295 98.885 121.234 102.619C123.07 103.388 124.704 104.522 125.737 106.373C128.76 111.788 122.876 114.469 118.575 114.303C125.148 118.025 132.428 116.214 139.591 115.433C143.078 115.056 146.617 114.534 150.119 114.518C153.574 114.497 159.728 115.016 160.797 119.041C161.838 122.966 158.658 123.893 156.172 124.501C150.184 125.963 144.034 127.437 138.053 128.947C128.933 131.252 115.625 136.063 106.283 133.021C101.174 131.357 96.5493 128.64 91.8763 126.019C86.3599 122.917 78.0712 119.454 71.776 118.754M118.575 114.299L100.92 105.616M119.043 33.8803L92.288 34.3136M150.91 96.609L144.918 83.0905L151.665 77.3761L151.572 65.0523M149.256 46.5321L138.07 35.484M80.0607 46.6819C82.0219 46.6536 83.5836 45.0053 83.5513 43.0046C83.519 41.004 81.9048 39.4084 79.9436 39.4407C77.9824 39.4691 76.4207 41.1174 76.453 43.118C76.4853 45.1187 78.0995 46.7143 80.0607 46.6819ZM80.0607 46.6819L80.2665 59.3865L90.9079 69.8029M108.417 74.2252L117.307 83.0053L131.863 82.7664L138.308 96.9937M109.362 58.9086C108.054 60.4111 105.803 60.565 104.33 59.2569C102.857 57.9488 102.719 55.6687 104.027 54.1662C105.334 52.6637 107.586 52.5098 109.059 53.8179C110.532 55.126 110.669 57.4061 109.362 58.9086ZM109.362 58.9086L120.536 69.1143M120.536 69.1143C119.228 70.6168 119.365 72.8969 120.838 74.205C122.311 75.5131 124.563 75.3593 125.871 73.8567C127.178 72.3542 127.041 70.0742 125.568 68.766C124.095 67.4579 121.843 67.6118 120.536 69.1143ZM97.764 46.7306C97.7963 48.7312 96.2346 50.3795 94.2734 50.4119C92.3122 50.4443 90.698 48.8487 90.6658 46.848C90.6335 44.8474 92.1952 43.1991 94.1564 43.1707C96.1176 43.1383 97.7318 44.734 97.764 46.7346V46.7306ZM97.764 46.7306L119.244 46.3823M135.523 67.6969C137.501 67.6645 139.131 69.248 139.163 71.2284C139.195 73.2128 137.618 74.8449 135.64 74.8773C133.663 74.9097 132.033 73.3262 132 71.3458C131.968 69.3654 133.546 67.7293 135.523 67.6969ZM135.523 67.6969L134.914 49.6951M71.2029 124.525L54 122.646L58.3421 79.4212L75.5491 81.3004L71.2029 124.525ZM155.523 100.011C155.555 102.012 153.993 103.66 152.032 103.688C150.071 103.721 148.457 102.125 148.424 100.124C148.392 98.1237 149.954 96.4754 151.915 96.447C153.876 96.4146 155.49 98.0103 155.523 100.011ZM143.388 100.205C143.421 102.206 141.859 103.854 139.898 103.883C137.936 103.915 136.322 102.319 136.29 100.319C136.258 98.318 137.819 96.6697 139.781 96.6413C141.742 96.6089 143.356 98.2046 143.388 100.205ZM109.071 72.0788C109.104 74.0795 107.542 75.7278 105.581 75.7561C103.619 75.7885 102.005 74.1929 101.973 72.1922C101.941 70.1916 103.502 68.5433 105.464 68.5149C107.425 68.4825 109.039 70.0782 109.071 72.0788ZM97.0376 72.2733C97.0698 74.2739 95.5082 75.9222 93.5469 75.9506C91.5857 75.983 89.9716 74.3873 89.9393 72.3867C89.907 70.386 91.4687 68.7377 93.4299 68.7053C95.3911 68.6729 97.0053 70.2686 97.0376 72.2692V72.2733ZM92.1306 34.3177C92.1629 36.3183 90.6012 37.9666 88.6399 37.995C86.6787 38.0274 85.0646 36.4317 85.0323 34.4311C85 32.4304 86.5617 30.7821 88.5229 30.7538C90.4841 30.7214 92.0983 32.317 92.1306 34.3177ZM138.522 33.5644C138.554 35.565 136.992 37.2133 135.031 37.2417C133.07 37.2741 131.456 35.6784 131.423 33.6778C131.391 31.6771 132.953 30.0288 134.914 30.0005C136.875 29.9681 138.489 31.5637 138.522 33.5644ZM126.141 33.7628C126.173 35.7635 124.612 37.4118 122.65 37.4401C120.689 37.4725 119.075 35.8769 119.043 33.8762C119.01 31.8756 120.572 30.2273 122.533 30.1989C124.494 30.1665 126.109 31.7622 126.141 33.7628ZM155.083 49.1118C155.115 51.1125 153.553 52.7608 151.592 52.7891C149.631 52.8215 148.017 51.2259 147.985 49.2252C147.952 47.2246 149.514 45.5763 151.475 45.5479C153.436 45.5155 155.051 47.1112 155.083 49.1118ZM155.281 61.3789C155.313 63.3796 153.751 65.0279 151.79 65.0562C149.829 65.0886 148.215 63.493 148.182 61.4923C148.15 59.4917 149.712 57.8434 151.673 57.815C153.634 57.7826 155.248 59.3783 155.281 61.3789ZM126.343 46.2648C126.375 48.2654 124.813 49.9137 122.852 49.9421C120.891 49.9745 119.277 48.3788 119.244 46.3782C119.212 44.3775 120.774 42.7292 122.735 42.7009C124.696 42.6685 126.31 44.2641 126.343 46.2648ZM135.116 42.3891C137.093 42.3567 138.723 43.9402 138.756 45.9206C138.788 47.905 137.21 49.5371 135.233 49.5695C133.255 49.6019 131.625 48.0184 131.593 46.038C131.56 44.0536 133.138 42.4215 135.116 42.3891Z" stroke="var(--fl-fgColor, #00394C)" stroke-width="3" stroke-linejoin="round"/>
</svg>
