<svg width="188" height="121" viewBox="0 0 188 121" fill="none" xmlns="http://www.w3.org/2000/svg">
<path opacity="0.75" d="M60 120C93.1371 120 120 93.1371 120 60C120 26.8629 93.1371 0 60 0C26.8629 0 0 26.8629 0 60C0 93.1371 26.8629 120 60 120Z" fill="var(--fl-fgColor, #BCDCA9)"/>
<path d="M111.258 26H41V96.2636H111.258V26Z" stroke="var(--fl-fgColor, #003749)" stroke-width="3" stroke-linejoin="round"/>
<path d="M57.449 67.1721H74.8029" stroke="var(--fl-fgColor, #003749)" stroke-width="3" stroke-linejoin="round"/>
<path d="M78.9201 75.4674L66.0024 46.0498L53.0908 75.4674" stroke="var(--fl-fgColor, #003749)" stroke-width="3" stroke-linejoin="round"/>
<path d="M88.1899 44.4951V76.4997" stroke="var(--fl-fgColor, #003749)" stroke-width="3" stroke-linejoin="round"/>
<path d="M147.632 45.3026L147.632 45.3026C147.801 45.3895 147.942 45.5111 148.067 45.6338C148.129 45.6954 148.191 45.7602 148.25 45.823L148.255 45.8288C148.314 45.8905 148.371 45.9507 148.43 46.0102C149.617 47.1968 150.599 48.5523 151.456 50.0174C152.518 51.8338 153.338 53.7037 153.91 55.9959C154.289 57.5155 154.482 59.1459 154.55 60.9153C154.631 63.0611 154.288 65.4575 153.776 67.3016C153.389 68.6946 152.879 70.0392 152.258 71.2742C152.214 71.3601 152.172 71.4524 152.125 71.5517C152.113 71.5782 152.1 71.6051 152.088 71.6326C152.028 71.7608 151.963 71.8972 151.89 72.0301C151.748 72.2915 151.566 72.5646 151.312 72.7474C150.789 73.1236 150.131 73.0816 149.649 72.7847C149.161 72.4838 148.831 71.9085 148.98 71.2127M147.632 45.3026L149.224 71.2648M147.632 45.3026C146.509 44.7281 145.323 45.6768 145.49 46.8689C145.557 47.3469 145.822 47.6107 146.062 47.8503C146.072 47.8598 146.081 47.8693 146.091 47.8788C147.288 49.0758 148.274 50.4445 149.124 51.9575C150.775 54.8959 151.945 59.0132 151.462 63.3979C151.154 66.1904 150.401 68.4249 149.341 70.4426M147.632 45.3026L149.563 70.5588M148.98 71.2127L149.224 71.2648M148.98 71.2127C148.98 71.2127 148.98 71.2127 148.98 71.2127L149.224 71.2648M148.98 71.2127C149.014 71.0546 149.079 70.9153 149.145 70.7925C149.175 70.737 149.207 70.6818 149.237 70.6296L149.246 70.6131C149.28 70.5548 149.312 70.4992 149.341 70.4426M149.224 71.2648C149.263 71.0847 149.356 70.9234 149.454 70.7542C149.49 70.6907 149.528 70.626 149.563 70.5588M149.341 70.4426C149.341 70.4426 149.341 70.4426 149.341 70.4426L149.563 70.5588M149.341 70.4426L149.563 70.5588M154.181 91.5436C153.496 92.2505 153.14 93.3921 153.476 94.5193C153.636 95.0553 153.947 95.4853 154.284 95.8527C154.453 96.0364 154.631 96.2071 154.802 96.3679C154.841 96.4044 154.88 96.4402 154.918 96.4755C155.049 96.5978 155.173 96.7141 155.29 96.8309C158.819 100.359 162.341 103.884 165.862 107.408C169.591 111.14 173.318 114.87 177.048 118.599C177.129 118.68 177.21 118.764 177.292 118.849C177.861 119.44 178.502 120.104 179.594 120.23C180.248 120.305 180.865 120.161 181.338 119.926C181.774 119.709 182.089 119.39 182.377 119.098C182.416 119.059 182.454 119.02 182.492 118.982C182.968 118.506 183.429 118.045 183.886 117.588C184.732 116.742 185.564 115.911 186.449 115.025C186.489 114.986 186.53 114.946 186.571 114.905C186.854 114.626 187.176 114.31 187.392 113.889C187.636 113.416 187.782 112.767 187.682 112.077C187.527 110.998 186.876 110.368 186.28 109.791C186.198 109.711 186.116 109.632 186.038 109.553C182.501 106.017 178.97 102.491 175.441 98.9663C171.716 95.2455 167.992 91.5263 164.264 87.7994C164.161 87.6962 164.051 87.5789 163.935 87.4558C163.73 87.2377 163.508 87.0014 163.278 86.7938C162.907 86.4579 162.472 86.1508 161.934 85.9999C160.819 85.6876 159.728 86.0579 159 86.7126C158.633 86.3438 158.264 85.9732 157.894 85.6021C156.847 84.551 155.796 83.4949 154.761 82.4602C154.691 82.3909 154.626 82.3289 154.563 82.2703C154.467 82.1799 154.379 82.0975 154.301 82.0087C155.974 79.9591 157.4 77.6481 158.563 75.077L158.335 74.974L158.563 75.077C159.756 72.4402 160.671 69.4733 161.085 66.1059C161.298 64.3696 161.4 62.4726 161.322 60.6666C161.085 55.1962 159.607 50.8403 157.645 47.103C156.336 44.6117 154.721 42.3838 152.87 40.3864C149.199 36.4264 144.617 33.3012 138.738 31.536C135.184 30.469 130.874 29.9012 126.682 30.291L126.706 30.54L126.682 30.291C121.55 30.7685 117.423 32.2589 113.785 34.2779C111.74 35.413 109.862 36.8082 108.177 38.3418C106.474 39.892 104.952 41.5704 103.597 43.4396C100.906 47.1531 98.8358 51.6355 97.9916 57.1685C97.5675 59.9476 97.4999 63.3148 97.888 66.197C98.2688 69.0252 98.9769 71.5606 99.8892 73.8743C101.68 78.4166 104.454 82.2817 107.764 85.3359L107.934 85.1522L107.764 85.3359C112.032 89.2738 117.128 92.1443 123.879 93.3993C126.694 93.9226 129.654 93.9863 132.494 93.7409C136.866 93.3632 140.588 92.087 143.779 90.5095L143.668 90.2854L143.779 90.5095C145.872 89.4746 147.724 88.2342 149.476 86.8399C151.05 88.4025 152.618 89.9703 154.181 91.5436ZM103.306 74.237L103.079 74.3415L103.306 74.237C102.554 72.6033 101.889 70.8267 101.424 68.8711C100.957 66.9045 100.607 64.7728 100.607 62.4571C100.607 57.635 101.564 53.776 103.043 50.3935C104.528 46.9962 106.494 44.2595 108.907 41.7748C112.421 38.1573 117.011 35.3114 122.792 33.9307L122.733 33.6876L122.792 33.9307C123.77 33.6971 124.779 33.5093 125.825 33.3767C126.861 33.2453 127.925 33.1983 129.054 33.1579C131.189 33.0814 133.482 33.3514 135.451 33.7703L135.503 33.5258L135.451 33.7703C139.479 34.6274 142.718 36.1355 145.633 38.0872C147.083 39.0579 148.433 40.1291 149.626 41.3215C152.084 43.7791 154.08 46.4435 155.652 49.7964C156.406 51.4035 157.089 53.2035 157.548 55.1458C158.013 57.1158 158.353 59.2558 158.365 61.5613C158.404 68.7318 156.254 73.9804 153.347 78.2906C150.439 82.6013 146.507 85.9383 141.59 88.25C139.132 89.406 136.348 90.265 133.147 90.6698C132.085 90.8041 130.979 90.8514 129.831 90.8886C127.961 90.9492 125.367 90.6734 123.491 90.2761L123.44 90.5207L123.491 90.2761C121.496 89.8536 119.638 89.2441 117.993 88.5266C114.663 87.0737 111.719 85.0974 109.331 82.7103C106.898 80.277 104.84 77.5701 103.306 74.237ZM179.344 116.657L179.167 116.834L179.344 116.657C173.124 110.44 166.947 104.264 160.744 98.0619C159.482 96.7995 158.218 95.5361 156.953 94.2711C156.904 94.2221 156.839 94.1639 156.774 94.1063L156.749 94.0831C156.673 94.0153 156.595 93.945 156.525 93.8748C156.454 93.8035 156.399 93.7401 156.364 93.6874C156.347 93.6617 156.34 93.6454 156.336 93.6372C156.337 93.6354 156.338 93.6333 156.339 93.6309C156.343 93.6195 156.352 93.604 156.365 93.5842C156.392 93.5436 156.433 93.4968 156.487 93.4437C156.54 93.3911 156.599 93.3389 156.66 93.2849L156.67 93.2761C156.725 93.227 156.785 93.174 156.835 93.1244C157.457 92.5027 158.077 91.8796 158.694 91.2584L158.707 91.2452C159.321 90.6283 159.932 90.0134 160.542 89.4032C160.582 89.3634 160.622 89.3213 160.664 89.2775C160.73 89.2082 160.8 89.1345 160.88 89.0587C160.941 89.0008 160.996 88.953 161.042 88.9197C161.066 88.903 161.082 88.8939 161.09 88.8891C161.1 88.8923 161.117 88.8992 161.142 88.9143C161.196 88.9462 161.261 88.9978 161.335 89.0653C161.406 89.1317 161.478 89.2063 161.547 89.2793C161.565 89.2982 161.583 89.3175 161.6 89.3367C161.648 89.3879 161.695 89.438 161.734 89.4767C164.226 91.9686 166.712 94.4542 169.198 96.9386C174.165 101.904 179.128 106.866 184.125 111.863C184.186 111.924 184.263 111.994 184.335 112.061C184.411 112.131 184.485 112.201 184.551 112.27C184.618 112.34 184.668 112.401 184.7 112.452C184.72 112.485 184.726 112.503 184.728 112.509C184.728 112.509 184.728 112.509 184.728 112.51C184.726 112.518 184.719 112.537 184.698 112.57C184.67 112.61 184.63 112.657 184.576 112.709C184.523 112.761 184.464 112.813 184.403 112.866L184.394 112.873C184.338 112.922 184.277 112.975 184.228 113.024L180.476 116.775C180.43 116.821 180.378 116.879 180.329 116.934L180.316 116.949C180.261 117.011 180.206 117.072 180.151 117.127C180.096 117.183 180.048 117.225 180.008 117.252C179.992 117.262 179.981 117.268 179.974 117.272C179.964 117.267 179.947 117.259 179.921 117.241C179.868 117.204 179.806 117.149 179.736 117.079C179.667 117.01 179.598 116.934 179.53 116.859C179.466 116.788 179.399 116.713 179.344 116.657ZM154.294 87.4144C153.436 86.5601 152.579 85.7075 151.731 84.8353C151.831 84.7378 151.928 84.6394 152.024 84.5428L152.025 84.541C152.123 84.4423 152.219 84.3453 152.316 84.2506C153.082 85.0082 153.844 85.7712 154.606 86.5349L154.606 86.5353C155.369 87.2993 156.132 88.0641 156.9 88.8238C156.708 89.0312 156.508 89.2312 156.3 89.4238C155.633 88.7462 154.963 88.0798 154.294 87.4144Z" fill="var(--fl-fgColor, #003749)" stroke="var(--fl-fgColor, #003749)" stroke-width="0.5"/>
</svg>
