<svg xmlns="http://www.w3.org/2000/svg" role="img" style="" width="24" height="24"><rect id="backgroundrect" width="100%" height="100%" x="0" y="0" fill="none" stroke="none"/><title>Facebook icon</title><g class="currentLayer" style=""><title>Layer 1</title><path d="M23.9981,11.9991 C23.9981,5.37216 18.626,0 11.9991,0 C5.37216,0 0,5.37216 0,11.9991 C0,17.9882 4.3878900000000005,22.9522 10.1242,23.8524 V15.467600000000001 H7.07758 V11.9991 H10.1242 V9.35553 C10.1242,6.34826 11.9156,4.68714 14.6564,4.68714 C15.9692,4.68714 17.3424,4.92149 17.3424,4.92149 V7.87439 H15.8294 C14.3388,7.87439 13.8739,8.79933 13.8739,9.748240000000001 V11.9991 H17.2018 L16.6698,15.467600000000001 H13.8739 V23.8524 C19.6103,22.9522 23.9981,17.9882 23.9981,11.9991 z" id="svg_1" class="" fill="#ffffff" fill-opacity="1"/></g></svg>