<svg xmlns="http://www.w3.org/2000/svg" xmlns:xlink="http://www.w3.org/1999/xlink" viewBox="0 25 340 75"><symbol id="a" viewBox="-58 -74 116 148"><g fill="#00A0CC"><path d="M-17.373 50.705C-4.644 29.849 11.315 3.7 21.102-18.533 26.351-12.396 34.668-3.271 42 4.143V56h-62.603l3.23-5.295z"/><path d="M23.712-24.747c3.08-7.731 5.239-14.837 6.034-20.886.908-6.913-.392-12.952-3.565-16.57-1.932-2.203-4.421-3.367-7.196-3.367-2.472 0-5.012 1.27-7.152 3.575-3.347 3.604-5.022 8.946-4.6 14.656.729 9.805 5.461 18.091 9.61 23.595C7.445-1.477-9.29 25.943-22.494 47.579c-1.771 2.9-3.491 5.72-5.13 8.421H-58V-74H42v69.536c-7.073-7.388-14.31-15.468-18.288-20.283z"/><path d="M16.229-57.912c1.137-1.224 2.194-1.658 2.756-1.658 1.026 0 1.904.433 2.687 1.323 1.975 2.252 2.789 6.785 2.126 11.833-.614 4.68-2.13 10.092-4.306 15.994-2.978-4.607-5.773-10.61-6.274-17.363-.298-3.992.828-7.779 3.011-10.129z"/></g><path fill="#00A0CC" d="M58 5.004A5.002 5.002 0 0 0 53 0c-2.758 0-5 2.239-5 5.004S50.242 10 53 10c2.76 0 5-2.231 5-4.996zM-22 68.002c0-3.31-2.69-6.002-6.003-6.002A6 6 0 1 0-22 68.002z"/></symbol><path fill="#333" d="M98 37.183c0-.42.063-.769.19-1.047s.301-.503.52-.674c.221-.171.479-.291.777-.359.297-.069.613-.103.945-.103s.645.034.938.103.55.188.769.359c.221.171.396.396.527.674.133.278.198.627.198 1.047 0 .41-.065.757-.198 1.04-.131.283-.307.51-.527.681-.219.171-.476.293-.769.366s-.605.11-.938.11-.647-.037-.944-.11a2.032 2.032 0 0 1-.777-.366c-.219-.171-.393-.398-.52-.681s-.191-.63-.191-1.04zm4.658 20.61H98.19V41.416h4.468v16.377zM120.964 57.793h-4.468v-9.565c0-1.182-.179-2.068-.534-2.659-.357-.591-.926-.886-1.707-.886-.586 0-1.074.117-1.465.352s-.701.581-.93 1.04c-.23.459-.394 1.025-.491 1.699s-.146 1.445-.146 2.314v7.705h-4.468V41.416h3.413l.601 2.095h.249c.234-.42.521-.781.856-1.084.338-.303.706-.552 1.106-.747s.825-.339 1.274-.432.908-.139 1.377-.139c.801 0 1.528.115 2.183.344s1.216.588 1.685 1.077.83 1.111 1.084 1.868.381 1.663.381 2.717v10.678zM131.853 58.086c-1.172 0-2.229-.161-3.171-.483-.943-.322-1.749-.823-2.418-1.501s-1.182-1.548-1.537-2.607c-.357-1.06-.535-2.327-.535-3.801 0-1.631.184-2.996.549-4.094.367-1.099.884-1.98 1.553-2.644s1.475-1.138 2.418-1.421c.941-.283 1.989-.425 3.142-.425.84 0 1.675.103 2.505.308s1.611.493 2.344.864l-1.289 3.398c-.645-.283-1.265-.515-1.86-.696s-1.162-.271-1.699-.271c-1.084 0-1.87.413-2.358 1.238s-.732 2.063-.732 3.713c0 1.641.244 2.852.732 3.633s1.255 1.172 2.3 1.172c.85 0 1.621-.11 2.314-.33s1.401-.5 2.124-.842v3.721c-.361.176-.713.332-1.055.469a8.238 8.238 0 0 1-2.117.535 10.47 10.47 0 0 1-1.21.064zM143.997 57.793h-4.468V35h4.468v22.793zM158.811 57.793l-.601-2.095h-.234a4.34 4.34 0 0 1-.871 1.077c-.338.298-.706.544-1.106.74s-.825.339-1.274.432-.908.139-1.377.139c-.801 0-1.528-.115-2.183-.344s-1.216-.588-1.685-1.077-.83-1.108-1.084-1.86-.381-1.655-.381-2.71V41.416h4.468v9.565c0 1.182.178 2.068.534 2.659s.926.886 1.707.886c.586 0 1.074-.117 1.465-.352s.7-.581.93-1.04.394-1.025.491-1.699.146-1.445.146-2.314v-7.705h4.468v16.377h-3.413zM177.497 52.93c0 .859-.156 1.611-.469 2.256s-.757 1.182-1.333 1.611-1.274.752-2.095.967-1.738.322-2.754.322c-.537 0-1.035-.017-1.494-.051s-.894-.09-1.304-.168-.806-.176-1.187-.293-.767-.264-1.157-.439v-3.691c.41.205.842.391 1.297.557.453.166.905.31 1.354.432s.886.217 1.312.286c.424.068.817.103 1.179.103.4 0 .742-.037 1.025-.11s.515-.176.696-.308c.18-.132.312-.288.395-.469s.125-.374.125-.579-.032-.388-.096-.549-.207-.332-.432-.513-.555-.386-.988-.615a34.989 34.989 0 0 0-1.751-.842 17.36 17.36 0 0 1-1.853-.959 5.305 5.305 0 0 1-1.289-1.062c-.338-.391-.589-.837-.755-1.34s-.249-1.101-.249-1.794c0-.762.146-1.428.439-2s.708-1.047 1.245-1.428 1.184-.667 1.94-.857 1.6-.286 2.527-.286c.977 0 1.904.112 2.783.337s1.782.562 2.71 1.011l-1.348 3.164c-.742-.352-1.45-.64-2.124-.864s-1.348-.337-2.021-.337c-.605 0-1.043.107-1.311.322-.27.215-.403.508-.403.879 0 .195.034.369.103.52s.205.308.41.469.493.337.864.527.854.422 1.45.696c.693.303 1.318.603 1.875.901s1.035.637 1.436 1.018.708.825.923 1.333.325 1.12.325 1.843zM180.354 37.183c0-.42.063-.769.19-1.047s.301-.503.52-.674c.221-.171.479-.291.777-.359.297-.068.612-.103.944-.103s.645.034.938.103.55.188.769.359c.221.171.396.396.527.674.133.278.198.627.198 1.047 0 .41-.065.757-.198 1.04-.131.283-.307.51-.527.681-.219.171-.476.293-.769.366s-.605.11-.938.11-.647-.037-.944-.11a2.032 2.032 0 0 1-.777-.366c-.219-.171-.393-.398-.52-.681s-.19-.63-.19-1.04zm4.659 20.61h-4.468V41.416h4.468v16.377zM192.992 57.793l-5.786-16.377h4.673l2.71 9.331c.166.557.31 1.135.432 1.736s.198 1.14.228 1.619h.088c.029-.518.104-1.067.228-1.648.121-.581.266-1.15.432-1.707l2.695-9.331h4.688l-5.786 16.377h-4.602zM212.209 58.086c-1.172 0-2.251-.171-3.237-.513s-1.836-.857-2.549-1.545-1.268-1.558-1.662-2.607c-.396-1.05-.594-2.283-.594-3.699 0-1.436.181-2.69.542-3.765s.866-1.97 1.517-2.688a6.175 6.175 0 0 1 2.344-1.619c.912-.361 1.926-.542 3.039-.542 1.084 0 2.062.164 2.938.491a5.936 5.936 0 0 1 2.227 1.443c.609.635 1.078 1.414 1.406 2.336.326.923.49 1.98.49 3.171v2.168h-9.99c.02.625.119 1.189.301 1.692.18.503.434.928.762 1.274.326.347.722.613 1.186.798s.994.278 1.59.278c.498 0 .969-.027 1.414-.081a10.121 10.121 0 0 0 2.541-.645c.41-.161.83-.349 1.26-.564v3.457a9.237 9.237 0 0 1-1.18.52 10.345 10.345 0 0 1-2.673.571c-.508.044-1.067.069-1.672.069zm-.571-13.799c-.791 0-1.448.278-1.971.835s-.822 1.431-.9 2.622h5.698c-.01-.498-.073-.957-.19-1.377s-.293-.784-.527-1.091-.527-.549-.879-.725-.763-.264-1.231-.264zM231.063 58.086c-.84 0-1.606-.181-2.3-.542s-1.289-.896-1.787-1.604-.887-1.589-1.164-2.644c-.279-1.055-.418-2.275-.418-3.662 0-1.406.139-2.639.418-3.699.277-1.06.674-1.948 1.186-2.666.514-.718 1.126-1.257 1.839-1.619s1.499-.542 2.358-.542c.527 0 1.011.061 1.45.183s.835.293 1.187.513.666.474.945.762c.277.288.524.603.739.945h.146a40.814 40.814 0 0 1-.161-1.157c-.049-.332-.091-.686-.125-1.062s-.051-.725-.051-1.047V35h4.468v22.793h-3.413l-.864-2.124h-.19c-.205.332-.439.647-.703.945s-.569.554-.916.769-.737.386-1.172.513-.925.19-1.472.19zm1.626-3.56c.527 0 .977-.09 1.348-.271s.671-.454.9-.82.4-.823.514-1.37c.111-.547.173-1.187.183-1.919v-.483c0-.791-.049-1.494-.146-2.109s-.259-1.13-.483-1.545-.527-.73-.908-.945-.859-.322-1.436-.322c-.938 0-1.626.422-2.065 1.267s-.659 2.073-.659 3.684.222 2.82.666 3.625 1.139 1.208 2.086 1.208zM251.155 58.086c-1.172 0-2.251-.171-3.237-.513s-1.836-.857-2.549-1.545-1.268-1.558-1.662-2.607c-.396-1.05-.594-2.283-.594-3.699 0-1.436.181-2.69.542-3.765s.866-1.97 1.517-2.688a6.175 6.175 0 0 1 2.344-1.619c.912-.361 1.926-.542 3.039-.542 1.084 0 2.062.164 2.938.491a5.936 5.936 0 0 1 2.227 1.443c.609.635 1.078 1.414 1.406 2.336.326.923.49 1.98.49 3.171v2.168h-9.99c.02.625.119 1.189.301 1.692.18.503.434.928.762 1.274.326.347.722.613 1.186.798s.994.278 1.59.278c.498 0 .969-.027 1.414-.081a10.121 10.121 0 0 0 2.541-.645c.41-.161.83-.349 1.26-.564v3.457a9.237 9.237 0 0 1-1.18.52 10.345 10.345 0 0 1-2.673.571c-.508.044-1.066.069-1.672.069zm-.571-13.799c-.791 0-1.448.278-1.971.835s-.822 1.431-.9 2.622h5.698c-.01-.498-.073-.957-.19-1.377s-.293-.784-.527-1.091-.527-.549-.879-.725-.762-.264-1.231-.264zM272.025 52.93c0 .859-.156 1.611-.469 2.256s-.757 1.182-1.333 1.611-1.274.752-2.095.967-1.738.322-2.754.322c-.537 0-1.035-.017-1.494-.051s-.894-.09-1.304-.168-.806-.176-1.187-.293-.767-.264-1.157-.439v-3.691c.41.205.842.391 1.297.557.453.166.905.31 1.354.432s.886.217 1.312.286c.424.068.817.103 1.179.103.4 0 .742-.037 1.025-.11s.515-.176.696-.308c.18-.132.312-.288.395-.469s.125-.374.125-.579-.032-.388-.096-.549-.207-.332-.432-.513-.555-.386-.988-.615a34.989 34.989 0 0 0-1.751-.842 17.36 17.36 0 0 1-1.853-.959 5.305 5.305 0 0 1-1.289-1.062c-.338-.391-.589-.837-.755-1.34s-.249-1.101-.249-1.794c0-.762.146-1.428.439-2s.708-1.047 1.245-1.428 1.184-.667 1.94-.857 1.6-.286 2.527-.286c.977 0 1.904.112 2.783.337s1.782.562 2.71 1.011l-1.348 3.164c-.742-.352-1.45-.64-2.124-.864s-1.348-.337-2.021-.337c-.605 0-1.043.107-1.311.322-.27.215-.403.508-.403.879 0 .195.034.369.103.52s.205.308.41.469.493.337.864.527.854.422 1.45.696c.693.303 1.318.603 1.875.901s1.035.637 1.436 1.018.708.825.923 1.333.325 1.12.325 1.843zM274.883 37.183c0-.42.063-.769.19-1.047s.301-.503.52-.674c.221-.171.479-.291.777-.359.297-.068.612-.103.944-.103s.645.034.938.103.55.188.769.359c.221.171.396.396.527.674.133.278.198.627.198 1.047 0 .41-.065.757-.198 1.04-.131.283-.307.51-.527.681-.219.171-.476.293-.769.366s-.605.11-.938.11-.647-.037-.944-.11a2.032 2.032 0 0 1-.777-.366c-.219-.171-.393-.398-.52-.681s-.19-.63-.19-1.04zm4.658 20.61h-4.468V41.416h4.468v16.377zM297.286 41.445v2.432l-2.388.747c.195.332.332.676.41 1.033s.117.74.117 1.15c0 .83-.132 1.589-.396 2.278s-.654 1.277-1.172 1.765-1.167.867-1.948 1.135-1.689.403-2.725.403c-.225 0-.469-.012-.732-.037s-.459-.051-.586-.081a2.22 2.22 0 0 0-.461.52 1.206 1.206 0 0 0-.169.652c0 .205.063.369.19.491s.293.22.498.293.444.122.718.146.557.037.85.037h2.549c.791 0 1.499.09 2.124.271s1.154.457 1.59.828c.434.371.769.842 1.003 1.414s.352 1.252.352 2.043c0 .928-.186 1.765-.557 2.512s-.926 1.382-1.663 1.904-1.652.923-2.746 1.201-2.358.418-3.793.418c-1.113 0-2.085-.105-2.915-.315s-1.523-.513-2.08-.908-.975-.872-1.252-1.428c-.279-.557-.418-1.187-.418-1.89 0-.596.103-1.113.308-1.553s.479-.815.82-1.128.729-.566 1.165-.762a7.32 7.32 0 0 1 1.34-.454 2.74 2.74 0 0 1-.607-.366 3.164 3.164 0 0 1-.543-.542 2.873 2.873 0 0 1-.395-.681 2.011 2.011 0 0 1-.154-.784c0-.312.046-.596.139-.85s.228-.491.403-.71.396-.427.659-.623.562-.396.894-.601c-.859-.371-1.541-.967-2.044-1.787s-.754-1.787-.754-2.9c0-.879.137-1.665.41-2.358s.674-1.282 1.201-1.765 1.182-.852 1.963-1.106 1.68-.381 2.695-.381c.195 0 .415.012.659.037s.485.054.726.088c.238.034.461.071.666.11s.366.073.483.103h5.566zm-11.719 18.662c0 .244.052.481.153.71.104.229.271.432.506.608s.542.315.923.417.85.154 1.406.154c1.523 0 2.671-.215 3.442-.645s1.157-1.006 1.157-1.729c0-.615-.239-1.025-.718-1.23s-1.221-.308-2.227-.308h-2.065c-.264 0-.547.032-.85.095s-.581.173-.835.33-.467.364-.637.623c-.17.26-.255.585-.255.975zm1.612-13.33c0 .889.166 1.577.498 2.065s.835.732 1.509.732c.703 0 1.211-.244 1.523-.732s.469-1.177.469-2.065c0-.879-.154-1.577-.461-2.095-.309-.518-.818-.776-1.531-.776-1.338 0-2.007.957-2.007 2.871zM314 57.793h-4.468v-9.565c0-1.182-.179-2.068-.534-2.659-.357-.591-.926-.886-1.707-.886-.586 0-1.074.117-1.465.352s-.701.581-.93 1.04c-.23.459-.394 1.025-.491 1.699s-.146 1.445-.146 2.314v7.705h-4.468V41.416h3.413l.601 2.095h.249c.234-.42.521-.781.856-1.084.338-.303.706-.552 1.106-.747s.825-.339 1.274-.432.908-.139 1.377-.139c.801 0 1.528.115 2.183.344s1.216.588 1.685 1.077.83 1.111 1.084 1.868.381 1.662.381 2.716v10.679zM105.107 75.33c.283 0 .601.012.952.037s.654.061.908.11l-.352 2.461c-.273-.049-.555-.09-.842-.125a6.98 6.98 0 0 0-.813-.051c-.615 0-1.177.125-1.685.374s-.945.605-1.311 1.069c-.367.464-.65 1.021-.85 1.67-.201.649-.301 1.37-.301 2.161v8.672h-2.666V75.623h2.168l.322 2.944h.117c.244-.42.506-.825.783-1.216.279-.391.591-.735.938-1.033s.735-.537 1.165-.718.921-.27 1.467-.27zM115.73 92c-1.074 0-2.056-.181-2.944-.542s-1.653-.889-2.292-1.582c-.641-.693-1.136-1.553-1.487-2.578s-.527-2.197-.527-3.516c0-1.328.161-2.515.483-3.56s.776-1.931 1.362-2.659 1.286-1.282 2.103-1.663c.814-.381 1.716-.571 2.702-.571.967 0 1.836.173 2.607.52s1.426.835 1.963 1.465.949 1.387 1.237 2.271.433 1.863.433 2.937v1.655h-10.137c.049 1.885.446 3.271 1.194 4.16.746.889 1.857 1.333 3.332 1.333a11.025 11.025 0 0 0 2.615-.285c.395-.093.778-.21 1.149-.352s.747-.3 1.128-.476v2.373c-.391.186-.774.347-1.15.483a9.464 9.464 0 0 1-2.386.527c-.426.04-.886.06-1.385.06zm-.659-14.458c-1.113 0-1.995.381-2.644 1.143-.65.762-1.028 1.87-1.136 3.325h7.207a7.79 7.79 0 0 0-.198-1.824c-.131-.552-.336-1.023-.615-1.414-.277-.391-.632-.693-1.062-.908s-.946-.322-1.552-.322zM134.602 87.298c0 .781-.142 1.465-.425 2.051s-.691 1.077-1.223 1.472c-.533.396-1.175.691-1.927.886s-1.596.293-2.534.293c-1.064 0-1.978-.085-2.739-.256s-1.431-.422-2.007-.754v-2.432c.303.156.64.31 1.011.461s.762.286 1.172.403.832.212 1.267.286.867.11 1.297.11c.635 0 1.174-.054 1.619-.161.443-.107.805-.261 1.084-.461.277-.2.48-.444.607-.732s.19-.608.19-.959c0-.303-.049-.576-.146-.82s-.276-.486-.534-.725c-.26-.239-.613-.481-1.062-.725s-1.025-.518-1.729-.82-1.336-.601-1.896-.894c-.562-.293-1.038-.62-1.429-.981s-.691-.779-.901-1.252-.314-1.038-.314-1.692c0-.684.134-1.292.402-1.824s.647-.979 1.136-1.34 1.074-.635 1.758-.82 1.445-.278 2.285-.278c.947 0 1.813.103 2.601.308.785.205 1.53.474 2.233.806l-.923 2.153a18.232 18.232 0 0 0-1.955-.74 6.795 6.795 0 0 0-2.044-.315c-.996 0-1.733.164-2.212.491s-.718.793-.718 1.399c0 .342.056.64.169.894.111.254.305.493.578.718s.64.452 1.099.681 1.03.486 1.714.769c.703.293 1.33.586 1.883.879.551.293 1.022.623 1.413.989s.688.784.894 1.252.306 1.026.306 1.68zM144.421 92c-1.074 0-2.056-.181-2.944-.542s-1.653-.889-2.292-1.582c-.641-.693-1.136-1.553-1.487-2.578s-.527-2.197-.527-3.516c0-1.328.161-2.515.483-3.56s.776-1.931 1.362-2.659 1.286-1.282 2.103-1.663c.814-.381 1.716-.571 2.702-.571.967 0 1.836.173 2.607.52s1.426.835 1.963 1.465.949 1.387 1.237 2.271.433 1.863.433 2.937v1.655h-10.137c.049 1.885.446 3.271 1.194 4.16.746.889 1.857 1.333 3.332 1.333a11.025 11.025 0 0 0 2.615-.285c.395-.093.778-.21 1.149-.352s.747-.3 1.128-.476v2.373c-.391.186-.774.347-1.15.483a9.464 9.464 0 0 1-2.386.527c-.426.04-.887.06-1.385.06zm-.659-14.458c-1.113 0-1.995.381-2.644 1.143-.65.762-1.028 1.87-1.136 3.325h7.207a7.79 7.79 0 0 0-.198-1.824c-.131-.552-.336-1.023-.615-1.414-.277-.391-.632-.693-1.062-.908s-.947-.322-1.552-.322zM162.531 91.707l-.542-2.227h-.117c-.322.439-.645.818-.967 1.135s-.674.579-1.055.784-.806.356-1.274.454-1.011.147-1.626.147c-.674 0-1.294-.095-1.86-.286s-1.058-.483-1.472-.879c-.416-.396-.74-.894-.975-1.494s-.352-1.311-.352-2.131c0-1.602.564-2.832 1.691-3.691 1.129-.859 2.845-1.328 5.149-1.406l2.695-.103v-1.011c0-.654-.071-1.201-.212-1.641-.143-.439-.348-.793-.615-1.062a2.33 2.33 0 0 0-.996-.579 4.787 4.787 0 0 0-1.355-.176c-.811 0-1.565.117-2.264.352s-1.369.518-2.014.85l-.938-2.007c.723-.391 1.528-.723 2.417-.996s1.821-.41 2.798-.41c.996 0 1.857.1 2.586.3.727.2 1.327.518 1.801.952s.828.989 1.062 1.663.352 1.489.352 2.446v11.016h-1.917zm-4.892-1.86c.596 0 1.147-.093 1.655-.278s.947-.466 1.318-.842.661-.85.871-1.421.315-1.243.315-2.014v-1.45l-2.095.103c-.879.039-1.616.137-2.212.293s-1.072.374-1.429.652-.612.615-.769 1.011-.234.842-.234 1.34c0 .898.236 1.558.71 1.978s1.098.628 1.87.628zM175.699 75.33c.283 0 .601.012.952.037s.654.061.908.11l-.352 2.461c-.273-.049-.555-.09-.842-.125a6.98 6.98 0 0 0-.813-.051c-.615 0-1.177.125-1.685.374s-.945.605-1.311 1.069c-.367.464-.65 1.021-.85 1.67-.201.649-.301 1.37-.301 2.161v8.672h-2.666V75.623h2.168l.322 2.944h.117c.244-.42.506-.825.783-1.216.279-.391.591-.735.938-1.033s.735-.537 1.165-.718.92-.27 1.467-.27zM186.15 92c-.986 0-1.909-.154-2.769-.461s-1.606-.796-2.241-1.465-1.133-1.523-1.494-2.563-.542-2.292-.542-3.757c0-1.533.186-2.834.557-3.904s.881-1.938 1.53-2.607 1.409-1.155 2.278-1.458 1.802-.454 2.798-.454c.762 0 1.506.083 2.234.249.727.166 1.335.371 1.823.615l-.791 2.256a10.54 10.54 0 0 0-2.461-.711 5.258 5.258 0 0 0-.806-.066c-1.533 0-2.651.491-3.354 1.472s-1.055 2.507-1.055 4.578c0 2.061.354 3.567 1.062 4.519s1.785 1.428 3.23 1.428c.791 0 1.506-.09 2.146-.271a11.861 11.861 0 0 0 1.75-.637v2.373a7.177 7.177 0 0 1-1.691.645c-.6.146-1.334.219-2.204.219zM203.334 91.707V81.351c0-1.27-.256-2.222-.77-2.856-.512-.635-1.315-.952-2.409-.952-.791 0-1.455.127-1.992.381s-.97.63-1.296 1.128c-.328.498-.562 1.108-.703 1.831-.143.723-.213 1.553-.213 2.49v8.335h-2.666V68.914h2.666v6.768l-.117 2.109h.146c.244-.42.535-.784.871-1.091.338-.308.706-.564 1.106-.769s.825-.356 1.274-.454.908-.146 1.377-.146c1.787 0 3.132.466 4.035 1.399S206 79.153 206 81.204v10.503h-2.666zM222.398 92.068c-.986 0-1.909-.154-2.769-.461s-1.606-.796-2.241-1.465-1.133-1.523-1.494-2.563-.542-2.292-.542-3.757c0-1.533.186-2.834.557-3.904s.881-1.938 1.53-2.607 1.409-1.155 2.278-1.458 1.802-.454 2.798-.454c.762 0 1.506.083 2.234.249.727.166 1.335.371 1.823.615l-.791 2.256a10.54 10.54 0 0 0-2.461-.711 5.258 5.258 0 0 0-.806-.066c-1.533 0-2.651.491-3.354 1.472s-1.055 2.507-1.055 4.578c0 2.061.354 3.567 1.062 4.519s1.785 1.428 3.23 1.428c.791 0 1.506-.09 2.146-.271a11.861 11.861 0 0 0 1.75-.637v2.373a7.177 7.177 0 0 1-1.691.645c-.6.146-1.334.219-2.204.219zM235.675 92.068c-1.074 0-2.056-.181-2.944-.542s-1.653-.889-2.292-1.582c-.641-.693-1.136-1.553-1.487-2.578s-.527-2.197-.527-3.516c0-1.328.161-2.515.483-3.56s.776-1.931 1.362-2.659 1.286-1.282 2.103-1.663c.814-.381 1.716-.571 2.702-.571.967 0 1.836.173 2.607.52s1.426.835 1.963 1.465.949 1.387 1.237 2.271.433 1.863.433 2.937v1.655h-10.137c.049 1.885.446 3.271 1.194 4.16.746.889 1.857 1.333 3.332 1.333a11.025 11.025 0 0 0 2.615-.285c.395-.093.778-.21 1.149-.352s.747-.3 1.128-.476v2.373c-.391.186-.774.347-1.15.483a9.464 9.464 0 0 1-2.386.527c-.426.041-.887.06-1.385.06zm-.659-14.458c-1.113 0-1.995.381-2.644 1.143-.65.762-1.028 1.87-1.136 3.325h7.207a7.79 7.79 0 0 0-.198-1.824c-.131-.552-.336-1.023-.615-1.414-.277-.391-.632-.693-1.062-.908s-.947-.322-1.552-.322zM254.887 91.775V81.419c0-1.27-.256-2.222-.77-2.856-.512-.635-1.315-.952-2.409-.952-.791 0-1.455.127-1.992.381s-.97.63-1.296 1.128c-.328.498-.562 1.108-.703 1.831-.143.723-.213 1.553-.213 2.49v8.335h-2.666V75.691h2.168l.381 2.168h.146c.244-.42.535-.784.871-1.091.338-.308.706-.564 1.106-.769s.825-.356 1.274-.454.908-.146 1.377-.146c1.787 0 3.132.466 4.035 1.399s1.355 2.424 1.355 4.475v10.503h-2.664zM266.86 89.886c.176 0 .373-.01.594-.029.219-.02.432-.044.637-.073a6.464 6.464 0 0 0 .952-.206V91.6c-.127.059-.288.117-.483.176s-.41.11-.645.154a8.544 8.544 0 0 1-1.479.14c-.605 0-1.167-.078-1.685-.234s-.965-.425-1.34-.806c-.377-.381-.672-.896-.887-1.545s-.322-1.467-.322-2.454V77.7h-2.271v-1.187l2.271-1.143 1.143-3.37h1.538v3.691h4.043v2.007h-4.043v9.331c0 .947.153 1.66.462 2.139.306.478.812.718 1.515.718zM278.736 75.398c.283 0 .601.012.952.037s.654.061.908.11l-.352 2.461c-.273-.049-.555-.09-.842-.125a6.98 6.98 0 0 0-.813-.051c-.615 0-1.177.125-1.685.374s-.945.605-1.311 1.069c-.367.464-.65 1.021-.85 1.67-.201.649-.301 1.37-.301 2.161v8.672h-2.666V75.691h2.168l.322 2.944h.117c.244-.42.506-.825.783-1.216.279-.391.591-.735.938-1.033s.735-.537 1.165-.718.92-.27 1.467-.27zM289.36 92.068c-1.074 0-2.056-.181-2.944-.542s-1.653-.889-2.292-1.582c-.641-.693-1.136-1.553-1.487-2.578s-.527-2.197-.527-3.516c0-1.328.161-2.515.483-3.56s.776-1.931 1.362-2.659 1.286-1.282 2.103-1.663c.814-.381 1.716-.571 2.702-.571.967 0 1.836.173 2.607.52s1.426.835 1.963 1.465.949 1.387 1.237 2.271.433 1.864.433 2.938v1.655h-10.137c.049 1.885.446 3.271 1.194 4.16.746.889 1.857 1.333 3.332 1.333a11.025 11.025 0 0 0 2.615-.285c.395-.093.778-.21 1.149-.352s.747-.3 1.128-.476v2.373c-.391.186-.774.347-1.15.483a9.464 9.464 0 0 1-2.386.527c-.426.04-.887.059-1.385.059zm-.659-14.458c-1.113 0-1.995.381-2.644 1.143-.65.762-1.028 1.87-1.136 3.325h7.207a7.79 7.79 0 0 0-.198-1.824c-.131-.552-.336-1.023-.615-1.414-.277-.391-.632-.693-1.062-.908s-.946-.322-1.552-.322z"/><use xlink:href="#a" width="116" height="148" x="-58" y="-74" transform="matrix(.5 0 0 -.5 54 60)" overflow="visible"/></svg>